SplineFontDB: 3.0
FontName: KAN-KaveriBoldItalic
FullName: KAN Kaveri Bold Italic
FamilyName: KAN Kaveri
Weight: Bold
Copyright: Copyright (c) 2009-2015, NLCI (http://www.nlci.in/fonts/)
Version: 1.0 Wed May 17 15:32:13 1995
ItalicAngle: 12
UnderlinePosition: -593
UnderlineWidth: 40
Ascent: 1638
Descent: 410
InvalidEm: 0
LayerCount: 2
Layer: 0 0 "Back" 1
Layer: 1 0 "Fore" 0
XUID: [1021 122 585067096 5556871]
FSType: 0
OS2Version: 0
OS2_WeightWidthSlopeOnly: 0
OS2_UseTypoMetrics: 1
CreationTime: 1250825690
ModificationTime: 1523585811
PfmFamily: 81
TTFWeight: 700
TTFWidth: 5
LineGap: 0
VLineGap: 0
Panose: 5 0 0 0 0 0 0 0 0 0
OS2TypoAscent: -147
OS2TypoAOffset: 1
OS2TypoDescent: -401
OS2TypoDOffset: 1
OS2TypoLinegap: 0
OS2WinAscent: -467
OS2WinAOffset: 1
OS2WinDescent: -213
OS2WinDOffset: 1
HheadAscent: -467
HheadAOffset: 1
HheadDescent: 213
HheadDOffset: 1
OS2SubXSize: 1434
OS2SubYSize: 1331
OS2SubXOff: 0
OS2SubYOff: 293
OS2SupXSize: 1434
OS2SupYSize: 1331
OS2SupXOff: 0
OS2SupYOff: 928
OS2StrikeYSize: 102
OS2StrikeYPos: 530
OS2Vendor: 'Alts'
OS2UnicodeRanges: 00000000.00000000.00000000.00000000
Lookup: 262 0 0 "blwm" { "blwm-2sub"  } []
MarkAttachClasses: 1
DEI: 91125
TtTable: prep
NPUSHB
 1
 1
SCANTYPE
PUSHW_1
 511
SCANCTRL
EndTTInstrs
ShortTable: maxp 16
  1
  0
  319
  206
  5
  177
  6
  2
  8
  64
  10
  0
  3
  417
  4
  2
EndShort
LangName: 1033 "" "" "Bold Italic" "NLCI:KAN Kaveri Bold Italic" "" "1.0 Wed May 17 15:32:13 1995"
Encoding: Original
Compacted: 1
UnicodeInterp: none
NameList: Adobe Glyph List
DisplaySize: -48
AntiAlias: 1
FitToEm: 1
WinInfo: 0 37 14
BeginPrivate: 0
EndPrivate
AnchorClass2: "Sub" "blwm-2sub" "Nukta"""  "s"""  "V""" 
BeginChars: 572 313

StartChar: .notdef
Encoding: 0 -1 0
Width: 1024
Flags: HW
LayerCount: 2
Fore
SplineSet
63 0 m 1
 63 1237 l 1
 961 1237 l 1
 961 0 l 1
 63 0 l 1
897 63 m 1
 897 1174 l 1
 127 1174 l 1
 127 63 l 1
 897 63 l 1
EndSplineSet
EndChar

StartChar: exclam
Encoding: 4 33 4
Width: 796
VWidth: 1024
Flags: HW
LayerCount: 2
Fore
SplineSet
711 1292 m 0
 675.666666667 1183.33333333 640.666666667 1077.33333333 606 974 c 0
 591.333333333 929.333333333 576.333333333 883.333333333 561 836 c 0
 545 788 529.333333333 740.333333333 514 693 c 0
 498.666666667 645.666666667 483.333333333 600.333333333 468 557 c 0
 453.333333333 513 440 472.666666667 428 436 c 0
 314 436 l 0
 362 1243 l 0
 362 1272.33333333 368 1299.33333333 380 1324 c 0
 391.333333333 1348 406.666666667 1368.66666667 426 1386 c 0
 445.333333333 1403.33333333 467.333333333 1416.66666667 492 1426 c 0
 516.666666667 1435.33333333 542 1440.33333333 568 1441 c 0
 619.333333333 1441 656 1429 678 1405 c 0
 700 1381 711 1343.33333333 711 1292 c 0
504 136 m 0
 504 112.666666667 499.333333333 91.3333333333 490 72 c 0
 480.666666667 52 468.333333333 34.6666666667 453 20 c 0
 437 5.33333333333 418.666666667 -5.66666666667 398 -13 c 0
 377.333333333 -21 355.333333333 -25.3333333333 332 -26 c 0
 309.333333333 -26 288.333333333 -21.3333333333 269 -12 c 0
 249.666666667 -2.66666666667 233 10 219 26 c 0
 204.333333333 42 193.333333333 60 186 80 c 0
 178 100.666666667 174 122 174 144 c 0
 174 167.333333333 178 189 186 209 c 0
 194 229 205.333333333 247 220 263 c 0
 234.666666667 278.333333333 251.666666667 290.333333333 271 299 c 0
 290.333333333 307.666666667 311.333333333 312 334 312 c 0
 359.333333333 312 382.333333333 307.333333333 403 298 c 0
 423.666666667 288.666666667 441.666666667 276 457 260 c 0
 472.333333333 244 484 225 492 203 c 0
 500 181.666666667 504 159.333333333 504 136 c 0
EndSplineSet
EndChar

StartChar: quotedbl
Encoding: 5 34 5
Width: 788
VWidth: 1024
Flags: HW
LayerCount: 2
Fore
SplineSet
883 1403 m 0
 883 1396.33333333 879 1380.66666667 871 1356 c 0
 863.666666667 1331.33333333 854 1302 842 1268 c 0
 830 1234 816.666666667 1197 802 1157 c 0
 787.333333333 1117 773.333333333 1078.33333333 760 1041 c 0
 746.666666667 1004.33333333 734.333333333 971 723 941 c 0
 712.333333333 911 704 888.666666667 698 874 c 0
 621 874 l 0
 638 1365 l 0
 638.666666667 1384.33333333 643 1402 651 1418 c 0
 659 1434 670 1447.66666667 684 1459 c 0
 697.333333333 1470.33333333 712.666666667 1479.66666667 730 1487 c 0
 747.333333333 1493.66666667 764.666666667 1497 782 1497 c 0
 812.666666667 1497 837.333333333 1489.66666667 856 1475 c 0
 874 1459.66666667 883 1435.66666667 883 1403 c 0
472 1403 m 0
 472 1396.33333333 468.333333333 1380.66666667 461 1356 c 0
 453.666666667 1331.33333333 444 1302 432 1268 c 0
 420 1234 406.666666667 1197 392 1157 c 0
 377.333333333 1117 363 1078.33333333 349 1041 c 0
 335.666666667 1004.33333333 323.333333333 971 312 941 c 0
 300.666666667 911 292.666666667 888.666666667 288 874 c 0
 210 874 l 0
 224 1365 l 0
 224.666666667 1384.33333333 229.666666667 1402 239 1418 c 0
 247.666666667 1434 258.666666667 1447.66666667 272 1459 c 0
 285.333333333 1470.33333333 300.666666667 1479.66666667 318 1487 c 0
 335.333333333 1493.66666667 353 1497 371 1497 c 0
 401.666666667 1497 426 1489.66666667 444 1475 c 0
 462.666666667 1459.66666667 472 1435.66666667 472 1403 c 0
EndSplineSet
EndChar

StartChar: numbersign
Encoding: 6 35 6
Width: 1554
VWidth: 1024
Flags: HW
LayerCount: 2
Fore
SplineSet
1105 868 m 0
 1015 592 l 0
 1340 592 l 0
 1340 460 l 0
 969 460 l 0
 810 -50 l 0
 665 -14 l 0
 820 460 l 0
 558 460 l 0
 394 -50 l 0
 254 -12 l 0
 411 460 l 0
 130 460 l 0
 130 592 l 0
 453 592 l 0
 543 868 l 0
 232 868 l 0
 232 1007 l 0
 587 1007 l 0
 749 1489 l 0
 889 1451 l 0
 734 1007 l 0
 1007 1007 l 0
 1162 1489 l 0
 1307 1449 l 0
 1149 1007 l 0
 1424 1007 l 0
 1424 868 l 0
 1105 868 l 0
694 868 m 0
 602 592 l 0
 862 592 l 0
 958 868 l 0
 694 868 l 0
EndSplineSet
EndChar

StartChar: dollar
Encoding: 7 36 7
Width: 1253
VWidth: 1024
Flags: HW
LayerCount: 2
Fore
SplineSet
711 1267 m 0
 682.333333333 1263 655.333333333 1253.66666667 630 1239 c 0
 608 1226.33333333 586.666666667 1207.33333333 566 1182 c 0
 545.333333333 1156.66666667 530.666666667 1121.33333333 522 1076 c 0
 518 1054.66666667 516.333333333 1035.33333333 517 1018 c 0
 517.666666667 1000.66666667 520.333333333 985.333333333 525 972 c 0
 529.666666667 958.666666667 535.666666667 946.666666667 543 936 c 0
 549.666666667 926 557 917 565 909 c 0
 583.666666667 891 606.333333333 878 633 870 c 0
 711 1267 l 0
841 354 m 0
 847.666666667 388.666666667 847 418 839 442 c 0
 831 466 819.333333333 486 804 502 c 0
 788 518 770.333333333 530.333333333 751 539 c 0
 731 548.333333333 712.666666667 555.333333333 696 560 c 0
 612 136 l 0
 647.333333333 140.666666667 680.666666667 151.666666667 712 169 c 0
 724.666666667 175.666666667 737.666666667 184.666666667 751 196 c 0
 764.333333333 206.666666667 776.666666667 219.333333333 788 234 c 0
 799.333333333 248.666666667 809.666666667 266 819 286 c 0
 828.333333333 305.333333333 835.666666667 328 841 354 c 0
1160 990 m 0
 1015 990 l 0
 1019 1210 l 0
 1020.33333333 1218 1019.33333333 1223.66666667 1016 1227 c 0
 1012.66666667 1230.33333333 1008 1233 1002 1235 c 0
 992 1239.66666667 979 1244.33333333 963 1249 c 0
 946.333333333 1253.66666667 929.666666667 1257.66666667 913 1261 c 0
 896.333333333 1265 881 1268 867 1270 c 0
 852.333333333 1272 842.333333333 1273 837 1273 c 0
 751 841 l 0
 773 835 798.333333333 827.333333333 827 818 c 0
 856.333333333 808.666666667 886.666666667 797 918 783 c 0
 948.666666667 769 978.333333333 752 1007 732 c 0
 1036.33333333 712 1061 687.666666667 1081 659 c 0
 1101 631 1115.33333333 598 1124 560 c 0
 1132.66666667 522.666666667 1132 479.333333333 1122 430 c 0
 1110.66666667 370 1089 315.666666667 1057 267 c 0
 1025 218.333333333 985.666666667 176 939 140 c 0
 891.666666667 104 838 74.3333333333 778 51 c 0
 717.333333333 27.6666666667 653 11.3333333333 585 2 c 0
 543 -214 l 0
 420 -214 l 0
 462 0 l 0
 412.666666667 2 363.666666667 6 315 12 c 0
 273 17.3333333333 228 24.6666666667 180 34 c 0
 132 42.6666666667 86.6666666667 54.6666666667 44 70 c 0
 116 432 l 0
 266 432 l 0
 260 206 l 0
 260 191 l 0
 260 188.333333333 260.666666667 186.333333333 262 185 c 0
 263.333333333 183.666666667 264.666666667 182.666666667 266 182 c 0
 268 180.666666667 271.333333333 178.666666667 276 176 c 0
 296 164.666666667 318.333333333 156 343 150 c 0
 367 144 390 139.333333333 412 136 c 0
 436.666666667 132.666666667 461.333333333 130.666666667 486 130 c 0
 577 592 l 0
 552.333333333 599.333333333 525.666666667 608 497 618 c 0
 468.333333333 628 440 640.333333333 412 655 c 0
 384 669.666666667 357.666666667 687 333 707 c 0
 308.333333333 727 287.666666667 751 271 779 c 0
 254.333333333 806.333333333 243 838.333333333 237 875 c 0
 231 911.666666667 232.666666667 953.333333333 242 1000 c 0
 250.666666667 1048 264.666666667 1090.33333333 284 1127 c 0
 303.333333333 1163.66666667 325.666666667 1196.33333333 351 1225 c 0
 375.666666667 1253 402.666666667 1276.66666667 432 1296 c 0
 461.333333333 1315.33333333 490 1331.66666667 518 1345 c 0
 585.333333333 1375.66666667 658.666666667 1394.33333333 738 1401 c 0
 770 1556 l 0
 893 1556 l 0
 862 1401 l 0
 905.333333333 1401 948.666666667 1397.66666667 992 1391 c 0
 1035.33333333 1384.33333333 1074.66666667 1377.33333333 1110 1370 c 0
 1150.66666667 1361.33333333 1190.33333333 1351.33333333 1229 1340 c 0
 1160 990 l 0
EndSplineSet
EndChar

StartChar: percent
Encoding: 8 37 8
Width: 1886
VWidth: 1024
Flags: HW
LayerCount: 2
Fore
SplineSet
1805 548 m 0
 1805 501.333333333 1801 454.666666667 1793 408 c 0
 1785 361.333333333 1772.66666667 316.333333333 1756 273 c 0
 1739.33333333 229.666666667 1718 189.333333333 1692 152 c 0
 1666.66666667 114.666666667 1637 82.3333333333 1603 55 c 0
 1569 27.6666666667 1530.33333333 6 1487 -10 c 0
 1443.66666667 -26 1396.33333333 -34 1345 -34 c 0
 1249 -34 1177 -8.66666666667 1129 42 c 0
 1081.66666667 92.6666666667 1058.33333333 165.333333333 1059 260 c 0
 1059 306 1063 352.333333333 1071 399 c 0
 1079 445.666666667 1091.33333333 490.666666667 1108 534 c 0
 1124.66666667 577.333333333 1145.33333333 617.666666667 1170 655 c 0
 1195.33333333 692.333333333 1225.33333333 725 1260 753 c 0
 1294 780.333333333 1332.33333333 802.333333333 1375 819 c 0
 1418.33333333 835 1466.33333333 843 1519 843 c 0
 1614.33333333 843 1686 817.333333333 1734 766 c 0
 1781.33333333 715.333333333 1805 642.666666667 1805 548 c 0
474 0 m 0
 323 0 l 0
 1473 1407 l 0
 1625 1407 l 0
 474 0 l 0
889 1145 m 0
 889 1098.33333333 885 1052 877 1006 c 0
 869 959.333333333 856.333333333 914.333333333 839 871 c 0
 822.333333333 827.666666667 801.333333333 787.333333333 776 750 c 0
 750.666666667 712.666666667 721.333333333 680 688 652 c 0
 654 624.666666667 615.333333333 602.666666667 572 586 c 0
 528.666666667 570 481.333333333 562 430 562 c 0
 333.333333333 562 260.666666667 588 212 640 c 0
 164 692 140 765.333333333 140 860 c 0
 140 928.666666667 149.333333333 998 168 1068 c 0
 186.666666667 1137.33333333 215.333333333 1199.33333333 254 1254 c 0
 292 1309.33333333 340 1354.33333333 398 1389 c 0
 456 1423.66666667 524 1441 602 1441 c 0
 697.333333333 1441 769 1415.33333333 817 1364 c 0
 865 1313.33333333 889 1240.33333333 889 1145 c 0
1585 598 m 0
 1585 612.666666667 1584 628.333333333 1582 645 c 0
 1580 662.333333333 1576 678.333333333 1570 693 c 0
 1564 707.666666667 1555 720 1543 730 c 0
 1531.66666667 740 1516.33333333 744.666666667 1497 744 c 0
 1468.33333333 744 1443 734.333333333 1421 715 c 0
 1399 695 1379.33333333 669.333333333 1362 638 c 0
 1344.66666667 606.666666667 1330 572 1318 534 c 0
 1306 495.333333333 1296.33333333 456.666666667 1289 418 c 0
 1281 380 1275.33333333 344 1272 310 c 0
 1268.66666667 276.666666667 1267 249.333333333 1267 228 c 0
 1267 211.333333333 1268 193.666666667 1270 175 c 0
 1272 155.666666667 1276.33333333 138 1283 122 c 0
 1289.66666667 105.333333333 1299.33333333 91.6666666667 1312 81 c 0
 1324.66666667 70.3333333333 1341.66666667 65 1363 65 c 0
 1390.33333333 65 1414.66666667 75.3333333333 1436 96 c 0
 1457.33333333 116.666666667 1476.33333333 143.333333333 1493 176 c 0
 1509.66666667 208.666666667 1523.66666667 245.333333333 1535 286 c 0
 1547 326.666666667 1556.66666667 367 1564 407 c 0
 1571.33333333 446.333333333 1576.66666667 483 1580 517 c 0
 1583.33333333 551 1585 578 1585 598 c 0
671 1193 m 0
 671 1208.33333333 670 1224.66666667 668 1242 c 0
 666 1260 661.666666667 1276.33333333 655 1291 c 0
 649 1305.66666667 640.333333333 1318 629 1328 c 0
 617.666666667 1338 602.333333333 1342.66666667 583 1342 c 0
 554.333333333 1342 528.666666667 1332.33333333 506 1313 c 0
 483.333333333 1293.66666667 463.333333333 1268.66666667 446 1238 c 0
 428.666666667 1206.66666667 414 1171.66666667 402 1133 c 0
 390 1094.33333333 380 1056 372 1018 c 0
 364 980 358.333333333 944.333333333 355 911 c 0
 351.666666667 877.666666667 350 850.666666667 350 830 c 0
 350 812.666666667 351 794.333333333 353 775 c 0
 355 755 359.666666667 736.666666667 367 720 c 0
 374.333333333 702.666666667 384.333333333 688.333333333 397 677 c 0
 409.666666667 665.666666667 427 660 449 660 c 0
 475.666666667 660 499.666666667 670.666666667 521 692 c 0
 542.333333333 712.666666667 561.333333333 739.666666667 578 773 c 0
 594.666666667 806.333333333 609 843 621 883 c 0
 632.333333333 923.666666667 641.666666667 963.666666667 649 1003 c 0
 656.333333333 1042.33333333 662 1079 666 1113 c 0
 669.333333333 1147 671 1173.66666667 671 1193 c 0
EndSplineSet
EndChar

StartChar: ampersand
Encoding: 9 38 9
Width: 1562
VWidth: 1024
Flags: HW
LayerCount: 2
Fore
SplineSet
1340 640 m 0
 1310 580 1273 518.333333333 1229 455 c 0
 1185 391.666666667 1136.66666667 332 1084 276 c 0
 1109.33333333 243.333333333 1133.66666667 216.666666667 1157 196 c 0
 1180.33333333 174.666666667 1205 157.666666667 1231 145 c 0
 1257 133 1285.66666667 124.666666667 1317 120 c 0
 1348.33333333 115.333333333 1384 113.333333333 1424 114 c 0
 1424 4 l 0
 1373.33333333 2 1334.33333333 0 1307 -2 c 0
 1279 -4 1255 -5.33333333333 1235 -6 c 0
 1181.66666667 -10 1128.66666667 -8 1076 0 c 0
 1041.33333333 7.33333333333 1009.33333333 19.6666666667 980 37 c 0
 950.666666667 54.3333333333 921 79.3333333333 891 112 c 0
 863.666666667 93.3333333333 834.333333333 75.6666666667 803 59 c 0
 771.666666667 42.3333333333 737.666666667 28 701 16 c 0
 664.333333333 4 624.666666667 -5.66666666667 582 -13 c 0
 539.333333333 -20.3333333333 492.666666667 -24 442 -24 c 0
 376.666666667 -24 318.333333333 -15 267 3 c 0
 215.666666667 20.3333333333 172 44.3333333333 136 75 c 0
 100 106.333333333 72.6666666667 143.666666667 54 187 c 0
 35.3333333333 230.333333333 26 278 26 330 c 0
 26 381.333333333 35.3333333333 428.333333333 54 471 c 0
 72.6666666667 513.666666667 98 553 130 589 c 0
 162 625 200 658 244 688 c 0
 288 718 334.666666667 746 384 772 c 0
 352 815.333333333 325.333333333 858.333333333 304 901 c 0
 282.666666667 943.666666667 272 989.333333333 272 1038 c 0
 272 1092 283.666666667 1143 307 1191 c 0
 330.333333333 1239 364 1281 408 1317 c 0
 452 1353 505.333333333 1381.66666667 568 1403 c 0
 630.666666667 1424.33333333 702 1435 782 1435 c 0
 841.333333333 1435 894 1427 940 1411 c 0
 985.333333333 1395 1023 1373.66666667 1053 1347 c 0
 1083.66666667 1320.33333333 1106.66666667 1289.66666667 1122 1255 c 0
 1137.33333333 1221 1145 1186.33333333 1145 1151 c 0
 1145 1101.66666667 1134.66666667 1057 1114 1017 c 0
 1093.33333333 977 1064.66666667 940.666666667 1028 908 c 0
 990.666666667 875.333333333 946 846 894 820 c 0
 842.666666667 794 786 770.333333333 724 749 c 0
 975 424 l 0
 1000.33333333 456.666666667 1022.66666667 490 1042 524 c 0
 1062 558 1079 588.666666667 1093 616 c 0
 1094.33333333 618 1094.33333333 622 1093 628 c 0
 1091.66666667 633.333333333 1090.33333333 636 1089 636 c 0
 965 656 l 0
 965 770 l 0
 1495 770 l 0
 1495 656 l 0
 1340 640 l 0
856 1135 m 0
 856 1157.66666667 854.333333333 1179.33333333 851 1200 c 0
 847.666666667 1221.33333333 842 1240 834 1256 c 0
 825.333333333 1272.66666667 813.666666667 1286 799 1296 c 0
 783.666666667 1306 764 1311 740 1311 c 0
 728 1311 711.333333333 1307 690 1299 c 0
 668.666666667 1291.66666667 647.333333333 1279.66666667 626 1263 c 0
 605.333333333 1245.66666667 587 1223 571 1195 c 0
 555 1167 547.333333333 1133 548 1093 c 0
 548 1071 550.666666667 1049.33333333 556 1028 c 0
 561.333333333 1006.66666667 568 985.666666667 576 965 c 0
 584.666666667 944.333333333 594.666666667 924.333333333 606 905 c 0
 617.333333333 885.666666667 629.333333333 867.666666667 642 851 c 0
 674 866.333333333 703.333333333 883.333333333 730 902 c 0
 756 920.666666667 778.333333333 941.333333333 797 964 c 0
 815.666666667 986.666666667 830.333333333 1012 841 1040 c 0
 851 1068.66666667 856 1100.33333333 856 1135 c 0
474 648 m 0
 429.333333333 613.333333333 395 574.666666667 371 532 c 0
 346.333333333 490 334 442.666666667 334 390 c 0
 334 346.666666667 341.333333333 309 356 277 c 0
 370.666666667 244.333333333 389 217.333333333 411 196 c 0
 433 174 456.333333333 157.333333333 481 146 c 0
 505.666666667 135.333333333 528.666666667 130 550 130 c 0
 572 130 592 132 610 136 c 0
 628.666666667 140 647 146.333333333 665 155 c 0
 683 163 702 173.333333333 722 186 c 0
 742 198.666666667 764 214 788 232 c 0
 474 648 l 0
EndSplineSet
EndChar

StartChar: quotesingle
Encoding: 10 39 10
Width: 366
VWidth: 1024
Flags: HW
LayerCount: 2
Fore
SplineSet
472 1403 m 0
 472 1392.33333333 468.333333333 1373.66666667 461 1347 c 0
 453.666666667 1321 444 1290.66666667 432 1256 c 0
 420 1221.33333333 406.666666667 1184.66666667 392 1146 c 0
 377.333333333 1107.33333333 363 1070.66666667 349 1036 c 0
 335.666666667 1000.66666667 323.333333333 968.666666667 312 940 c 0
 300.666666667 910.666666667 292.666666667 888.666666667 288 874 c 0
 210 874 l 0
 224 1365 l 0
 224.666666667 1384.33333333 229.666666667 1402 239 1418 c 0
 247.666666667 1434 258.666666667 1447.66666667 272 1459 c 0
 285.333333333 1470.33333333 300.666666667 1479.66666667 318 1487 c 0
 335.333333333 1493.66666667 353 1497 371 1497 c 0
 401.666666667 1497 426 1489.66666667 444 1475 c 0
 462.666666667 1459.66666667 472 1435.66666667 472 1403 c 0
EndSplineSet
EndChar

StartChar: parenleft
Encoding: 11 40 11
Width: 888
VWidth: 1024
Flags: HW
LayerCount: 2
Fore
SplineSet
967 1391 m 0
 913.666666667 1384.33333333 865 1367 821 1339 c 0
 777 1311.66666667 736.666666667 1276.66666667 700 1234 c 0
 663.333333333 1192 630.666666667 1143.66666667 602 1089 c 0
 572.666666667 1034.33333333 547 976.333333333 525 915 c 0
 503 853.666666667 484.333333333 791 469 727 c 0
 453 663 440.333333333 599.666666667 431 537 c 0
 421 474.333333333 413.666666667 414.666666667 409 358 c 0
 404.333333333 300.666666667 402 249.333333333 402 204 c 0
 402 158 405.666666667 113.333333333 413 70 c 0
 419.666666667 26 432.333333333 -13.6666666667 451 -49 c 0
 469.666666667 -84.3333333333 495.666666667 -114 529 -138 c 0
 562.333333333 -162 604.666666667 -177.333333333 656 -184 c 0
 633 -298 l 0
 545 -296 470.333333333 -279.333333333 409 -248 c 0
 347.666666667 -216.666666667 297.666666667 -175 259 -123 c 0
 220.333333333 -71 192.333333333 -10 175 60 c 0
 157.666666667 130 148.666666667 205.333333333 148 286 c 0
 148 369.333333333 155.333333333 456.666666667 170 548 c 0
 184.666666667 639.333333333 206.666666667 729.666666667 236 819 c 0
 265.333333333 908.333333333 302.666666667 993.666666667 348 1075 c 0
 393.333333333 1156.33333333 447 1228.33333333 509 1291 c 0
 571 1353.66666667 642 1404 722 1442 c 0
 802 1480 891.333333333 1500.33333333 990 1503 c 0
 967 1391 l 0
EndSplineSet
EndChar

StartChar: parenright
Encoding: 12 41 12
Width: 888
VWidth: 1024
Flags: HW
LayerCount: 2
Fore
SplineSet
740 921 m 0
 740 838.333333333 733 751 719 659 c 0
 705 567.666666667 683.333333333 477.333333333 654 388 c 0
 624 298.666666667 586.666666667 213.333333333 542 132 c 0
 496.666666667 50.6666666667 442.666666667 -21.6666666667 380 -85 c 0
 317.333333333 -147.666666667 246.333333333 -198.333333333 167 -237 c 0
 87 -275 -2 -295.333333333 -100 -298 c 0
 -80 -184 l 0
 -26.6666666667 -177.333333333 22.3333333333 -160.333333333 67 -133 c 0
 111.666666667 -105.666666667 151.666666667 -70.3333333333 187 -27 c 0
 223 15.6666666667 255.666666667 64.3333333333 285 119 c 0
 314.333333333 173.666666667 340 231.666666667 362 293 c 0
 384 354.333333333 403 417.333333333 419 482 c 0
 435 546.666666667 447.666666667 610 457 672 c 0
 467 734 474.333333333 793.333333333 479 850 c 0
 483.666666667 907.333333333 486 959 486 1005 c 0
 486 1051 482.666666667 1095.33333333 476 1138 c 0
 469.333333333 1181.33333333 456.666666667 1220.66666667 438 1256 c 0
 419.333333333 1291.33333333 393.333333333 1321 360 1345 c 0
 326.666666667 1369 284 1384.33333333 232 1391 c 0
 256 1503 l 0
 343.333333333 1500.33333333 417.666666667 1483.66666667 479 1453 c 0
 540.333333333 1422.33333333 590.333333333 1381 629 1329 c 0
 667.666666667 1277 696 1216 714 1146 c 0
 731.333333333 1076.66666667 740 1001.66666667 740 921 c 0
EndSplineSet
EndChar

StartChar: asterisk
Encoding: 13 42 13
Width: 1048
VWidth: 1024
Flags: HW
LayerCount: 2
Fore
SplineSet
977 1061 m 0
 707 1063 l 0
 694 1095 l 0
 916 1258 l 0
 1069 1197 l 0
 977 1061 l 0
673 1118 m 0
 640 1118 l 0
 554 1380 l 0
 656 1505 l 0
 761 1380 l 0
 673 1118 l 0
914 709 m 0
 753 751 l 0
 669 1011 l 0
 696 1036 l 0
 919 872 l 0
 914 709 l 0
608 1063 m 0
 336 1061 l 0
 246 1197 l 0
 394 1258 l 0
 618 1093 l 0
 608 1063 l 0
562 751 m 0
 400 709 l 0
 394 872 l 0
 618 1036 l 0
 646 1011 l 0
 562 751 l 0
EndSplineSet
EndChar

StartChar: plus
Encoding: 14 43 14
Width: 2097
VWidth: 1024
Flags: HW
LayerCount: 2
Fore
SplineSet
1113 564 m 0
 1113 0 l 0
 984 0 l 0
 984 564 l 0
 420 564 l 0
 420 694 l 0
 984 694 l 0
 984 1258 l 0
 1113 1258 l 0
 1113 694 l 0
 1677 694 l 0
 1677 564 l 0
 1113 564 l 0
EndSplineSet
EndChar

StartChar: comma
Encoding: 15 44 15
Width: 671
VWidth: 1024
Flags: HW
LayerCount: 2
Fore
SplineSet
420 176 m 0
 420 135.333333333 412.333333333 94 397 52 c 0
 381.666666667 10.6666666667 360.666666667 -30 334 -70 c 0
 307.333333333 -109.333333333 276.333333333 -146.666666667 241 -182 c 0
 205.666666667 -217.333333333 168.333333333 -248 129 -274 c 0
 89.6666666667 -300.666666667 49 -322.333333333 7 -339 c 0
 -35 -355.666666667 -76 -365.666666667 -116 -369 c 0
 -96 -266 l 0
 -57.3333333333 -260.666666667 -20.6666666667 -250.666666667 14 -236 c 0
 48.6666666667 -220.666666667 79.3333333333 -201.333333333 106 -178 c 0
 133.333333333 -154.666666667 156.333333333 -126.666666667 175 -94 c 0
 193.666666667 -62 206 -26 212 14 c 0
 84 14 l 0
 70.6666666667 26.6666666667 60.3333333333 41.6666666667 53 59 c 0
 45.6666666667 76.3333333333 42 94.6666666667 42 114 c 0
 42 142 48 168.666666667 60 194 c 0
 72 219.333333333 88 242 108 262 c 0
 128 281.333333333 150.666666667 296.666666667 176 308 c 0
 202 319.333333333 229.333333333 325 258 325 c 0
 305.333333333 325 344 312.666666667 374 288 c 0
 404.666666667 264 420 226.666666667 420 176 c 0
EndSplineSet
EndChar

StartChar: hyphen
Encoding: 16 45 16
Width: 729
VWidth: 1024
Flags: HW
LayerCount: 2
Fore
SplineSet
612 394 m 0
 62 394 l 0
 106 616 l 0
 656 616 l 0
 612 394 l 0
EndSplineSet
EndChar

StartChar: period
Encoding: 17 46 17
Width: 665
VWidth: 1024
Flags: HW
LayerCount: 2
Fore
SplineSet
400 148 m 0
 400 124 395.666666667 101.666666667 387 81 c 0
 377.666666667 59.6666666667 365 41.3333333333 349 26 c 0
 333 10 314.666666667 -2.66666666667 294 -12 c 0
 272.666666667 -21.3333333333 250 -26 226 -26 c 0
 202 -26 179.333333333 -21.3333333333 158 -12 c 0
 136.666666667 -2.66666666667 118 10 102 26 c 0
 86 42 73.3333333333 60.3333333333 64 81 c 0
 54.6666666667 102.333333333 50 124.666666667 50 148 c 0
 50 172.666666667 54.6666666667 195.666666667 64 217 c 0
 73.3333333333 238.333333333 86 257 102 273 c 0
 118 289 136.666666667 301.666666667 158 311 c 0
 179.333333333 320.333333333 202 325 226 325 c 0
 250 325 272.666666667 320.333333333 294 311 c 0
 315.333333333 301.666666667 333.666666667 289 349 273 c 0
 365 257 377.666666667 238.333333333 387 217 c 0
 395.666666667 195.666666667 400 172.666666667 400 148 c 0
EndSplineSet
EndChar

StartChar: slash
Encoding: 18 47 18
Width: 1050
VWidth: 1024
Flags: HW
LayerCount: 2
Fore
SplineSet
164 -195 m 0
 0 -195 l 0
 885 1407 l 0
 1051 1407 l 0
 164 -195 l 0
EndSplineSet
EndChar

StartChar: zero
Encoding: 19 48 19
Width: 1622
VWidth: 1024
Flags: HW
LayerCount: 2
Fore
SplineSet
1438 322 m 0
 1597 1081 l 0
 1602.33333333 1105.66666667 1598 1126 1584 1142 c 0
 1569.33333333 1158 1549.33333333 1165.66666667 1524 1165 c 0
 1307 1165 l 0
 1286.33333333 1165 1269.66666667 1164.33333333 1257 1163 c 0
 1245 1161.66666667 1232.66666667 1155.66666667 1220 1145 c 0
 1207.33333333 1134.33333333 1197 1124 1189 1114 c 0
 1181.66666667 1104.66666667 1177.33333333 1094.33333333 1176 1083 c 0
 1014 315 l 0
 1008.66666667 293 1015.66666667 274.666666667 1035 260 c 0
 1055 244.666666667 1080 237.333333333 1110 238 c 0
 1327 238 l 0
 1351.66666667 238 1375.33333333 247 1398 265 c 0
 1420.66666667 283.666666667 1434 302.666666667 1438 322 c 0
1700 254 m 0
 1693.33333333 210 1670.66666667 168.333333333 1632 129 c 0
 1611.33333333 111 1591.33333333 94.3333333333 1572 79 c 0
 1552 63 1531 50.3333333333 1509 41 c 0
 1450.33333333 16.3333333333 1397.33333333 4 1350 4 c 0
 973 6 l 0
 887 6 823.333333333 35.3333333333 782 94 c 0
 746.666666667 132 729 180 729 238 c 0
 729 264 730.333333333 283 733 295 c 0
 913 1151 l 0
 929.666666667 1219 975 1277.66666667 1049 1327 c 0
 1123 1372.33333333 1205.33333333 1395 1296 1395 c 0
 1628 1395 l 0
 1720.66666667 1395 1789 1366.33333333 1833 1309 c 0
 1868.33333333 1273.66666667 1886 1226.33333333 1886 1167 c 0
 1886 1142.33333333 1883.33333333 1119.33333333 1878 1098 c 0
 1700 254 l 0
EndSplineSet
EndChar

StartChar: one
Encoding: 20 49 20
Width: 1622
VWidth: 1024
Flags: HW
LayerCount: 2
Fore
SplineSet
1645 0 m 0
 838 0 l 0
 885 231 l 0
 1151 231 l 0
 1333 1096 l 0
 1338.33333333 1118 1338.33333333 1136.33333333 1333 1151 c 0
 1330.33333333 1153.66666667 1324.33333333 1156.33333333 1315 1159 c 0
 1087 1159 l 0
 1135 1391 l 0
 1407 1391 l 0
 1485 1391 1541.66666667 1367 1577 1319 c 0
 1611 1281 1628 1239.33333333 1628 1194 c 0
 1628 1173.33333333 1626.66666667 1157.66666667 1624 1147 c 0
 1430 227 l 0
 1692 227 l 0
 1645 0 l 0
EndSplineSet
EndChar

StartChar: two
Encoding: 21 50 21
Width: 1622
VWidth: 1024
Flags: HW
LayerCount: 2
Fore
SplineSet
1645 0 m 0
 637 0 l 0
 745 512 l 0
 754.333333333 552.666666667 769.666666667 587.666666667 791 617 c 0
 811.666666667 646.333333333 842.333333333 672 883 694 c 0
 962.333333333 744.666666667 1046.33333333 770 1135 770 c 0
 1460 770 l 0
 1472 770 1488.33333333 780.333333333 1509 801 c 0
 1525.66666667 825.666666667 1536.66666667 850 1542 874 c 0
 1593 1114 l 0
 1594.33333333 1124.66666667 1593.66666667 1135.66666667 1591 1147 c 0
 1585.66666667 1152.33333333 1575 1155 1559 1155 c 0
 1235 1155 l 0
 1205 1155 1180.33333333 1150.33333333 1161 1141 c 0
 1151.66666667 1138.33333333 1145.66666667 1129.33333333 1143 1114 c 0
 1100 913 l 0
 825 913 l 0
 883 1180 l 0
 898.333333333 1244 936 1294.33333333 996 1331 c 0
 1056.66666667 1367.66666667 1126.66666667 1386 1206 1386 c 0
 1647 1386 l 0
 1726.33333333 1386 1788.33333333 1363.66666667 1833 1319 c 0
 1864.33333333 1285 1880 1243.33333333 1880 1194 c 0
 1880 1172 1878.66666667 1155.66666667 1876 1145 c 0
 1817 858 l 0
 1806.33333333 800.666666667 1781.33333333 746.333333333 1742 695 c 0
 1703.33333333 643.666666667 1657.66666667 604.666666667 1605 578 c 0
 1552.33333333 550.666666667 1500.66666667 537 1450 537 c 0
 1102 537 l 0
 1068 537 1044.66666667 534 1032 528 c 0
 1018 524 l 0
 956 229 l 0
 1690 229 l 0
 1645 0 l 0
EndSplineSet
EndChar

StartChar: three
Encoding: 22 51 22
Width: 1622
VWidth: 1024
Flags: HW
LayerCount: 2
Fore
SplineSet
1696 238 m 0
 1684 174 1645.33333333 118.666666667 1580 72 c 0
 1515.33333333 25.3333333333 1448 2 1378 2 c 0
 940 4 l 0
 862 4 795.666666667 23 741 61 c 0
 701.666666667 92.3333333333 682 128.666666667 682 170 c 0
 682 176.666666667 683.333333333 189.666666667 686 209 c 0
 729 418 l 0
 1004 418 l 0
 979 293 l 0
 976.333333333 276.333333333 981 262 993 250 c 0
 1005 238 1023.66666667 231.666666667 1049 231 c 0
 1325 231 l 0
 1351 231 1374.33333333 238 1395 252 c 0
 1415.66666667 265.333333333 1428.66666667 284.333333333 1434 309 c 0
 1481 535 l 0
 1483.66666667 554.333333333 1479.33333333 574.666666667 1468 596 c 0
 1452.66666667 611.333333333 1431 618.666666667 1403 618 c 0
 1294 618 l 0
 1346 850 l 0
 1436 850 l 0
 1455.33333333 850 1469 851.333333333 1477 854 c 0
 1485 856.666666667 1498.66666667 862.666666667 1518 872 c 0
 1540 877.333333333 1551.33333333 885.666666667 1552 897 c 0
 1591 1087 l 0
 1593.66666667 1106.33333333 1590.33333333 1124.33333333 1581 1141 c 0
 1571.66666667 1150.33333333 1558.66666667 1155 1542 1155 c 0
 1237 1155 l 0
 1208.33333333 1155 1184.33333333 1150.33333333 1165 1141 c 0
 1155.66666667 1134.33333333 1147.66666667 1120.66666667 1141 1100 c 0
 1118 995 l 0
 844 995 l 0
 889 1210 l 0
 899.666666667 1264.66666667 935.333333333 1308 996 1340 c 0
 1056.66666667 1372 1126.66666667 1388.33333333 1206 1389 c 0
 1665 1389 l 0
 1739 1389 1795.66666667 1365 1835 1317 c 0
 1850.33333333 1301.66666667 1862 1284 1870 1264 c 0
 1878 1243.33333333 1882 1220.66666667 1882 1196 c 0
 1882 1174 1880.66666667 1157.66666667 1878 1147 c 0
 1835 942 l 0
 1832.33333333 921.333333333 1824.33333333 901 1811 881 c 0
 1798.33333333 860.333333333 1781.66666667 839.666666667 1761 819 c 0
 1749 808.333333333 1733 796.666666667 1713 784 c 0
 1693 772 1673 760.666666667 1653 750 c 0
 1691 730.666666667 1716.33333333 706.666666667 1729 678 c 0
 1748.33333333 648 1757.66666667 616 1757 582 c 0
 1757 575.333333333 1755.66666667 558.666666667 1753 532 c 0
 1696 238 l 0
EndSplineSet
EndChar

StartChar: four
Encoding: 23 52 23
Width: 1622
VWidth: 1024
Flags: HW
LayerCount: 2
Fore
SplineSet
1714 326 m 0
 1511 326 l 0
 1444 0 l 0
 1167 0 l 0
 1235 326 l 0
 860 326 l 0
 797.333333333 326 745.666666667 343.666666667 705 379 c 0
 673.666666667 405 657.666666667 437 657 475 c 0
 657 490.333333333 657.666666667 501.333333333 659 508 c 0
 674.333333333 564 704 628 748 700 c 0
 1145 1391 l 0
 1425 1391 l 0
 999 678 l 0
 967.666666667 620.666666667 950.666666667 581.666666667 948 561 c 0
 944 553 l 0
 1290 553 l 0
 1470 1393 l 0
 1747 1393 l 0
 1567 553 l 0
 1769 553 l 0
 1714 326 l 0
EndSplineSet
EndChar

StartChar: five
Encoding: 24 53 24
Width: 1622
VWidth: 1024
Flags: HW
LayerCount: 2
Fore
SplineSet
1696 238 m 0
 1680.66666667 171.333333333 1644.33333333 116 1587 72 c 0
 1529.66666667 24 1469 0 1405 0 c 0
 801 0 l 0
 738.333333333 0 689.666666667 19.6666666667 655 59 c 0
 629 87.6666666667 616 120.666666667 616 158 c 0
 616 174.666666667 616.666666667 187.666666667 618 197 c 0
 670 442 l 0
 946 442 l 0
 909 283 l 0
 909 262.333333333 912 250.666666667 918 248 c 0
 938.666666667 237.333333333 954.333333333 231.666666667 965 231 c 0
 1374 231 l 0
 1383.33333333 231 1393.66666667 237.666666667 1405 251 c 0
 1415.66666667 263.666666667 1424 283 1430 309 c 0
 1495 614 l 0
 1497.66666667 634.666666667 1472.33333333 645 1419 645 c 0
 707 645 l 0
 866 1393 l 0
 1907 1393 l 0
 1860 1161 l 0
 1098 1161 l 0
 1038 881 l 0
 1544 881 l 0
 1626 881 1687.66666667 857 1729 809 c 0
 1763 775 1780 732.666666667 1780 682 c 0
 1780 672.666666667 1778.66666667 657 1776 635 c 0
 1696 238 l 0
EndSplineSet
EndChar

StartChar: six
Encoding: 25 54 25
Width: 1622
VWidth: 1024
Flags: HW
LayerCount: 2
Fore
SplineSet
1436 319 m 0
 1493 588 l 0
 1498.33333333 604.666666667 1492.66666667 620 1476 634 c 0
 1458.66666667 648.666666667 1433 655.666666667 1399 655 c 0
 1022 655 l 0
 956 342 l 0
 949.333333333 313.333333333 956.333333333 290.666666667 977 274 c 0
 997.666666667 252 1021 241.333333333 1047 242 c 0
 1309 242 l 0
 1339 242 1364.66666667 250 1386 266 c 0
 1412.66666667 280.666666667 1429.33333333 298.333333333 1436 319 c 0
1702 266 m 0
 1682.66666667 189.333333333 1641.66666667 128 1579 82 c 0
 1545 60 1508.66666667 41.6666666667 1470 27 c 0
 1432 11.6666666667 1395.33333333 4 1360 4 c 0
 920 6 l 0
 838 6 772.666666667 26.6666666667 724 68 c 0
 675.333333333 108.666666667 651 153 651 201 c 0
 651 207.666666667 652.333333333 220.666666667 655 240 c 0
 846 1153 l 0
 866.666666667 1222.33333333 911 1281 979 1329 c 0
 1051.66666667 1374.33333333 1129.33333333 1397 1212 1397 c 0
 1882 1397 l 0
 1835 1165 l 0
 1214 1165 l 0
 1184 1165 1161.33333333 1159 1146 1147 c 0
 1130 1135 1119.33333333 1118.66666667 1114 1098 c 0
 1071 887 l 0
 1518 887 l 0
 1609.33333333 887 1678.66666667 862.333333333 1726 813 c 0
 1764 775 1783.33333333 729.333333333 1784 676 c 0
 1784 654 1782.66666667 637 1780 625 c 0
 1702 266 l 0
EndSplineSet
EndChar

StartChar: seven
Encoding: 26 55 26
Width: 1622
VWidth: 1024
Flags: HW
LayerCount: 2
Fore
SplineSet
1882 1133 m 0
 1122 0 l 0
 842 0 l 0
 1610 1143 l 0
 1608.66666667 1152.33333333 1606.66666667 1158.33333333 1604 1161 c 0
 1601.33333333 1163.66666667 1592.33333333 1165 1577 1165 c 0
 1118 1165 l 0
 1090 1032 l 0
 813 1032 l 0
 889 1399 l 0
 1673 1399 l 0
 1749.66666667 1399 1807 1373.66666667 1845 1323 c 0
 1873.66666667 1289 1888 1246.66666667 1888 1196 c 0
 1888 1184 1886 1163 1882 1133 c 0
EndSplineSet
EndChar

StartChar: eight
Encoding: 27 56 27
Width: 1622
VWidth: 1024
Flags: HW
LayerCount: 2
Fore
SplineSet
1434 311 m 0
 1438 334 l 0
 1444.66666667 379.333333333 1431 412.666666667 1397 434 c 0
 1266 551 l 0
 1051 434 l 0
 1013 409.333333333 993 389 991 373 c 0
 975 293 l 0
 973.666666667 276.333333333 979.333333333 262 992 250 c 0
 1004.66666667 238 1025 231.666666667 1053 231 c 0
 1319 231 l 0
 1345 231 1368.33333333 238 1389 252 c 0
 1409.66666667 265.333333333 1424.66666667 285 1434 311 c 0
1602 1108 m 0
 1607.33333333 1124.66666667 1606.33333333 1139 1599 1151 c 0
 1589.66666667 1157.66666667 1579.66666667 1161 1569 1161 c 0
 1225 1161 l 0
 1167 1157 l 0
 1157 1149 l 0
 1154.33333333 1123 1153 1107.33333333 1153 1102 c 0
 1153 1086.66666667 1155.66666667 1076.33333333 1161 1071 c 0
 1337 905 l 0
 1556 1044 l 0
 1581.33333333 1055.33333333 1596.66666667 1076.66666667 1602 1108 c 0
1688 201 m 0
 1677.33333333 150.333333333 1640.33333333 103 1577 59 c 0
 1513 21 1446.66666667 2 1378 2 c 0
 940 4 l 0
 862 4 795.666666667 23 741 61 c 0
 701.666666667 92.3333333333 682 128.666666667 682 170 c 0
 682 176.666666667 683.333333333 189.666666667 686 209 c 0
 737 453 l 0
 742.333333333 484.333333333 780 525 850 575 c 0
 1118 737 l 0
 950 891 l 0
 918.666666667 929 896 961.666666667 882 989 c 0
 867.333333333 1016.33333333 861.333333333 1040.33333333 864 1061 c 0
 895 1206 l 0
 905.666666667 1260.66666667 941.333333333 1304 1002 1336 c 0
 1062.66666667 1368 1132.66666667 1384 1212 1384 c 0
 1671 1384 l 0
 1747.66666667 1384 1805.66666667 1368.33333333 1845 1337 c 0
 1883 1311 1902.33333333 1277.66666667 1903 1237 c 0
 1903 1225 1902.33333333 1216 1901 1210 c 0
 1858 1008 l 0
 1848.66666667 958.666666667 1807 913.333333333 1733 872 c 0
 1460 713 l 0
 1604 623 l 0
 1700.66666667 537 1743.66666667 468.666666667 1733 418 c 0
 1688 201 l 0
EndSplineSet
EndChar

StartChar: nine
Encoding: 28 57 28
Width: 1622
VWidth: 1024
Flags: HW
LayerCount: 2
Fore
SplineSet
1518 748 m 0
 1591 1096 l 0
 1596.33333333 1115.33333333 1591.33333333 1131.33333333 1576 1144 c 0
 1560 1156.66666667 1535 1163 1501 1163 c 0
 1219 1163 l 0
 1185 1163 1159.33333333 1157.66666667 1142 1147 c 0
 1124.66666667 1136.33333333 1113.33333333 1120 1108 1098 c 0
 1051 827 l 0
 1048.33333333 806.333333333 1056.33333333 791.333333333 1075 782 c 0
 1091.66666667 761.333333333 1115.66666667 751.333333333 1147 752 c 0
 1518 748 l 0
1706 283 m 0
 1689.33333333 206.333333333 1641.66666667 140 1563 84 c 0
 1483.66666667 28 1397.66666667 0 1305 0 c 0
 666 0 l 0
 713 231 l 0
 1260 231 l 0
 1305.33333333 231 1344.66666667 240.333333333 1378 259 c 0
 1412 277.666666667 1430.66666667 297 1434 317 c 0
 1473 512 l 0
 1024 512 l 0
 940.666666667 512 873.666666667 536 823 584 c 0
 779 622 757.333333333 665.666666667 758 715 c 0
 758 720.333333333 759.333333333 732.666666667 762 752 c 0
 850 1171 l 0
 859.333333333 1210.33333333 883.333333333 1249.33333333 922 1288 c 0
 957.333333333 1319.33333333 1002 1344 1056 1362 c 0
 1110 1380 1168.33333333 1389 1231 1389 c 0
 1620 1389 l 0
 1674.66666667 1389 1724.33333333 1378 1769 1356 c 0
 1814.33333333 1330 1844.66666667 1299.33333333 1860 1264 c 0
 1875.33333333 1238 1882.66666667 1209.33333333 1882 1178 c 0
 1882 1171.33333333 1880.66666667 1157 1878 1135 c 0
 1706 283 l 0
EndSplineSet
EndChar

StartChar: colon
Encoding: 29 58 29
Width: 665
VWidth: 1024
Flags: HW
LayerCount: 2
Fore
SplineSet
543 868 m 0
 543 844 538.333333333 821.666666667 529 801 c 0
 520.333333333 779.666666667 508.333333333 761 493 745 c 0
 477 729 458.333333333 716.666666667 437 708 c 0
 415.666666667 698.666666667 393 694 369 694 c 0
 345 694 322.333333333 698.666666667 301 708 c 0
 279.666666667 717.333333333 260.666666667 729.666666667 244 745 c 0
 228 761 215.333333333 779.666666667 206 801 c 0
 196.666666667 822.333333333 192.333333333 844.666666667 193 868 c 0
 193 892 197.333333333 914.666666667 206 936 c 0
 215.333333333 957.333333333 228 976.333333333 244 993 c 0
 260 1009 279 1021.66666667 301 1031 c 0
 322.333333333 1040.33333333 345 1044.66666667 369 1044 c 0
 393.666666667 1044 416.333333333 1039.66666667 437 1031 c 0
 458.333333333 1021.66666667 477 1009 493 993 c 0
 509 977 521 958 529 936 c 0
 538.333333333 914.666666667 543 892 543 868 c 0
400 148 m 0
 400 124 395.666666667 101.666666667 387 81 c 0
 377.666666667 59.6666666667 365 41.3333333333 349 26 c 0
 333 10 314.666666667 -2.66666666667 294 -12 c 0
 272.666666667 -21.3333333333 250 -26 226 -26 c 0
 202 -26 179.333333333 -21.3333333333 158 -12 c 0
 136.666666667 -2.66666666667 118 10 102 26 c 0
 86 42 73.3333333333 60.3333333333 64 81 c 0
 54.6666666667 102.333333333 50 124.666666667 50 148 c 0
 50 172.666666667 54.6666666667 195.666666667 64 217 c 0
 73.3333333333 238.333333333 86 257 102 273 c 0
 118 289 136.666666667 301.666666667 158 311 c 0
 179.333333333 320.333333333 202 325 226 325 c 0
 250 325 272.666666667 320.333333333 294 311 c 0
 315.333333333 301.666666667 333.666666667 289 349 273 c 0
 365 257 377.666666667 238.333333333 387 217 c 0
 395.666666667 195.666666667 400 172.666666667 400 148 c 0
EndSplineSet
EndChar

StartChar: semicolon
Encoding: 30 59 30
Width: 665
VWidth: 1024
Flags: HW
LayerCount: 2
Fore
SplineSet
543 868 m 0
 543 844 538.333333333 821.666666667 529 801 c 0
 520.333333333 779.666666667 508.333333333 761 493 745 c 0
 477 729 458.333333333 716.666666667 437 708 c 0
 415.666666667 698.666666667 393 694 369 694 c 0
 345 694 322.333333333 698.666666667 301 708 c 0
 279.666666667 717.333333333 260.666666667 729.666666667 244 745 c 0
 228 761 215.333333333 779.666666667 206 801 c 0
 196.666666667 822.333333333 192.333333333 844.666666667 193 868 c 0
 193 892 197.333333333 914.666666667 206 936 c 0
 215.333333333 957.333333333 228 976.333333333 244 993 c 0
 260 1009 279 1021.66666667 301 1031 c 0
 322.333333333 1040.33333333 345 1044.66666667 369 1044 c 0
 393.666666667 1044 416.333333333 1039.66666667 437 1031 c 0
 458.333333333 1021.66666667 477 1009 493 993 c 0
 509 977 521 958 529 936 c 0
 538.333333333 914.666666667 543 892 543 868 c 0
420 176 m 0
 420 135.333333333 412.333333333 94 397 52 c 0
 381.666666667 10.6666666667 360.666666667 -30 334 -70 c 0
 307.333333333 -109.333333333 276.333333333 -146.666666667 241 -182 c 0
 205.666666667 -217.333333333 168.333333333 -248 129 -274 c 0
 89.6666666667 -300.666666667 49 -322.333333333 7 -339 c 0
 -35 -355.666666667 -76 -365.666666667 -116 -369 c 0
 -96 -266 l 0
 -57.3333333333 -260.666666667 -20.6666666667 -250.666666667 14 -236 c 0
 48.6666666667 -220.666666667 79.3333333333 -201.333333333 106 -178 c 0
 133.333333333 -154.666666667 156.333333333 -126.666666667 175 -94 c 0
 193.666666667 -62 206 -26 212 14 c 0
 84 14 l 0
 70.6666666667 26.6666666667 60.3333333333 41.6666666667 53 59 c 0
 45.6666666667 76.3333333333 42 94.6666666667 42 114 c 0
 42 142 48 168.666666667 60 194 c 0
 72 219.333333333 88 242 108 262 c 0
 128 281.333333333 150.666666667 296.666666667 176 308 c 0
 202 319.333333333 229.333333333 325 258 325 c 0
 305.333333333 325 344 312.666666667 374 288 c 0
 404.666666667 264 420 226.666666667 420 176 c 0
EndSplineSet
EndChar

StartChar: less
Encoding: 31 60 31
Width: 2097
VWidth: 1024
Flags: HW
LayerCount: 2
Fore
SplineSet
420 564 m 0
 420 694 l 0
 1677 1177 l 0
 1677 1047 l 0
 554 629 l 0
 1677 212 l 0
 1677 82 l 0
 420 564 l 0
EndSplineSet
EndChar

StartChar: equal
Encoding: 32 61 32
Width: 2097
VWidth: 1024
Flags: HW
LayerCount: 2
Fore
SplineSet
420 755 m 0
 420 885 l 0
 1677 885 l 0
 1677 755 l 0
 420 755 l 0
420 374 m 0
 420 504 l 0
 1677 504 l 0
 1677 374 l 0
 420 374 l 0
EndSplineSet
EndChar

StartChar: greater
Encoding: 33 62 33
Width: 2097
VWidth: 1024
Flags: HW
LayerCount: 2
Fore
SplineSet
420 82 m 0
 420 212 l 0
 1543 629 l 0
 420 1047 l 0
 420 1177 l 0
 1677 694 l 0
 1677 564 l 0
 420 82 l 0
EndSplineSet
EndChar

StartChar: question
Encoding: 34 63 34
Width: 1122
VWidth: 1024
Flags: HW
LayerCount: 2
Fore
SplineSet
1076 1120 m 0
 1076 1072 1068.33333333 1027.33333333 1053 986 c 0
 1037.66666667 944 1016.66666667 904.666666667 990 868 c 0
 963.333333333 832 931.666666667 799 895 769 c 0
 859 739 820.666666667 712.333333333 780 689 c 0
 739.333333333 665.666666667 697 646 653 630 c 0
 609 614 566 602 524 594 c 0
 488 416 l 0
 346 416 l 0
 400 694 l 0
 449.333333333 704 497 722 543 748 c 0
 589 773.333333333 630 804.333333333 666 841 c 0
 701.333333333 877.666666667 729.666666667 919 751 965 c 0
 772.333333333 1011 782.666666667 1060.33333333 782 1113 c 0
 782 1148.33333333 776 1178.66666667 764 1204 c 0
 752 1229.33333333 736 1250 716 1266 c 0
 695.333333333 1282 671.333333333 1294 644 1302 c 0
 616.666666667 1309.33333333 586.666666667 1313 554 1313 c 0
 430 1072 l 0
 428.666666667 1070.66666667 425.666666667 1069.33333333 421 1068 c 0
 416.333333333 1066 411.333333333 1064 406 1062 c 0
 400.666666667 1060 396 1058.66666667 392 1058 c 0
 387.333333333 1056.66666667 384.666666667 1056.33333333 384 1057 c 0
 366 1057 347.666666667 1058 329 1060 c 0
 310.333333333 1062.66666667 293.333333333 1067.66666667 278 1075 c 0
 262.666666667 1082.33333333 250 1093 240 1107 c 0
 230 1120.33333333 224.666666667 1138 224 1160 c 0
 224 1194 231.333333333 1224.66666667 246 1252 c 0
 260.666666667 1278.66666667 279.666666667 1302.66666667 303 1324 c 0
 327 1344.66666667 354.666666667 1362.33333333 386 1377 c 0
 417.333333333 1392.33333333 449 1404.66666667 481 1414 c 0
 513.666666667 1423.33333333 546.333333333 1430 579 1434 c 0
 611.666666667 1438.66666667 641.666666667 1441 669 1441 c 0
 719.666666667 1441 769.333333333 1435 818 1423 c 0
 866.666666667 1411 910 1392 948 1366 c 0
 986 1340 1017 1307 1041 1267 c 0
 1064.33333333 1226.33333333 1076 1177.33333333 1076 1120 c 0
545 136 m 0
 545 112.666666667 540.333333333 91.3333333333 531 72 c 0
 521.666666667 52 509.333333333 34.6666666667 494 20 c 0
 478 5.33333333333 459.666666667 -5.66666666667 439 -13 c 0
 418.333333333 -21 396.666666667 -25.3333333333 374 -26 c 0
 350.666666667 -26 329.333333333 -21.3333333333 310 -12 c 0
 290.666666667 -2.66666666667 273.666666667 10 259 26 c 0
 244.333333333 42 233.333333333 60 226 80 c 0
 218 100.666666667 214 122 214 144 c 0
 214 167.333333333 218 189 226 209 c 0
 234 229 245.333333333 247 260 263 c 0
 274.666666667 278.333333333 291.666666667 290.333333333 311 299 c 0
 331 307.666666667 352.666666667 312 376 312 c 0
 400.666666667 312 423.333333333 307.333333333 444 298 c 0
 464.666666667 288.666666667 482.333333333 276 497 260 c 0
 511.666666667 244 523.333333333 225 532 203 c 0
 540.666666667 181.666666667 545 159.333333333 545 136 c 0
EndSplineSet
EndChar

StartChar: at
Encoding: 35 64 35
Width: 1961
VWidth: 1024
Flags: HW
LayerCount: 2
Fore
SplineSet
1195 814 m 0
 1197 822 1196.33333333 832.333333333 1193 845 c 0
 1189.66666667 857.666666667 1184.66666667 870 1178 882 c 0
 1170.66666667 893.333333333 1160.33333333 903.333333333 1147 912 c 0
 1134.33333333 920.666666667 1119 925 1101 925 c 0
 1059 925 1019.33333333 913.666666667 982 891 c 0
 944.666666667 868.333333333 912 837 884 797 c 0
 856 757 833.666666667 709.333333333 817 654 c 0
 800.333333333 598.666666667 792.333333333 538.666666667 793 474 c 0
 793 434.666666667 796.666666667 401 804 373 c 0
 812 345.666666667 822.666666667 323.333333333 836 306 c 0
 848.666666667 288.666666667 863 276 879 268 c 0
 895 260 911 256 927 256 c 0
 949.666666667 256 970 260.333333333 988 269 c 0
 1006 277.666666667 1022.33333333 288.333333333 1037 301 c 0
 1051.66666667 313.666666667 1065 327.666666667 1077 343 c 0
 1089 358.333333333 1100.33333333 372 1111 384 c 0
 1195 814 l 0
1841 772 m 0
 1841 702.666666667 1833.33333333 638 1818 578 c 0
 1802.66666667 518 1782 463.333333333 1756 414 c 0
 1730 364.666666667 1699 320.666666667 1663 282 c 0
 1627.66666667 243.333333333 1590 211 1550 185 c 0
 1510 159 1468.66666667 139 1426 125 c 0
 1383.33333333 111.666666667 1341.33333333 104.666666667 1300 104 c 0
 1268 104 1241.33333333 108.333333333 1220 117 c 0
 1198.66666667 125 1181 135.666666667 1167 149 c 0
 1153 162.333333333 1142.33333333 178 1135 196 c 0
 1127.66666667 214 1122.66666667 232.666666667 1120 252 c 0
 1098 233.333333333 1076 215.333333333 1054 198 c 0
 1031.33333333 180.666666667 1008 165.333333333 984 152 c 0
 960 138.666666667 935.333333333 127.666666667 910 119 c 0
 884.666666667 111 859 106.666666667 833 106 c 0
 785 106 743 115 707 133 c 0
 671 150.333333333 640.333333333 174.333333333 615 205 c 0
 590.333333333 236.333333333 572 273 560 315 c 0
 547.333333333 357 541 403.666666667 541 455 c 0
 541 533.666666667 555.333333333 607.333333333 584 676 c 0
 613.333333333 745.333333333 652.666666667 806.333333333 702 859 c 0
 752 911 810.666666667 952.333333333 878 983 c 0
 945.333333333 1013.66666667 1017 1028.66666667 1093 1028 c 0
 1109.66666667 1028 1126 1026 1142 1022 c 0
 1158.66666667 1018 1175.33333333 1012.66666667 1192 1006 c 0
 1208.66666667 999.333333333 1224.66666667 992.333333333 1240 985 c 0
 1255.33333333 977.666666667 1269.66666667 971 1283 965 c 0
 1311 1017 l 0
 1487 1017 l 0
 1477 978 l 0
 1472.33333333 957.333333333 1466.33333333 932 1459 902 c 0
 1451.66666667 872 1443.66666667 838.666666667 1435 802 c 0
 1426.33333333 765.333333333 1417.66666667 728 1409 690 c 0
 1388.33333333 602 1365.33333333 503.333333333 1340 394 c 0
 1334.66666667 370.666666667 1330.66666667 349.666666667 1328 331 c 0
 1325.33333333 311.666666667 1325.33333333 295.333333333 1328 282 c 0
 1330.66666667 268.666666667 1336.66666667 258 1346 250 c 0
 1355.33333333 242.666666667 1369.66666667 239 1389 239 c 0
 1402.33333333 239 1419 244 1439 254 c 0
 1459 264.666666667 1480 280.333333333 1502 301 c 0
 1523.33333333 321.666666667 1544.66666667 347 1566 377 c 0
 1587.33333333 407.666666667 1606.33333333 442.666666667 1623 482 c 0
 1639.66666667 521.333333333 1653 565 1663 613 c 0
 1673.66666667 661 1679 713.333333333 1679 770 c 0
 1679 836 1671.33333333 896 1656 950 c 0
 1640 1003.33333333 1618.66666667 1051 1592 1093 c 0
 1565.33333333 1134.33333333 1534 1170.33333333 1498 1201 c 0
 1461.33333333 1231.66666667 1422.33333333 1256.66666667 1381 1276 c 0
 1340.33333333 1296 1297.66666667 1310.66666667 1253 1320 c 0
 1208.33333333 1329.33333333 1164.66666667 1334 1122 1334 c 0
 1048 1334 977.666666667 1325 911 1307 c 0
 843.666666667 1289 780.666666667 1263.33333333 722 1230 c 0
 663.333333333 1196.66666667 610.333333333 1156.33333333 563 1109 c 0
 515 1061 474 1007.33333333 440 948 c 0
 406 888 379.666666667 823 361 753 c 0
 342.333333333 683 333.333333333 608.666666667 334 530 c 0
 334 422 350.666666667 323 384 233 c 0
 417.333333333 142.333333333 464.666666667 64 526 -2 c 0
 587.333333333 -68 661.666666667 -119.666666667 749 -157 c 0
 835.666666667 -193.666666667 932 -212 1038 -212 c 0
 1093.33333333 -212 1146 -207.333333333 1196 -198 c 0
 1246 -188.666666667 1294 -176.333333333 1340 -161 c 0
 1386.66666667 -145 1432.33333333 -126.333333333 1477 -105 c 0
 1521.66666667 -83.6666666667 1566.33333333 -60.6666666667 1611 -36 c 0
 1655 -140 l 0
 1607.66666667 -164.666666667 1558.66666667 -188.333333333 1508 -211 c 0
 1457.33333333 -233.666666667 1405 -254 1351 -272 c 0
 1296.33333333 -289.333333333 1238.66666667 -303.333333333 1178 -314 c 0
 1117.33333333 -324.666666667 1054 -330 988 -330 c 0
 906 -330 828 -321.333333333 754 -304 c 0
 679.333333333 -286.666666667 610 -261 546 -227 c 0
 482 -193.666666667 423.666666667 -153 371 -105 c 0
 319 -57 274.666666667 -2.66666666667 238 58 c 0
 201.333333333 119.333333333 172.666666667 186.333333333 152 259 c 0
 132 331.666666667 122 409.666666667 122 493 c 0
 122 595 134.333333333 689 159 775 c 0
 183.666666667 861.666666667 218 940.333333333 262 1011 c 0
 306 1081 358.333333333 1143 419 1197 c 0
 479.666666667 1250.33333333 546 1295 618 1331 c 0
 690 1367 766.333333333 1394.33333333 847 1413 c 0
 927.666666667 1431.66666667 1010.33333333 1441 1095 1441 c 0
 1208.33333333 1441 1311 1426 1403 1396 c 0
 1495 1366 1573.33333333 1322.33333333 1638 1265 c 0
 1702.66666667 1207.66666667 1752.66666667 1137.66666667 1788 1055 c 0
 1823.33333333 972.333333333 1841 878 1841 772 c 0
EndSplineSet
EndChar

StartChar: A
Encoding: 36 65 36
Width: 1499
VWidth: 1024
Flags: HW
LayerCount: 2
Fore
SplineSet
820 0 m 0
 820 104 l 0
 830.666666667 105.333333333 842 106.666666667 854 108 c 0
 865.333333333 109.333333333 875.666666667 110.666666667 885 112 c 0
 895.666666667 113.333333333 906 114.666666667 916 116 c 0
 929.333333333 117.333333333 940 119.666666667 948 123 c 0
 955.333333333 126.333333333 958 134 956 146 c 0
 895 530 l 0
 499 530 l 0
 292 146 l 0
 285.333333333 136 284.666666667 128.666666667 290 124 c 0
 295.333333333 119.333333333 304.666666667 116.666666667 318 116 c 0
 328.666666667 114.666666667 340.333333333 113.333333333 353 112 c 0
 363 110.666666667 374.666666667 109.333333333 388 108 c 0
 400.666666667 106.666666667 414 105.333333333 428 104 c 0
 428 0 l 0
 -112 0 l 0
 -112 104 l 0
 10 118 l 0
 786 1441 l 0
 1034 1441 l 0
 1263 148 l 0
 1265 134.666666667 1268.33333333 126 1273 122 c 0
 1278.33333333 118 1289 115.333333333 1305 114 c 0
 1314.33333333 113.333333333 1324.33333333 112.333333333 1335 111 c 0
 1344.33333333 109.666666667 1355 108.666666667 1367 108 c 0
 1378.33333333 107.333333333 1389.66666667 106 1401 104 c 0
 1401 0 l 0
 820 0 l 0
803 1057 m 0
 568 650 l 0
 872 650 l 0
 803 1057 l 0
EndSplineSet
EndChar

StartChar: B
Encoding: 37 66 37
Width: 1359
VWidth: 1024
Flags: HW
LayerCount: 2
Fore
SplineSet
971 1118 m 0
 971 1151.33333333 964.333333333 1179.66666667 951 1203 c 0
 937.666666667 1225.66666667 920 1243.66666667 898 1257 c 0
 876 1270.33333333 850.333333333 1280.33333333 821 1287 c 0
 791.666666667 1293 761.333333333 1296 730 1296 c 0
 718.666666667 1296 707.333333333 1295.66666667 696 1295 c 0
 684.666666667 1294.33333333 674.333333333 1294 665 1294 c 0
 566 786 l 0
 577.333333333 784.666666667 588 784 598 784 c 0
 618 784 l 0
 670 784 717.666666667 792.333333333 761 809 c 0
 804.333333333 825.666666667 841.666666667 849 873 879 c 0
 904.333333333 909 928.333333333 944.333333333 945 985 c 0
 962.333333333 1025 971 1069.33333333 971 1118 c 0
933 453 m 0
 933 496.333333333 925.333333333 531.666666667 910 559 c 0
 894.666666667 587 874.333333333 609.333333333 849 626 c 0
 823.666666667 642.666666667 794.333333333 654.333333333 761 661 c 0
 727.666666667 667.666666667 692.666666667 671 656 671 c 0
 618.666666667 671 580.333333333 669 541 665 c 0
 434 118 l 0
 449.333333333 116.666666667 464.333333333 116 479 116 c 0
 518 116 l 0
 580 116 636.666666667 123 688 137 c 0
 738.666666667 151 782 172 818 200 c 0
 854 228 882.333333333 263.333333333 903 306 c 0
 923 348 933 397 933 453 c 0
1292 1133 m 0
 1292 1081.66666667 1283.66666667 1036 1267 996 c 0
 1249.66666667 956.666666667 1226.33333333 921.666666667 1197 891 c 0
 1167 860.333333333 1132 833.333333333 1092 810 c 0
 1052 787.333333333 1008.33333333 767.666666667 961 751 c 0
 1007 743 1047.66666667 731.666666667 1083 717 c 0
 1119 702.333333333 1149.33333333 684 1174 662 c 0
 1198.66666667 640 1217.66666667 613.666666667 1231 583 c 0
 1243.66666667 552.333333333 1250 516 1250 474 c 0
 1250 390.666666667 1234.33333333 319 1203 259 c 0
 1171.66666667 199 1127.33333333 150 1070 112 c 0
 1012 74 942.333333333 45.6666666667 861 27 c 0
 779.666666667 9 688.333333333 0 587 0 c 0
 -32 0 l 0
 -32 104 l 0
 -14.6666666667 105.333333333 1.66666666667 107 17 109 c 0
 33 110.333333333 47 111.666666667 59 113 c 0
 73.6666666667 114.333333333 87.3333333333 115.333333333 100 116 c 0
 111.333333333 116 120.333333333 117.666666667 127 121 c 0
 133.666666667 125 138 134 140 148 c 0
 358 1261 l 0
 360 1272.33333333 358.333333333 1280 353 1284 c 0
 347 1288 337.666666667 1290.66666667 325 1292 c 0
 313 1292.66666667 300 1293.66666667 286 1295 c 0
 274.666666667 1296.33333333 261.333333333 1297.66666667 246 1299 c 0
 223 1301 223 1301 200 1303 c 0
 200 1407 l 0
 833 1407 l 0
 921.666666667 1407 995.333333333 1399.66666667 1054 1385 c 0
 1113.33333333 1370.33333333 1160.66666667 1351 1196 1327 c 0
 1231.33333333 1302.33333333 1256.33333333 1273.33333333 1271 1240 c 0
 1285 1206.66666667 1292 1171 1292 1133 c 0
EndSplineSet
EndChar

StartChar: C
Encoding: 38 67 38
Width: 1409
VWidth: 1024
Flags: HW
LayerCount: 2
Fore
SplineSet
1375 984 m 0
 1221 984 l 0
 1223 1219 l 0
 1224.33333333 1227 1222 1236 1216 1246 c 0
 1210 1256 1201.66666667 1263 1191 1267 c 0
 1185.66666667 1269.66666667 1175.33333333 1273.66666667 1160 1279 c 0
 1144.66666667 1284.33333333 1128 1289.33333333 1110 1294 c 0
 1091.33333333 1298.66666667 1072 1303 1052 1307 c 0
 1032 1311 1014 1313 998 1313 c 0
 953.333333333 1313 908 1305 862 1289 c 0
 815.333333333 1273 770.666666667 1250 728 1220 c 0
 684.666666667 1189.33333333 643.666666667 1152 605 1108 c 0
 566.333333333 1063.33333333 532.666666667 1012.33333333 504 955 c 0
 475.333333333 897.666666667 452.666666667 834.333333333 436 765 c 0
 419.333333333 695.666666667 411 620.333333333 411 539 c 0
 411 459 422.333333333 391 445 335 c 0
 468.333333333 279 498.666666667 233 536 197 c 0
 573.333333333 161 614.666666667 135 660 119 c 0
 706 102.333333333 751.666666667 94 797 94 c 0
 812.333333333 94 828.666666667 95 846 97 c 0
 864 99 881 101.666666667 897 105 c 0
 913.666666667 108.333333333 928.666666667 112 942 116 c 0
 955.333333333 119.333333333 965 122.666666667 971 126 c 0
 981.666666667 127.333333333 989.666666667 131.333333333 995 138 c 0
 1000.33333333 144.666666667 1005 152 1009 160 c 0
 1109 436 l 0
 1267 436 l 0
 1202 56 l 0
 1175.33333333 46.6666666667 1145 36.6666666667 1111 26 c 0
 1076.33333333 15.3333333333 1038.66666667 5.66666666667 998 -3 c 0
 958 -11.6666666667 915.333333333 -19 870 -25 c 0
 824.666666667 -31 777.333333333 -34 728 -34 c 0
 649.333333333 -34 579.333333333 -26 518 -10 c 0
 456 6 401.666666667 28.3333333333 355 57 c 0
 308.333333333 85 269 118.333333333 237 157 c 0
 204.333333333 195 178 236.333333333 158 281 c 0
 138 325.666666667 123.333333333 371.666666667 114 419 c 0
 104.666666667 467 100 514.666666667 100 562 c 0
 100 634 109 705.666666667 127 777 c 0
 145 849 171.666666667 917.333333333 207 982 c 0
 241.666666667 1046.66666667 284.666666667 1107 336 1163 c 0
 387.333333333 1219 445.666666667 1267.66666667 511 1309 c 0
 576.333333333 1350.33333333 649 1382.66666667 729 1406 c 0
 809 1429.33333333 895.333333333 1441 988 1441 c 0
 1028 1441 1066.33333333 1438.66666667 1103 1434 c 0
 1139.66666667 1429.33333333 1176 1423.33333333 1212 1416 c 0
 1248 1408.66666667 1284.66666667 1399.66666667 1322 1389 c 0
 1359.33333333 1378.33333333 1399 1366.33333333 1441 1353 c 0
 1375 984 l 0
EndSplineSet
EndChar

StartChar: D
Encoding: 39 68 39
Width: 1495
VWidth: 1024
Flags: HW
LayerCount: 2
Fore
SplineSet
1457 868 m 0
 1457 743.333333333 1435.33333333 628 1392 522 c 0
 1348 416 1285 324.333333333 1203 247 c 0
 1121 169.666666667 1021.33333333 109.333333333 904 66 c 0
 786 22 653.333333333 0 506 0 c 0
 -32 0 l 0
 -32 104 l 0
 -16 105.333333333 -0.666666666667 107 14 109 c 0
 29.3333333333 110.333333333 42.6666666667 111.333333333 54 112 c 0
 74 113 74 113 94 114 c 0
 111.333333333 115.333333333 122.333333333 117.666666667 127 121 c 0
 132.333333333 125 136.666666667 134 140 148 c 0
 358 1261 l 0
 360 1273 357.666666667 1281 351 1285 c 0
 343.666666667 1289 333.666666667 1291.33333333 321 1292 c 0
 308.333333333 1292.66666667 295.333333333 1293.66666667 282 1295 c 0
 270.666666667 1296.33333333 257.666666667 1297.66666667 243 1299 c 0
 228.333333333 1300.33333333 214 1301.66666667 200 1303 c 0
 200 1407 l 0
 744 1407 l 0
 852.666666667 1407 951 1397 1039 1377 c 0
 1127 1357 1202 1325.66666667 1264 1283 c 0
 1326 1239.66666667 1373.66666667 1183.66666667 1407 1115 c 0
 1440.33333333 1046.33333333 1457 964 1457 868 c 0
1143 887 m 0
 1143 944.333333333 1136.66666667 993.666666667 1124 1035 c 0
 1112 1076.33333333 1095.33333333 1111.66666667 1074 1141 c 0
 1052.66666667 1170.33333333 1027.66666667 1193.66666667 999 1211 c 0
 969.666666667 1229 938.333333333 1243 905 1253 c 0
 871.666666667 1263 837 1269.66666667 801 1273 c 0
 765 1277 728.666666667 1279.66666667 692 1281 c 0
 663 1281 l 0
 436 130 l 0
 543 130 l 0
 604.333333333 130.666666667 661.666666667 140.666666667 715 160 c 0
 768.333333333 179.333333333 817.333333333 205.666666667 862 239 c 0
 906.666666667 273 946.333333333 313.333333333 981 360 c 0
 1015.66666667 406.666666667 1045 458 1069 514 c 0
 1093 569.333333333 1111.33333333 628.666666667 1124 692 c 0
 1136.66666667 755.333333333 1143 820.333333333 1143 887 c 0
EndSplineSet
EndChar

StartChar: E
Encoding: 40 69 40
Width: 1257
VWidth: 1024
Flags: HW
LayerCount: 2
Fore
SplineSet
1239 1076 m 0
 1072 1076 l 0
 1072 1254 l 0
 1072 1264 1066.66666667 1271 1056 1275 c 0
 1045.33333333 1279 1034.33333333 1281 1023 1281 c 0
 663 1281 l 0
 568 795 l 0
 805 795 l 0
 815.666666667 795 827.333333333 797.333333333 840 802 c 0
 852.666666667 807.333333333 860.666666667 815.333333333 864 826 c 0
 908 973 l 0
 1061 973 l 0
 965 480 l 0
 810 480 l 0
 830 638 l 0
 830.666666667 642 829.666666667 645.666666667 827 649 c 0
 824.333333333 652.333333333 820.666666667 655.333333333 816 658 c 0
 811.333333333 660.666666667 806 663 800 665 c 0
 794 666.333333333 788.666666667 667 784 667 c 0
 543 667 l 0
 438 126 l 0
 885 126 l 0
 895.666666667 126 907.333333333 128.666666667 920 134 c 0
 932.666666667 139.333333333 940.666666667 146.666666667 944 156 c 0
 1011 365 l 0
 1177 365 l 0
 1103 0 l 0
 -32 0 l 0
 -32 104 l 0
 -16 105.333333333 -0.333333333333 107 15 109 c 0
 30.3333333333 110.333333333 43.6666666667 111.666666667 55 113 c 0
 68.3333333333 114.333333333 81.3333333333 115.333333333 94 116 c 0
 110 117.333333333 121 119.666666667 127 123 c 0
 133.666666667 126.333333333 138 134.666666667 140 148 c 0
 358 1261 l 0
 361.333333333 1273 359.333333333 1281 352 1285 c 0
 344.666666667 1289 334.333333333 1291.33333333 321 1292 c 0
 309 1292.66666667 296.333333333 1293.66666667 283 1295 c 0
 271.666666667 1296.33333333 258.666666667 1297.66666667 244 1299 c 0
 229.333333333 1300.33333333 215.333333333 1301.66666667 202 1303 c 0
 202 1407 l 0
 1307 1407 l 0
 1239 1076 l 0
EndSplineSet
EndChar

StartChar: F
Encoding: 41 70 41
Width: 1165
VWidth: 1024
Flags: HW
LayerCount: 2
Fore
SplineSet
1214 1053 m 0
 1044 1053 l 0
 1044 1254 l 0
 1044 1264 1039 1271 1029 1275 c 0
 1019 1279 1008 1281 996 1281 c 0
 663 1281 l 0
 564 774 l 0
 786 774 l 0
 796 774 807.666666667 776.333333333 821 781 c 0
 833.666666667 785.666666667 841.666666667 793 845 803 c 0
 887 954 l 0
 1042 954 l 0
 946 460 l 0
 788 460 l 0
 812 616 l 0
 812.666666667 625.333333333 807.333333333 632.666666667 796 638 c 0
 784.666666667 643.333333333 773.666666667 646 763 646 c 0
 539 646 l 0
 440 146 l 0
 438 134 441 126.333333333 449 123 c 0
 456.333333333 119.666666667 466.666666667 117.333333333 480 116 c 0
 492.666666667 115.333333333 506.666666667 114.333333333 522 113 c 0
 534.666666667 111.666666667 549.333333333 110.333333333 566 109 c 0
 582 107.666666667 598.666666667 106 616 104 c 0
 616 0 l 0
 -32 0 l 0
 -32 104 l 0
 -17.3333333333 105.333333333 -3 107 11 109 c 0
 25 110.333333333 37.6666666667 111.666666667 49 113 c 0
 61.6666666667 114.333333333 74.6666666667 115.333333333 88 116 c 0
 104 117.333333333 115.666666667 119.666666667 123 123 c 0
 131 126.333333333 136.666666667 134.666666667 140 148 c 0
 358 1261 l 0
 360 1273 357.333333333 1281 350 1285 c 0
 342.666666667 1289 332 1291.33333333 318 1292 c 0
 306 1292.66666667 293.666666667 1293.66666667 281 1295 c 0
 269.666666667 1296.33333333 256.666666667 1297.66666667 242 1299 c 0
 227.333333333 1300.33333333 213.333333333 1301.66666667 200 1303 c 0
 200 1407 l 0
 1283 1407 l 0
 1214 1053 l 0
EndSplineSet
EndChar

StartChar: G
Encoding: 42 71 42
Width: 1529
VWidth: 1024
Flags: HW
LayerCount: 2
Fore
SplineSet
1361 574 m 0
 1351.66666667 572.666666667 1345 569.666666667 1341 565 c 0
 1337 559.666666667 1333.66666667 552.333333333 1331 543 c 0
 1235 54 l 0
 1205.66666667 46 1172 37 1134 27 c 0
 1096 17 1055 7.33333333333 1011 -2 c 0
 967 -10.6666666667 922 -18.3333333333 876 -25 c 0
 830 -31 784.666666667 -34 740 -34 c 0
 650.666666667 -34 573 -24.3333333333 507 -5 c 0
 441 14.3333333333 384.333333333 40 337 72 c 0
 289.666666667 104 250.666666667 140.666666667 220 182 c 0
 189.333333333 223.333333333 165 266 147 310 c 0
 129 354.666666667 117 399 111 443 c 0
 104.333333333 487 100.666666667 527.333333333 100 564 c 0
 100 650.666666667 112 732.666666667 136 810 c 0
 159.333333333 887.333333333 192 958.333333333 234 1023 c 0
 276 1088.33333333 326.333333333 1147 385 1199 c 0
 443.666666667 1250.33333333 508 1294 578 1330 c 0
 648 1366 723 1393.33333333 803 1412 c 0
 883 1431.33333333 965 1441 1049 1441 c 0
 1088.33333333 1441 1125.33333333 1439.33333333 1160 1436 c 0
 1194.66666667 1432.66666667 1228.66666667 1428 1262 1422 c 0
 1296 1415.33333333 1330.66666667 1407 1366 1397 c 0
 1401.33333333 1387 1440.33333333 1375.66666667 1483 1363 c 0
 1405 981 l 0
 1227 981 l 0
 1246 1219 l 0
 1247.33333333 1231 1242 1240.66666667 1230 1248 c 0
 1218 1255.33333333 1205 1261.66666667 1191 1267 c 0
 1184.33333333 1269 1175 1272 1163 1276 c 0
 1151 1280.66666667 1137.33333333 1285.33333333 1122 1290 c 0
 1106.66666667 1294.66666667 1090.33333333 1298.66666667 1073 1302 c 0
 1055.66666667 1305.33333333 1039 1307 1023 1307 c 0
 979.666666667 1307 935 1299 889 1283 c 0
 842.333333333 1267 796.666666667 1244 752 1214 c 0
 707.333333333 1183.33333333 665 1145.66666667 625 1101 c 0
 585 1056.33333333 549.666666667 1005.33333333 519 948 c 0
 488.333333333 890.666666667 464 827.333333333 446 758 c 0
 428 688.666666667 419.333333333 613.333333333 420 532 c 0
 420 475.333333333 426.666666667 425.333333333 440 382 c 0
 453.333333333 338.666666667 470.666666667 301 492 269 c 0
 513.333333333 236.333333333 537.666666667 209.333333333 565 188 c 0
 591.666666667 166.666666667 618.666666667 149.333333333 646 136 c 0
 672.666666667 122.666666667 698 113 722 107 c 0
 746 101 766 98 782 98 c 0
 795.333333333 98 810 99 826 101 c 0
 842 103 857.333333333 105.666666667 872 109 c 0
 887.333333333 112.333333333 901.666666667 115.666666667 915 119 c 0
 928.333333333 122.333333333 940 125.333333333 950 128 c 0
 1032 543 l 0
 1034 555.666666667 1032 564 1026 568 c 0
 1020 572 1008.66666667 575 992 577 c 0
 980 577 967.333333333 577.666666667 954 579 c 0
 942.666666667 579.666666667 930 580.333333333 916 581 c 0
 895 583 895 583 874 585 c 0
 874 692 l 0
 1503 692 l 0
 1503 585 l 0
 1361 574 l 0
EndSplineSet
EndChar

StartChar: H
Encoding: 43 72 43
Width: 1607
VWidth: 1024
Flags: HW
LayerCount: 2
Fore
SplineSet
1563 1290 m 0
 1550.33333333 1288.66666667 1541 1285.66666667 1535 1281 c 0
 1529.66666667 1275.66666667 1526.33333333 1268 1525 1258 c 0
 1307 146 l 0
 1305 134.666666667 1307 127 1313 123 c 0
 1319 119 1328.66666667 116.666666667 1342 116 c 0
 1354 115.333333333 1367 114.333333333 1381 113 c 0
 1392.33333333 111.666666667 1405.66666667 110.333333333 1421 109 c 0
 1435.66666667 107.666666667 1450.66666667 106 1466 104 c 0
 1466 0 l 0
 830 0 l 0
 830 104 l 0
 878 109 l 0
 894 110.333333333 908 111.666666667 920 113 c 0
 934.666666667 114.333333333 948.333333333 115.333333333 961 116 c 0
 973.666666667 117.333333333 984 120 992 124 c 0
 1000 128 1005 136 1007 148 c 0
 1109 673 l 0
 543 673 l 0
 440 146 l 0
 438 134 439.333333333 126.333333333 444 123 c 0
 448.666666667 119.666666667 460 117.333333333 478 116 c 0
 490 115.333333333 503 114.333333333 517 113 c 0
 528.333333333 111.666666667 541.666666667 110.333333333 557 109 c 0
 571.666666667 107.666666667 586.666666667 106 602 104 c 0
 602 0 l 0
 -32 0 l 0
 -32 104 l 0
 -16 105.333333333 -0.333333333333 107 15 109 c 0
 30.3333333333 110.333333333 43.6666666667 111.666666667 55 113 c 0
 68.3333333333 114.333333333 81.3333333333 115.333333333 94 116 c 0
 109.333333333 117.333333333 120.333333333 120 127 124 c 0
 133.666666667 128 138 136 140 148 c 0
 358 1261 l 0
 360 1273 357.666666667 1281 351 1285 c 0
 344.333333333 1289 333.333333333 1291.33333333 318 1292 c 0
 306 1292.66666667 293.666666667 1293.66666667 281 1295 c 0
 269.666666667 1296.33333333 256.666666667 1297.66666667 242 1299 c 0
 221 1301 221 1301 200 1303 c 0
 200 1407 l 0
 833 1407 l 0
 833 1303 l 0
 816.333333333 1301.66666667 800.333333333 1300.33333333 785 1299 c 0
 769.666666667 1297.66666667 755.666666667 1296.33333333 743 1295 c 0
 728.333333333 1293.66666667 714.666666667 1292.66666667 702 1292 c 0
 688.666666667 1290.66666667 678.666666667 1288 672 1284 c 0
 665.333333333 1279.33333333 660.666666667 1270.66666667 658 1258 c 0
 568 799 l 0
 1135 799 l 0
 1225 1261 l 0
 1227 1273 1224.33333333 1281.33333333 1217 1286 c 0
 1209.66666667 1290.66666667 1197.66666667 1293.33333333 1181 1294 c 0
 1169 1294.66666667 1156.33333333 1295.33333333 1143 1296 c 0
 1131.66666667 1296.66666667 1118.66666667 1297.66666667 1104 1299 c 0
 1090 1300.33333333 1076.33333333 1301.66666667 1063 1303 c 0
 1063 1407 l 0
 1697 1407 l 0
 1697 1303 l 0
 1563 1290 l 0
EndSplineSet
EndChar

StartChar: I
Encoding: 44 73 44
Width: 745
VWidth: 1024
Flags: HW
LayerCount: 2
Fore
SplineSet
690 1292 m 0
 679.333333333 1290.66666667 672 1287.33333333 668 1282 c 0
 664 1276 660.666666667 1268 658 1258 c 0
 440 146 l 0
 438 134.666666667 439.333333333 127 444 123 c 0
 448.666666667 119 458 116.666666667 472 116 c 0
 484.666666667 115.333333333 498.333333333 114.333333333 513 113 c 0
 525 111.666666667 539 110.333333333 555 109 c 0
 571 107.666666667 587.333333333 106 604 104 c 0
 604 0 l 0
 -32 0 l 0
 -32 104 l 0
 -16 105.333333333 -0.666666666667 106.666666667 14 108 c 0
 28.6666666667 108.666666667 41.6666666667 109.666666667 53 111 c 0
 66.3333333333 112.333333333 79.3333333333 113.333333333 92 114 c 0
 108 115.333333333 119.333333333 117.666666667 126 121 c 0
 133.333333333 125 138 134 140 148 c 0
 358 1261 l 0
 361.333333333 1273 359.333333333 1281 352 1285 c 0
 344.666666667 1289 334.333333333 1291.33333333 321 1292 c 0
 309 1292.66666667 296.333333333 1293.66666667 283 1295 c 0
 271.666666667 1296.33333333 258.666666667 1297.66666667 244 1299 c 0
 229.333333333 1300.33333333 215.333333333 1301.66666667 202 1303 c 0
 202 1407 l 0
 835 1407 l 0
 835 1303 l 0
 690 1292 l 0
EndSplineSet
EndChar

StartChar: J
Encoding: 45 74 45
Width: 1069
VWidth: 1024
Flags: HW
LayerCount: 2
Fore
SplineSet
1009 1290 m 0
 999.666666667 1290 993 1287.33333333 989 1282 c 0
 985 1276 981.666666667 1268 979 1258 c 0
 845 539 l 0
 829.666666667 456.333333333 811 380 789 310 c 0
 767 240 735.333333333 179.666666667 694 129 c 0
 653.333333333 78.3333333333 599.666666667 38.3333333333 533 9 c 0
 466.333333333 -19.6666666667 381.666666667 -34 279 -34 c 0
 232.333333333 -34 190.666666667 -31 154 -25 c 0
 117.333333333 -19 85.6666666667 -11.6666666667 59 -3 c 0
 32.3333333333 5 10.6666666667 13 -6 21 c 0
 -22.6666666667 29 -34.6666666667 34.6666666667 -42 38 c 0
 30 402 l 0
 202 402 l 0
 202 138 l 0
 202 132.666666667 205 127.333333333 211 122 c 0
 217.666666667 116.666666667 226 112.333333333 236 109 c 0
 245.333333333 105 255.333333333 102 266 100 c 0
 276.666666667 97.3333333333 286 96 294 96 c 0
 354.666666667 96 404.333333333 131 443 201 c 0
 481.666666667 271 514.333333333 378 541 522 c 0
 680 1261 l 0
 682 1273 679.666666667 1281 673 1285 c 0
 666.333333333 1289 656 1291.33333333 642 1292 c 0
 629.333333333 1292.66666667 616 1293.66666667 602 1295 c 0
 590.666666667 1296.33333333 577.333333333 1297.66666667 562 1299 c 0
 546.666666667 1300.33333333 532 1301.66666667 518 1303 c 0
 518 1407 l 0
 1151 1407 l 0
 1151 1303 l 0
 1009 1290 l 0
EndSplineSet
EndChar

StartChar: K
Encoding: 46 75 46
Width: 1464
VWidth: 1024
Flags: HW
LayerCount: 2
Fore
SplineSet
1355 1285 m 0
 814 770 l 0
 1105 216 l 0
 1117 192.666666667 1127 174 1135 160 c 0
 1143 145.333333333 1151 133.666666667 1159 125 c 0
 1167 116.333333333 1176.33333333 110.666666667 1187 108 c 0
 1197 104.666666667 1210.33333333 102.666666667 1227 102 c 0
 1232.33333333 102 1241.66666667 102.666666667 1255 104 c 0
 1268.33333333 105.333333333 1282.66666667 106.333333333 1298 107 c 0
 1313.33333333 108.333333333 1327 109.333333333 1339 110 c 0
 1351 111.333333333 1357.66666667 112 1359 112 c 0
 1359 6 l 0
 1321 -5.33333333333 1281 -15 1239 -23 c 0
 1197.66666667 -30.3333333333 1157.33333333 -34 1118 -34 c 0
 1076 -34 1040 -31 1010 -25 c 0
 980 -19 954.333333333 -9 933 5 c 0
 911.666666667 18.3333333333 893 35.3333333333 877 56 c 0
 861 76.6666666667 845.333333333 101.333333333 830 130 c 0
 579 610 l 0
 530 610 l 0
 438 146 l 0
 436 132.666666667 438.333333333 124.333333333 445 121 c 0
 451.666666667 117.666666667 460.666666667 115.333333333 472 114 c 0
 483.333333333 113.333333333 495.333333333 112.333333333 508 111 c 0
 518 109.666666667 529.333333333 108.666666667 542 108 c 0
 554.666666667 107.333333333 567.666666667 106 581 104 c 0
 581 0 l 0
 -34 0 l 0
 -34 104 l 0
 -20.6666666667 105.333333333 -6.33333333333 106.666666667 9 108 c 0
 24.3333333333 108.666666667 38.6666666667 109.666666667 52 111 c 0
 68 112.333333333 83.3333333333 113.333333333 98 114 c 0
 108.666666667 114 117.666666667 116.333333333 125 121 c 0
 131.666666667 125.666666667 136 134.666666667 138 148 c 0
 358 1261 l 0
 361.333333333 1273 360.333333333 1281.33333333 355 1286 c 0
 349.666666667 1290.66666667 342 1293.33333333 332 1294 c 0
 320.666666667 1294.66666667 308.666666667 1295.33333333 296 1296 c 0
 285.333333333 1296.66666667 273.333333333 1297.66666667 260 1299 c 0
 247.333333333 1300.33333333 234 1301.66666667 220 1303 c 0
 220 1407 l 0
 814 1407 l 0
 814 1303 l 0
 799.333333333 1301.66666667 785.333333333 1300.33333333 772 1299 c 0
 758 1297.66666667 745.333333333 1296.66666667 734 1296 c 0
 716 1295 716 1295 698 1294 c 0
 688 1292.66666667 679.666666667 1290 673 1286 c 0
 666.333333333 1281.33333333 661.333333333 1272 658 1258 c 0
 568 803 l 0
 585 803 l 0
 1057 1263 l 0
 1067.66666667 1272.33333333 1070.66666667 1279.66666667 1066 1285 c 0
 1061.33333333 1290.33333333 1052 1293.33333333 1038 1294 c 0
 1026 1294 1013.66666667 1294.66666667 1001 1296 c 0
 990.333333333 1296.66666667 978.666666667 1297.66666667 966 1299 c 0
 953.333333333 1300.33333333 941 1301.66666667 929 1303 c 0
 929 1407 l 0
 1539 1407 l 0
 1539 1303 l 0
 1355 1285 l 0
EndSplineSet
EndChar

StartChar: L
Encoding: 47 76 47
Width: 1173
VWidth: 1024
Flags: HW
LayerCount: 2
Fore
SplineSet
1023 0 m 0
 -32 0 l 0
 -32 104 l 0
 -17.3333333333 105.333333333 -3 107 11 109 c 0
 25 110.333333333 37.6666666667 111.333333333 49 112 c 0
 88 114 l 0
 108 116 121 118.666666667 127 122 c 0
 133.666666667 126 138 134.666666667 140 148 c 0
 358 1261 l 0
 361.333333333 1272.33333333 359.666666667 1280 353 1284 c 0
 345.666666667 1288 336.333333333 1290.66666667 325 1292 c 0
 313 1292.66666667 300 1293.66666667 286 1295 c 0
 274.666666667 1296.33333333 261.333333333 1297.66666667 246 1299 c 0
 224 1301 224 1301 202 1303 c 0
 202 1407 l 0
 835 1407 l 0
 835 1303 l 0
 817 1301.66666667 800 1300.33333333 784 1299 c 0
 768 1297.66666667 753.333333333 1296.33333333 740 1295 c 0
 724.666666667 1293.66666667 710.666666667 1292.66666667 698 1292 c 0
 688.666666667 1290.66666667 680.666666667 1288 674 1284 c 0
 667.333333333 1279.33333333 662 1270.66666667 658 1258 c 0
 436 126 l 0
 805 126 l 0
 815.666666667 126 827.333333333 128.666666667 840 134 c 0
 852.666666667 139.333333333 860.666666667 146.666666667 864 156 c 0
 950 424 l 0
 1107 424 l 0
 1023 0 l 0
EndSplineSet
EndChar

StartChar: M
Encoding: 48 77 48
Width: 1894
VWidth: 1024
Flags: HW
LayerCount: 2
Fore
SplineSet
1839 1287 m 0
 1829.66666667 1285.66666667 1823 1283 1819 1279 c 0
 1815 1275 1811.66666667 1268 1809 1258 c 0
 1593 146 l 0
 1591 134 1593.66666667 126.333333333 1601 123 c 0
 1607.66666667 119.666666667 1617.66666667 117.333333333 1631 116 c 0
 1643 115.333333333 1656 114.333333333 1670 113 c 0
 1681.33333333 111.666666667 1694.33333333 110.333333333 1709 109 c 0
 1723.66666667 107.666666667 1738.33333333 106 1753 104 c 0
 1753 0 l 0
 1120 0 l 0
 1120 104 l 0
 1136 105.333333333 1151.33333333 107 1166 109 c 0
 1181.33333333 110.333333333 1195 111.666666667 1207 113 c 0
 1221.66666667 114.333333333 1235.33333333 115.333333333 1248 116 c 0
 1259.33333333 116 1269.33333333 118.333333333 1278 123 c 0
 1286.66666667 127.666666667 1292 136 1294 148 c 0
 1451 958 l 0
 906 0 l 0
 700 0 l 0
 530 944 l 0
 382 146 l 0
 378.666666667 134.666666667 380.333333333 127 387 123 c 0
 393.666666667 119 401.666666667 116.666666667 411 116 c 0
 423.666666667 115.333333333 437 114.333333333 451 113 c 0
 462.333333333 111.666666667 475.666666667 110.333333333 491 109 c 0
 506.333333333 107.666666667 522.333333333 106 539 104 c 0
 539 0 l 0
 -30 0 l 0
 -30 104 l 0
 -15.3333333333 105.333333333 -1.33333333333 107 12 109 c 0
 25.3333333333 110.333333333 38 111.666666667 50 113 c 0
 62.6666666667 114.333333333 75.3333333333 115.333333333 88 116 c 0
 103.333333333 117.333333333 115.333333333 119.666666667 124 123 c 0
 132.666666667 126.333333333 138.666666667 134.666666667 142 148 c 0
 358 1261 l 0
 360 1273 357.666666667 1281 351 1285 c 0
 344.333333333 1289 334.333333333 1291.33333333 321 1292 c 0
 308.333333333 1292.66666667 295.333333333 1293.66666667 282 1295 c 0
 270.666666667 1296.33333333 257.666666667 1297.66666667 243 1299 c 0
 228.333333333 1300.33333333 214 1301.66666667 200 1303 c 0
 200 1407 l 0
 757 1407 l 0
 757 1338 l 0
 916 457 l 0
 1409 1329 l 0
 1409 1407 l 0
 1981 1407 l 0
 1981 1303 l 0
 1839 1287 l 0
EndSplineSet
EndChar

StartChar: N
Encoding: 49 78 49
Width: 1579
VWidth: 1024
Flags: HW
LayerCount: 2
Fore
SplineSet
1535 1290 m 0
 1515 1286.66666667 1503 1276 1499 1258 c 0
 1250 0 l 0
 1017 0 l 0
 548 975 l 0
 386 146 l 0
 384 134 386 126.333333333 392 123 c 0
 398 119.666666667 408.666666667 117.333333333 424 116 c 0
 436 115.333333333 448.666666667 114.333333333 462 113 c 0
 473.333333333 111.666666667 486 110.333333333 500 109 c 0
 514 107.666666667 529 106 545 104 c 0
 545 0 l 0
 -30 0 l 0
 -30 104 l 0
 -14.6666666667 105.333333333 0 107 14 109 c 0
 28 110.333333333 40.6666666667 111.666666667 52 113 c 0
 64.6666666667 114.333333333 77.3333333333 115.333333333 90 116 c 0
 105.333333333 117.333333333 117 119.666666667 125 123 c 0
 133 126.333333333 138.666666667 134.666666667 142 148 c 0
 358 1261 l 0
 361.333333333 1273 359.333333333 1281 352 1285 c 0
 344.666666667 1289 334.333333333 1291.33333333 321 1292 c 0
 309 1292.66666667 296.333333333 1293.66666667 283 1295 c 0
 271.666666667 1296.33333333 258.666666667 1297.66666667 244 1299 c 0
 223 1301 223 1301 202 1303 c 0
 202 1407 l 0
 694 1407 l 0
 694 1342 l 0
 1103 488 l 0
 1256 1261 l 0
 1259.33333333 1273 1256.66666667 1281 1248 1285 c 0
 1239.33333333 1289 1229 1291.33333333 1217 1292 c 0
 1204.33333333 1292.66666667 1191.33333333 1293.66666667 1178 1295 c 0
 1166.66666667 1296.33333333 1153.66666667 1297.66666667 1139 1299 c 0
 1124.33333333 1300.33333333 1110.33333333 1301.66666667 1097 1303 c 0
 1097 1407 l 0
 1671 1407 l 0
 1671 1303 l 0
 1535 1290 l 0
EndSplineSet
EndChar

StartChar: O
Encoding: 50 79 50
Width: 1576
VWidth: 1024
Flags: HW
LayerCount: 2
Fore
SplineSet
1537 874 m 0
 1537 802 1529.33333333 730 1514 658 c 0
 1498.66666667 585.333333333 1476 515.333333333 1446 448 c 0
 1415.33333333 380.666666667 1377.33333333 317.666666667 1332 259 c 0
 1286 200.333333333 1232.66666667 149.333333333 1172 106 c 0
 1111.33333333 62.6666666667 1043 28.6666666667 967 4 c 0
 890.333333333 -20.6666666667 806.333333333 -33.3333333333 715 -34 c 0
 617.666666667 -34 530.666666667 -19.3333333333 454 10 c 0
 378 39.3333333333 313.666666667 80 261 132 c 0
 208.333333333 184 168.333333333 245.666666667 141 317 c 0
 113.666666667 388.333333333 100 466.666666667 100 552 c 0
 100 624.666666667 108.333333333 697 125 769 c 0
 141.666666667 841.666666667 166.333333333 910.666666667 199 976 c 0
 231.666666667 1042 271.333333333 1103.33333333 318 1160 c 0
 365.333333333 1216.66666667 419.666666667 1266 481 1308 c 0
 542.333333333 1349.33333333 610 1381.66666667 684 1405 c 0
 758.666666667 1428.33333333 839 1440.33333333 925 1441 c 0
 1026.33333333 1441 1115 1425.33333333 1191 1394 c 0
 1267.66666667 1362.66666667 1331.33333333 1321 1382 1269 c 0
 1433.33333333 1217 1472 1157 1498 1089 c 0
 1524 1020.33333333 1537 948.666666667 1537 874 c 0
1210 874 m 0
 1210 944 1201 1006.66666667 1183 1062 c 0
 1165 1116.66666667 1141.66666667 1162.66666667 1113 1200 c 0
 1083.66666667 1237.33333333 1051 1266 1015 1286 c 0
 979 1305.33333333 942.666666667 1315 906 1315 c 0
 864.666666667 1315 824 1304.33333333 784 1283 c 0
 744 1261.66666667 706.333333333 1233 671 1197 c 0
 635.666666667 1160.33333333 602.666666667 1116.66666667 572 1066 c 0
 542 1016 516.333333333 962.333333333 495 905 c 0
 473.666666667 847 456.666666667 786.333333333 444 723 c 0
 432 659.666666667 426 597 426 535 c 0
 426 462.333333333 435.333333333 398.666666667 454 344 c 0
 472.666666667 289.333333333 496.666666667 243.666666667 526 207 c 0
 555.333333333 170.333333333 588 142.666666667 624 124 c 0
 660 105.333333333 695.333333333 96 730 96 c 0
 770.666666667 96 811 107 851 129 c 0
 891 150.333333333 929 179.666666667 965 217 c 0
 1000.33333333 254.333333333 1033 298.333333333 1063 349 c 0
 1093 399 1119 452.666666667 1141 510 c 0
 1163 568 1180 628 1192 690 c 0
 1204 752 1210 813.333333333 1210 874 c 0
EndSplineSet
EndChar

StartChar: P
Encoding: 51 80 51
Width: 1273
VWidth: 1024
Flags: HW
LayerCount: 2
Fore
SplineSet
979 1032 m 0
 979 1114.66666667 955.333333333 1178 908 1222 c 0
 860.666666667 1266 790.666666667 1287.66666667 698 1287 c 0
 663 1287 l 0
 535 646 l 0
 575.666666667 644.666666667 619 648.333333333 665 657 c 0
 711 665.666666667 755.666666667 683 799 709 c 0
 824.333333333 724.333333333 847.666666667 742 869 762 c 0
 891 782.666666667 910.333333333 806.333333333 927 833 c 0
 943.666666667 859.666666667 956.333333333 889.333333333 965 922 c 0
 974.333333333 955.333333333 979 992 979 1032 c 0
1285 1065 m 0
 1285 983 1269.33333333 908.666666667 1238 842 c 0
 1206 775.333333333 1160.33333333 717.666666667 1101 669 c 0
 1041.66666667 621 969.666666667 584 885 558 c 0
 801 532 706.666666667 518.666666667 602 518 c 0
 559 518 l 0
 541.666666667 518 526 518.666666667 512 520 c 0
 436 146 l 0
 434 134 436 126.333333333 442 123 c 0
 448 119.666666667 458.666666667 117.333333333 474 116 c 0
 486 115.333333333 499 114.333333333 513 113 c 0
 524.333333333 111.666666667 537.333333333 110.333333333 552 109 c 0
 566.666666667 107.666666667 582 106 598 104 c 0
 598 0 l 0
 -36 0 l 0
 -36 104 l 0
 -20.6666666667 105.333333333 -6 107 8 109 c 0
 22.6666666667 110.333333333 35.6666666667 111.666666667 47 113 c 0
 59.6666666667 114.333333333 72.6666666667 115.333333333 86 116 c 0
 99.3333333333 117.333333333 110.333333333 119.666666667 119 123 c 0
 127 126.333333333 132.666666667 134.666666667 136 148 c 0
 356 1261 l 0
 358 1273 355.333333333 1281 348 1285 c 0
 340 1289 329.333333333 1291.33333333 316 1292 c 0
 304 1292.66666667 291.666666667 1293.66666667 279 1295 c 0
 267.666666667 1296.33333333 254.666666667 1297.66666667 240 1299 c 0
 225.333333333 1300.33333333 211.333333333 1301.66666667 198 1303 c 0
 198 1407 l 0
 763 1407 l 0
 861.666666667 1407 944.666666667 1398 1012 1380 c 0
 1078.66666667 1362 1132.33333333 1337.33333333 1173 1306 c 0
 1213.66666667 1274.66666667 1242.66666667 1238.66666667 1260 1198 c 0
 1276.66666667 1156.66666667 1285 1112.33333333 1285 1065 c 0
EndSplineSet
EndChar

StartChar: Q
Encoding: 52 81 52
Width: 1576
VWidth: 1024
Flags: HW
LayerCount: 2
Fore
SplineSet
1603 -226 m 0
 1593.66666667 -230.666666667 1574.66666667 -239 1546 -251 c 0
 1518 -263 1485.33333333 -275.333333333 1448 -288 c 0
 1410.66666667 -300.666666667 1370.33333333 -312 1327 -322 c 0
 1283.66666667 -331.333333333 1242.66666667 -336 1204 -336 c 0
 1139.33333333 -336 1084 -327.666666667 1038 -311 c 0
 992 -294.333333333 952.666666667 -272 920 -244 c 0
 887.333333333 -216.666666667 859.666666667 -184.666666667 837 -148 c 0
 815 -111.333333333 794.666666667 -73.3333333333 776 -34 c 0
 766.666666667 -35.3333333333 756.333333333 -36.3333333333 745 -37 c 0
 733.666666667 -37.6666666667 721.666666667 -38 709 -38 c 0
 618.333333333 -38 535.333333333 -24.3333333333 460 3 c 0
 384.666666667 29.6666666667 320 68.3333333333 266 119 c 0
 212 169.666666667 170.333333333 230.666666667 141 302 c 0
 111 373.333333333 96 453.666666667 96 543 c 0
 96 612.333333333 104.333333333 683 121 755 c 0
 137.666666667 827 162.666666667 896 196 962 c 0
 228.666666667 1028.66666667 268.666666667 1091 316 1149 c 0
 363.333333333 1207 417.666666667 1257.66666667 479 1301 c 0
 540.333333333 1344.33333333 608.666666667 1378.33333333 684 1403 c 0
 758.666666667 1427.66666667 839.666666667 1440.33333333 927 1441 c 0
 1027 1441 1114.66666667 1426 1190 1396 c 0
 1266 1366 1329.33333333 1325 1380 1273 c 0
 1431.33333333 1221 1470 1160.66666667 1496 1092 c 0
 1522 1023.33333333 1535 950 1535 872 c 0
 1535 835.333333333 1532.66666667 794.666666667 1528 750 c 0
 1523.33333333 704.666666667 1515 657.666666667 1503 609 c 0
 1490.33333333 560.333333333 1473.33333333 510.333333333 1452 459 c 0
 1430.66666667 408.333333333 1403 358.666666667 1369 310 c 0
 1335 261.333333333 1294 214.333333333 1246 169 c 0
 1198 123.666666667 1141.33333333 82.6666666667 1076 46 c 0
 1096 10.6666666667 1113.33333333 -21.6666666667 1128 -51 c 0
 1143.33333333 -80.3333333333 1159.66666667 -105.333333333 1177 -126 c 0
 1194.33333333 -146.666666667 1213.66666667 -163 1235 -175 c 0
 1257 -186.333333333 1284.33333333 -192.333333333 1317 -193 c 0
 1335.66666667 -193 1354.33333333 -190.666666667 1373 -186 c 0
 1392.33333333 -181.333333333 1413.33333333 -175 1436 -167 c 0
 1458.66666667 -159 1483.33333333 -148.666666667 1510 -136 c 0
 1536.66666667 -124 1567.66666667 -110 1603 -94 c 0
 1603 -226 l 0
1210 872 m 0
 1210 939.333333333 1201.66666667 1000.33333333 1185 1055 c 0
 1167.66666667 1109 1145.33333333 1155.33333333 1118 1194 c 0
 1090.66666667 1232 1059 1261.33333333 1023 1282 c 0
 987.666666667 1302.66666667 952 1313 916 1313 c 0
 874 1313 832.666666667 1303 792 1283 c 0
 751.333333333 1263 712.333333333 1235 675 1199 c 0
 638.333333333 1163 604.333333333 1120.33333333 573 1071 c 0
 541.666666667 1021.66666667 514.666666667 968.333333333 492 911 c 0
 469.333333333 853 451.666666667 792 439 728 c 0
 426.333333333 664 420 598.666666667 420 532 c 0
 420 465.333333333 428.333333333 405 445 351 c 0
 462.333333333 297 485.333333333 250.666666667 514 212 c 0
 542 174 574.666666667 144.333333333 612 123 c 0
 649.333333333 102.333333333 688 92 728 92 c 0
 768 92 808 102.666666667 848 124 c 0
 887.333333333 145.333333333 925 174.333333333 961 211 c 0
 997 248.333333333 1030 292.333333333 1060 343 c 0
 1090.66666667 393 1117 447 1139 505 c 0
 1161 563 1178.33333333 623.333333333 1191 686 c 0
 1203.66666667 748 1210 810 1210 872 c 0
EndSplineSet
EndChar

StartChar: R
Encoding: 53 82 53
Width: 1431
VWidth: 1024
Flags: HW
LayerCount: 2
Fore
SplineSet
981 1061 m 0
 981 1095 976 1124.33333333 966 1149 c 0
 956 1173.66666667 942.666666667 1194.33333333 926 1211 c 0
 910 1227.66666667 892 1241 872 1251 c 0
 852 1261 832.333333333 1268.66666667 813 1274 c 0
 793 1279.33333333 774.333333333 1282.66666667 757 1284 c 0
 739.666666667 1285.33333333 725.666666667 1285.66666667 715 1285 c 0
 663 1281 l 0
 560 738 l 0
 574 738 l 0
 580 738 586 738.333333333 592 739 c 0
 598.666666667 739 605.333333333 739.333333333 612 740 c 0
 638.666666667 740.666666667 666.333333333 744 695 750 c 0
 723.666666667 755.333333333 751.666666667 763 779 773 c 0
 806.333333333 783 832.333333333 796.333333333 857 813 c 0
 881 829.666666667 902.333333333 849.666666667 921 873 c 0
 939.666666667 896.333333333 954.333333333 923.666666667 965 955 c 0
 975.666666667 986.333333333 981 1021.66666667 981 1061 c 0
1378 6 m 0
 1346 -7.33333333333 1314.66666667 -17.3333333333 1284 -24 c 0
 1253.33333333 -30.6666666667 1219 -34 1181 -34 c 0
 1116.33333333 -34 1063 -26.3333333333 1021 -11 c 0
 979.666666667 4.33333333333 945.666666667 26.3333333333 919 55 c 0
 892.333333333 84.3333333333 871.333333333 120 856 162 c 0
 840.666666667 204 827.333333333 252.666666667 816 308 c 0
 811.333333333 328.666666667 806.333333333 350.333333333 801 373 c 0
 795.666666667 395.666666667 789.666666667 418.333333333 783 441 c 0
 775.666666667 463.666666667 767 485.333333333 757 506 c 0
 747 526.666666667 734.666666667 545 720 561 c 0
 705.333333333 577 688.333333333 589.666666667 669 599 c 0
 649.666666667 608.333333333 626.666666667 612.666666667 600 612 c 0
 591.333333333 612 580.666666667 611.666666667 568 611 c 0
 556 610.333333333 544 610 532 610 c 0
 444 146 l 0
 442 134.666666667 444 127 450 123 c 0
 455.333333333 119 464.666666667 116.666666667 478 116 c 0
 490 114.666666667 503.333333333 113.333333333 518 112 c 0
 529.333333333 110.666666667 543 109.333333333 559 108 c 0
 575 106.666666667 590.666666667 105.333333333 606 104 c 0
 606 0 l 0
 -28 0 l 0
 -28 104 l 0
 -12 105.333333333 3.33333333333 106.666666667 18 108 c 0
 32.6666666667 108.666666667 45.6666666667 109.666666667 57 111 c 0
 70.3333333333 112.333333333 83.3333333333 113.333333333 96 114 c 0
 108.666666667 115.333333333 119 118 127 122 c 0
 135 126 140.666666667 134.666666667 144 148 c 0
 358 1261 l 0
 361.333333333 1272.33333333 359.666666667 1280 353 1284 c 0
 346.333333333 1288 336.333333333 1290.66666667 323 1292 c 0
 310.333333333 1292.66666667 297.333333333 1293.66666667 284 1295 c 0
 272.666666667 1296.33333333 259.666666667 1297.66666667 245 1299 c 0
 230.333333333 1300.33333333 216 1301.66666667 202 1303 c 0
 202 1407 l 0
 807 1407 l 0
 877 1407 942.666666667 1401.66666667 1004 1391 c 0
 1064.66666667 1380.33333333 1117.33333333 1362.33333333 1162 1337 c 0
 1207.33333333 1312.33333333 1242.66666667 1280 1268 1240 c 0
 1293.33333333 1200 1306.33333333 1151 1307 1093 c 0
 1307 1037.66666667 1296 987.666666667 1274 943 c 0
 1252.66666667 898.333333333 1223.33333333 858 1186 822 c 0
 1148.66666667 786.666666667 1104.33333333 756 1053 730 c 0
 1001.66666667 704 946.333333333 682.333333333 887 665 c 0
 927 646.333333333 959.333333333 626 984 604 c 0
 1008.66666667 582 1028.33333333 557 1043 529 c 0
 1058.33333333 501.666666667 1070.66666667 471.333333333 1080 438 c 0
 1089.33333333 404.666666667 1099 368.666666667 1109 330 c 0
 1118.33333333 293.333333333 1127.66666667 260.666666667 1137 232 c 0
 1146.33333333 204 1160 180.666666667 1178 162 c 0
 1196 142.666666667 1220.66666667 128.333333333 1252 119 c 0
 1283.33333333 109.666666667 1325.33333333 104.666666667 1378 104 c 0
 1378 6 l 0
EndSplineSet
EndChar

StartChar: S
Encoding: 54 83 54
Width: 1179
VWidth: 1024
Flags: HW
LayerCount: 2
Fore
SplineSet
1095 1030 m 0
 935 1030 l 0
 944 1248 l 0
 944 1251.33333333 937.666666667 1257 925 1265 c 0
 912.333333333 1272.33333333 896 1280 876 1288 c 0
 856 1296 834.666666667 1302.66666667 812 1308 c 0
 789.333333333 1314 768.333333333 1317 749 1317 c 0
 721.666666667 1317 692 1310.66666667 660 1298 c 0
 628.666666667 1286 599.666666667 1268.33333333 573 1245 c 0
 546.333333333 1221.66666667 523.666666667 1193.33333333 505 1160 c 0
 487 1126.66666667 478 1089 478 1047 c 0
 478 1010.33333333 488 978 508 950 c 0
 528 922.666666667 553 898.333333333 583 877 c 0
 613 856.333333333 644.666666667 838 678 822 c 0
 712 806 742.666666667 791.333333333 770 778 c 0
 807.333333333 758.666666667 844 738.666666667 880 718 c 0
 916 696.666666667 947.666666667 672.666666667 975 646 c 0
 1002.33333333 619.333333333 1024.66666667 588.666666667 1042 554 c 0
 1058.66666667 519.333333333 1067 479.333333333 1067 434 c 0
 1067 402 1062.66666667 368.333333333 1054 333 c 0
 1045.33333333 297.666666667 1031 262.666666667 1011 228 c 0
 991 193.333333333 965 160.333333333 933 129 c 0
 901 97 861.666666667 69 815 45 c 0
 768.333333333 21 713.666666667 2 651 -12 c 0
 588.333333333 -26.6666666667 516.666666667 -34 436 -34 c 0
 378.666666667 -34 325 -29 275 -19 c 0
 225 -9 180.333333333 2.66666666667 141 16 c 0
 101.666666667 29.3333333333 69 42.3333333333 43 55 c 0
 17 67.6666666667 -0.666666666667 77.3333333333 -10 84 c 0
 62 428 l 0
 242 428 l 0
 218 178 l 0
 217.333333333 174 226.666666667 167.333333333 246 158 c 0
 265.333333333 148.666666667 288 139.666666667 314 131 c 0
 340.666666667 121.666666667 368.333333333 113.333333333 397 106 c 0
 425 99.3333333333 448 96 466 96 c 0
 497.333333333 96 530.333333333 102 565 114 c 0
 599.666666667 126 631.666666667 144 661 168 c 0
 690.333333333 192 714.333333333 222.666666667 733 260 c 0
 751.666666667 296.666666667 761 339.333333333 761 388 c 0
 761 422 750.666666667 452.333333333 730 479 c 0
 709.333333333 505.666666667 684 529.333333333 654 550 c 0
 624 570.666666667 592.333333333 589.333333333 559 606 c 0
 525 622.666666667 495.333333333 637.333333333 470 650 c 0
 432.666666667 669.333333333 396.333333333 689.333333333 361 710 c 0
 325.666666667 730.666666667 294.333333333 754 267 780 c 0
 239.666666667 805.333333333 217.666666667 834 201 866 c 0
 184.333333333 898 176 935 176 977 c 0
 176 1044.33333333 189.666666667 1106.33333333 217 1163 c 0
 243.666666667 1219.66666667 282.333333333 1268.66666667 333 1310 c 0
 383.666666667 1350.66666667 445.666666667 1382.66666667 519 1406 c 0
 591.666666667 1429.33333333 674 1441 766 1441 c 0
 813.333333333 1441 856.666666667 1438.33333333 896 1433 c 0
 935.333333333 1427.66666667 971.666666667 1421 1005 1413 c 0
 1038.33333333 1405 1068.33333333 1396 1095 1386 c 0
 1121.66666667 1376 1145.33333333 1366.33333333 1166 1357 c 0
 1095 1030 l 0
EndSplineSet
EndChar

StartChar: T
Encoding: 55 84 55
Width: 1316
VWidth: 1024
Flags: HW
LayerCount: 2
Fore
SplineSet
1375 1040 m 0
 1212 1040 l 0
 1223 1265 l 0
 1223.66666667 1273.66666667 1218.66666667 1280.33333333 1208 1285 c 0
 1197.33333333 1289.66666667 1187 1292 1177 1292 c 0
 948 1292 l 0
 732 146 l 0
 730 134 733 126.333333333 741 123 c 0
 749 119.666666667 759.333333333 117.333333333 772 116 c 0
 784 115.333333333 797 114.333333333 811 113 c 0
 822.333333333 111.666666667 835.333333333 110.333333333 850 109 c 0
 893 104 l 0
 893 0 l 0
 260 0 l 0
 260 104 l 0
 273.333333333 105.333333333 287 106.666666667 301 108 c 0
 314.333333333 108.666666667 326.666666667 109.666666667 338 111 c 0
 350.666666667 112.333333333 363.333333333 113.333333333 376 114 c 0
 390.666666667 115.333333333 403 118 413 122 c 0
 423.666666667 126 430 134.666666667 432 148 c 0
 648 1292 l 0
 432 1292 l 0
 427.333333333 1292 422 1291.33333333 416 1290 c 0
 410 1288.66666667 404 1286.66666667 398 1284 c 0
 392 1281.33333333 386.666666667 1278.33333333 382 1275 c 0
 377.333333333 1271.66666667 374.666666667 1267.66666667 374 1263 c 0
 294 1040 l 0
 130 1040 l 0
 202 1407 l 0
 1451 1407 l 0
 1375 1040 l 0
EndSplineSet
EndChar

StartChar: U
Encoding: 56 85 56
Width: 1570
VWidth: 1024
Flags: HW
LayerCount: 2
Fore
SplineSet
1521 1292 m 0
 1511.66666667 1290.66666667 1504 1287.33333333 1498 1282 c 0
 1492.66666667 1276 1489 1268 1487 1258 c 0
 1325 451 l 0
 1310.33333333 377.666666667 1287.66666667 311.333333333 1257 252 c 0
 1225.66666667 192.666666667 1184.66666667 141.666666667 1134 99 c 0
 1083.33333333 57 1021.66666667 24.3333333333 949 1 c 0
 876.333333333 -22.3333333333 792 -34 696 -34 c 0
 618 -34 548 -26.6666666667 486 -12 c 0
 424 2.66666666667 371.333333333 25.3333333333 328 56 c 0
 284.666666667 86.6666666667 251.333333333 125.333333333 228 172 c 0
 204.666666667 219.333333333 193 275.333333333 193 340 c 0
 193 360 195 389.333333333 199 428 c 0
 203.666666667 466.666666667 210.666666667 509.333333333 220 556 c 0
 367 1261 l 0
 369 1273 366 1281 358 1285 c 0
 350.666666667 1289 339.666666667 1291.33333333 325 1292 c 0
 313.666666667 1292.66666667 301.333333333 1293.66666667 288 1295 c 0
 276.666666667 1296.33333333 263.666666667 1297.66666667 249 1299 c 0
 235 1300.33333333 221.333333333 1301.66666667 208 1303 c 0
 208 1407 l 0
 841 1407 l 0
 841 1303 l 0
 824.333333333 1301.66666667 808.333333333 1300.33333333 793 1299 c 0
 777.666666667 1297.66666667 764 1296.33333333 752 1295 c 0
 737.333333333 1293.66666667 723.666666667 1292.66666667 711 1292 c 0
 699 1290.66666667 689 1288 681 1284 c 0
 673.666666667 1279.33333333 669 1270.66666667 667 1258 c 0
 522 556 l 0
 514 516 508 479.666666667 504 447 c 0
 500 415 498.333333333 389.666666667 499 371 c 0
 499 326.333333333 506 288.333333333 520 257 c 0
 534.666666667 225.666666667 553.666666667 200 577 180 c 0
 600.333333333 160 627.333333333 145.666666667 658 137 c 0
 688.666666667 128.333333333 719.666666667 124 751 124 c 0
 805.666666667 124 852.666666667 134 892 154 c 0
 932 174 966 202 994 238 c 0
 1022 273.333333333 1045.33333333 315.666666667 1064 365 c 0
 1082.66666667 414.333333333 1097.66666667 467.333333333 1109 524 c 0
 1256 1261 l 0
 1258 1273 1256.33333333 1281 1251 1285 c 0
 1245 1289 1233.66666667 1291.33333333 1217 1292 c 0
 1204.33333333 1292.66666667 1191.33333333 1293.66666667 1178 1295 c 0
 1166.66666667 1296.33333333 1153.66666667 1297.66666667 1139 1299 c 0
 1124.33333333 1300.33333333 1110.33333333 1301.66666667 1097 1303 c 0
 1097 1407 l 0
 1659 1407 l 0
 1659 1303 l 0
 1521 1292 l 0
EndSplineSet
EndChar

StartChar: V
Encoding: 57 86 57
Width: 1435
VWidth: 1024
Flags: HW
LayerCount: 2
Fore
SplineSet
1475 1290 m 0
 751 -34 l 0
 510 -34 l 0
 304 1265 l 0
 302 1278.33333333 296.333333333 1287 287 1291 c 0
 277.666666667 1295 267.333333333 1296.66666667 256 1296 c 0
 247.333333333 1296 238 1296.33333333 228 1297 c 0
 220 1297.66666667 211.333333333 1298.33333333 202 1299 c 0
 192.666666667 1299.66666667 183.333333333 1300 174 1300 c 0
 174 1407 l 0
 738 1407 l 0
 738 1300 l 0
 726.666666667 1299.33333333 715.666666667 1299 705 1299 c 0
 694.333333333 1298.33333333 684.333333333 1298 675 1298 c 0
 644 1298 l 0
 632.666666667 1298 623 1296 615 1292 c 0
 607 1288 604 1279.66666667 606 1267 c 0
 742 392 l 0
 1208 1267 l 0
 1210.66666667 1273.66666667 1211.66666667 1279 1211 1283 c 0
 1209.66666667 1287 1207.33333333 1290 1204 1292 c 0
 1200.66666667 1294 1196.66666667 1295.33333333 1192 1296 c 0
 1187.33333333 1296.66666667 1183 1297.33333333 1179 1298 c 0
 1145 1298 l 0
 1135 1298 1123.66666667 1298.33333333 1111 1299 c 0
 1098.33333333 1299.66666667 1086 1300 1074 1300 c 0
 1074 1407 l 0
 1589 1407 l 0
 1589 1303 l 0
 1475 1290 l 0
EndSplineSet
EndChar

StartChar: W
Encoding: 58 87 58
Width: 2031
VWidth: 1024
Flags: HW
LayerCount: 2
Fore
SplineSet
2057 1290 m 0
 1426 -34 l 0
 1212 -34 l 0
 1105 929 l 0
 648 -34 l 0
 420 -34 l 0
 312 1265 l 0
 310.666666667 1278.33333333 306.666666667 1286.66666667 300 1290 c 0
 292.666666667 1293.33333333 280 1295.33333333 262 1296 c 0
 253.333333333 1296 243.666666667 1296.33333333 233 1297 c 0
 224.333333333 1297.66666667 214.666666667 1298.33333333 204 1299 c 0
 193.333333333 1299.66666667 183.333333333 1300 174 1300 c 0
 174 1407 l 0
 746 1407 l 0
 746 1300 l 0
 734 1299.33333333 722 1299 710 1299 c 0
 698 1298.33333333 687.333333333 1297.66666667 678 1297 c 0
 666.666666667 1296.33333333 656 1296 646 1296 c 0
 637.333333333 1296 629.333333333 1294.33333333 622 1291 c 0
 614.666666667 1287.66666667 611.333333333 1279.66666667 612 1267 c 0
 673 526 l 0
 1095 1407 l 0
 1347 1407 l 0
 1439 508 l 0
 1793 1267 l 0
 1795.66666667 1273.66666667 1796.66666667 1279 1796 1283 c 0
 1795.33333333 1287 1793 1290 1789 1292 c 0
 1785 1294 1780.33333333 1295.33333333 1775 1296 c 0
 1769 1296.66666667 1761.66666667 1297.33333333 1753 1298 c 0
 1721 1298 l 0
 1711.66666667 1298 1701.66666667 1298.33333333 1691 1299 c 0
 1680.33333333 1299.66666667 1669.66666667 1300 1659 1300 c 0
 1659 1407 l 0
 2185 1407 l 0
 2185 1303 l 0
 2057 1290 l 0
EndSplineSet
EndChar

StartChar: X
Encoding: 59 88 59
Width: 1415
VWidth: 1024
Flags: HW
LayerCount: 2
Fore
SplineSet
1380 1292 m 0
 1364.66666667 1290.66666667 1353.66666667 1287.33333333 1347 1282 c 0
 1339.66666667 1276 1334.33333333 1271 1331 1267 c 0
 872 753 l 0
 1147 138 l 0
 1152.33333333 128 1158 121.666666667 1164 119 c 0
 1170 116.333333333 1177 114.666666667 1185 114 c 0
 1196.33333333 113.333333333 1208.33333333 112.666666667 1221 112 c 0
 1231.66666667 111.333333333 1244 110.333333333 1258 109 c 0
 1272 107.666666667 1287 106 1303 104 c 0
 1303 0 l 0
 673 0 l 0
 673 104 l 0
 686.333333333 105.333333333 700.333333333 106.666666667 715 108 c 0
 729.666666667 108.666666667 742.666666667 109.666666667 754 111 c 0
 766.666666667 112.333333333 779.666666667 113.333333333 793 114 c 0
 801 114.666666667 808.333333333 115.333333333 815 116 c 0
 821.666666667 116.666666667 827 118 831 120 c 0
 835.666666667 122 838.333333333 125 839 129 c 0
 840.333333333 133 839.666666667 138 837 144 c 0
 675 514 l 0
 338 144 l 0
 332.666666667 138.666666667 330.666666667 132.666666667 332 126 c 0
 334 119.333333333 340.666666667 115.333333333 352 114 c 0
 484 104 l 0
 484 0 l 0
 -92 0 l 0
 -92 104 l 0
 -82.6666666667 105.333333333 -72.6666666667 106.666666667 -62 108 c 0
 -51.3333333333 108.666666667 -42 109.666666667 -34 111 c 0
 -24.6666666667 112.333333333 -15.3333333333 113.333333333 -6 114 c 0
 2.66666666667 114.666666667 10 115 16 115 c 0
 22 115.666666667 27.6666666667 116.666666667 33 118 c 0
 37.6666666667 120 42 122.333333333 46 125 c 0
 50 128.333333333 54.6666666667 132.666666667 60 138 c 0
 581 713 l 0
 330 1269 l 0
 324.666666667 1280.33333333 318.666666667 1287 312 1289 c 0
 305.333333333 1291 294.333333333 1292.66666667 279 1294 c 0
 268.333333333 1294 257 1294.66666667 245 1296 c 0
 235.666666667 1296.66666667 224.333333333 1297.66666667 211 1299 c 0
 198.333333333 1300.33333333 186 1301.66666667 174 1303 c 0
 174 1407 l 0
 807 1407 l 0
 807 1303 l 0
 789.666666667 1301.66666667 773 1300.33333333 757 1299 c 0
 741 1297.66666667 726.333333333 1296.66666667 713 1296 c 0
 697 1295.33333333 682.333333333 1294.66666667 669 1294 c 0
 659.666666667 1294 651 1292 643 1288 c 0
 635.666666667 1283.33333333 634.666666667 1275 640 1263 c 0
 782 942 l 0
 1069 1263 l 0
 1074.33333333 1268.33333333 1077.66666667 1274.33333333 1079 1281 c 0
 1080.33333333 1287.66666667 1074.33333333 1291.33333333 1061 1292 c 0
 948 1303 l 0
 948 1407 l 0
 1510 1407 l 0
 1510 1303 l 0
 1380 1292 l 0
EndSplineSet
EndChar

StartChar: Y
Encoding: 60 89 60
Width: 1427
VWidth: 1024
Flags: HW
LayerCount: 2
Fore
SplineSet
1445 1292 m 0
 1437.66666667 1290.66666667 1430.33333333 1287.33333333 1423 1282 c 0
 1415.66666667 1276 1410.33333333 1271 1407 1267 c 0
 874 589 l 0
 786 146 l 0
 782.666666667 134 784.666666667 126.333333333 792 123 c 0
 798.666666667 119.666666667 809.333333333 117.333333333 824 116 c 0
 836 115.333333333 848.666666667 114.333333333 862 113 c 0
 873.333333333 111.666666667 886.333333333 110.333333333 901 109 c 0
 915 107.666666667 929.333333333 106 944 104 c 0
 944 0 l 0
 310 0 l 0
 310 104 l 0
 323.333333333 105.333333333 337.333333333 107 352 109 c 0
 366.666666667 110.333333333 379.666666667 111.666666667 391 113 c 0
 403.666666667 114.333333333 416.666666667 115.333333333 430 116 c 0
 443.333333333 117.333333333 454.666666667 119.666666667 464 123 c 0
 472.666666667 126.333333333 478.666666667 134.666666667 482 148 c 0
 568 572 l 0
 334 1269 l 0
 330.666666667 1280.33333333 324 1287 314 1289 c 0
 304.666666667 1291 293.666666667 1292.66666667 281 1294 c 0
 271 1294 259.666666667 1294.66666667 247 1296 c 0
 237 1296.66666667 225.333333333 1297.66666667 212 1299 c 0
 199.333333333 1300.33333333 187.333333333 1301.66666667 176 1303 c 0
 176 1407 l 0
 807 1407 l 0
 807 1303 l 0
 791 1301.66666667 775.333333333 1300.33333333 760 1299 c 0
 744.666666667 1297.66666667 731 1296.66666667 719 1296 c 0
 704.333333333 1294.66666667 690.666666667 1294 678 1294 c 0
 666.666666667 1294 656.666666667 1292 648 1288 c 0
 640 1283.33333333 638.666666667 1274.33333333 644 1261 c 0
 788 805 l 0
 1135 1263 l 0
 1139 1268.33333333 1139.66666667 1274.66666667 1137 1282 c 0
 1134.33333333 1289.33333333 1125 1293.33333333 1109 1294 c 0
 986 1303 l 0
 986 1407 l 0
 1579 1407 l 0
 1579 1303 l 0
 1445 1292 l 0
EndSplineSet
EndChar

StartChar: Z
Encoding: 61 90 61
Width: 1265
VWidth: 1024
Flags: HW
LayerCount: 2
Fore
SplineSet
1317 1303 m 0
 340 130 l 0
 856 130 l 0
 866 130 877.333333333 133 890 139 c 0
 902.666666667 145 910.666666667 152.666666667 914 162 c 0
 990 434 l 0
 1166 434 l 0
 1082 0 l 0
 -44 0 l 0
 -24 102 l 0
 950 1277 l 0
 514 1277 l 0
 503.333333333 1277 491.666666667 1274.66666667 479 1270 c 0
 466.333333333 1265.33333333 458.333333333 1258 455 1248 c 0
 388 1025 l 0
 212 1025 l 0
 288 1407 l 0
 1338 1407 l 0
 1317 1303 l 0
EndSplineSet
EndChar

StartChar: bracketleft
Encoding: 62 91 62
Width: 940
VWidth: 1024
Flags: HW
LayerCount: 2
Fore
SplineSet
1019 1359 m 0
 698 1359 l 0
 396 -156 l 0
 719 -156 l 0
 694 -276 l 0
 114 -276 l 0
 462 1485 l 0
 1044 1485 l 0
 1019 1359 l 0
EndSplineSet
EndChar

StartChar: backslash
Encoding: 63 92 63
Width: 1036
VWidth: 1024
Flags: HW
LayerCount: 2
Fore
SplineSet
872 -195 m 0
 0 1407 l 0
 164 1407 l 0
 1036 -195 l 0
 872 -195 l 0
EndSplineSet
EndChar

StartChar: bracketright
Encoding: 64 93 64
Width: 940
VWidth: 1024
Flags: HW
LayerCount: 2
Fore
SplineSet
497 -276 m 0
 -86 -276 l 0
 -60 -156 l 0
 262 -156 l 0
 562 1359 l 0
 239 1359 l 0
 264 1485 l 0
 845 1485 l 0
 497 -276 l 0
EndSplineSet
EndChar

StartChar: asciicircum
Encoding: 65 94 65
Width: 712
VWidth: 1024
Flags: HW
LayerCount: 2
Fore
SplineSet
791 578 m 0
 720 677 l 0
 609 578 l 0
 522 578 l 0
 674 757 l 0
 798 757 l 0
 879 578 l 0
 791 578 l 0
EndSplineSet
EndChar

StartChar: underscore
Encoding: 66 95 66
Width: 716
VWidth: 1024
Flags: HW
LayerCount: 2
Fore
SplineSet
550 -348 m 0
 -167 -348 l 0
 -133 -179 l 0
 584 -179 l 0
 550 -348 l 0
EndSplineSet
EndChar

StartChar: grave
Encoding: 67 96 67
Width: 888
VWidth: 1024
Flags: HW
LayerCount: 2
Fore
SplineSet
753 578 m 0
 583 670 l 0
 579 672 575.666666667 675 573 679 c 0
 569.666666667 682.333333333 567 686 565 690 c 0
 562.333333333 694 560.333333333 698.333333333 559 703 c 0
 557.666666667 707 557 710.666666667 557 714 c 0
 557 720 558 726.333333333 560 733 c 0
 562 739.666666667 565.333333333 745.666666667 570 751 c 0
 574.666666667 756.333333333 581 760.666666667 589 764 c 0
 597 767.333333333 606.333333333 769.333333333 617 770 c 0
 624.333333333 770 630.666666667 769.333333333 636 768 c 0
 641.333333333 766.666666667 646.666666667 765 652 763 c 0
 656.666666667 760.333333333 661.333333333 756.666666667 666 752 c 0
 670.666666667 748 676.333333333 742.666666667 683 736 c 0
 826 578 l 0
 753 578 l 0
EndSplineSet
EndChar

StartChar: a
Encoding: 68 97 68
Width: 1189
VWidth: 1024
Flags: HW
LayerCount: 2
Fore
SplineSet
1185 62 m 0
 1161 52.6666666667 1136 43 1110 33 c 0
 1084 23 1057 13.6666666667 1029 5 c 0
 1001.66666667 -3.66666666667 974.333333333 -11 947 -17 c 0
 919.666666667 -23 892.666666667 -26 866 -26 c 0
 821.333333333 -26 784.333333333 -17.6666666667 755 -1 c 0
 725 15.6666666667 703.333333333 39.3333333333 690 70 c 0
 671.333333333 58 651.666666667 46 631 34 c 0
 609.666666667 22.6666666667 587.333333333 12.6666666667 564 4 c 0
 540.666666667 -4.66666666667 517 -11.6666666667 493 -17 c 0
 468.333333333 -22.3333333333 443.333333333 -25.3333333333 418 -26 c 0
 374.666666667 -26 336 -20 302 -8 c 0
 268 3.33333333333 238 19 212 39 c 0
 186 59 164 82 146 108 c 0
 128 134 113 161 101 189 c 0
 89.6666666667 217 81.3333333333 245.666666667 76 275 c 0
 70.6666666667 304.333333333 68 332 68 358 c 0
 68 410 73.3333333333 463.333333333 84 518 c 0
 95.3333333333 572 113 624.666666667 137 676 c 0
 160.333333333 727.333333333 189.666666667 775.666666667 225 821 c 0
 260.333333333 866.333333333 302.333333333 906 351 940 c 0
 399.666666667 974 455 1000.33333333 517 1019 c 0
 579 1038.33333333 647.333333333 1048.33333333 722 1049 c 0
 752.666666667 1049 783.333333333 1044.66666667 814 1036 c 0
 844.666666667 1028 871.666666667 1017.66666667 895 1005 c 0
 910 1023 l 0
 1135 1023 l 0
 1131.66666667 1013 1127 1001.33333333 1121 988 c 0
 1113 969 1113 969 1105 950 c 0
 1099.66666667 938 1094.66666667 927 1090 917 c 0
 1085.33333333 907 1082.66666667 899.666666667 1082 895 c 0
 946 204 l 0
 946 188 946.666666667 174.666666667 948 164 c 0
 949.333333333 153.333333333 951.666666667 144.666666667 955 138 c 0
 959 131.333333333 965 126.666666667 973 124 c 0
 980.333333333 121.333333333 990 120 1002 120 c 0
 1004.66666667 120 1015 122 1033 126 c 0
 1050.33333333 130 1069.33333333 134.666666667 1090 140 c 0
 1110.66666667 145.333333333 1130.33333333 150.333333333 1149 155 c 0
 1177 162 1177 162 1185 164 c 0
 1185 62 l 0
786 826 m 0
 786.666666667 828.666666667 786.666666667 835.666666667 786 847 c 0
 784.666666667 857.666666667 782.666666667 869 780 881 c 0
 776.666666667 893 773 903.666666667 769 913 c 0
 764.333333333 922.333333333 759 927 753 927 c 0
 707.666666667 927 666.666666667 918.666666667 630 902 c 0
 593.333333333 885.333333333 560.666666667 863.333333333 532 836 c 0
 502.666666667 808 477.666666667 775.333333333 457 738 c 0
 435.666666667 701.333333333 418 662.333333333 404 621 c 0
 390 579.666666667 379.666666667 537.666666667 373 495 c 0
 366.333333333 451.666666667 362.666666667 410.333333333 362 371 c 0
 362 343 362.666666667 315 364 287 c 0
 365.333333333 259 369.333333333 233.333333333 376 210 c 0
 383.333333333 186.666666667 395.333333333 168 412 154 c 0
 428.666666667 139.333333333 452.666666667 132 484 132 c 0
 506.666666667 132 528 137 548 147 c 0
 568 157 586.666666667 169 604 183 c 0
 620.666666667 196.333333333 635.333333333 209.666666667 648 223 c 0
 660.666666667 236.333333333 670.666666667 246.666666667 678 254 c 0
 682.666666667 282 686.666666667 303.666666667 690 319 c 0
 693.333333333 334.333333333 696 349 698 363 c 0
 700.666666667 377 703.666666667 393 707 411 c 0
 710.333333333 429 715 454.333333333 721 487 c 0
 727.666666667 520.333333333 736 563.666666667 746 617 c 0
 756 670.333333333 769.333333333 740 786 826 c 0
EndSplineSet
EndChar

StartChar: b
Encoding: 69 98 69
Width: 1116
VWidth: 1024
Flags: HW
LayerCount: 2
Fore
SplineSet
1051 652 m 0
 1051 610.666666667 1046.33333333 565 1037 515 c 0
 1028.33333333 465 1013.66666667 415 993 365 c 0
 972.333333333 315 946 266.666666667 914 220 c 0
 881.333333333 173.333333333 841.666666667 131.666666667 795 95 c 0
 748.333333333 58.3333333333 693.666666667 29 631 7 c 0
 568.333333333 -15 497.333333333 -26 418 -26 c 0
 341.333333333 -26 271.333333333 -16.3333333333 208 3 c 0
 144.666666667 21.6666666667 88 47.3333333333 38 80 c 0
 283 1386 l 0
 98 1403 l 0
 98 1479 l 0
 453 1545 l 0
 596 1545 l 0
 486 981 l 0
 524 1001 563.333333333 1017.33333333 604 1030 c 0
 644 1042.66666667 682.333333333 1049 719 1049 c 0
 775 1049 823.666666667 1036.33333333 865 1011 c 0
 906.333333333 986.333333333 941 954.666666667 969 916 c 0
 996.333333333 878 1017 835.333333333 1031 788 c 0
 1044.33333333 741.333333333 1051 696 1051 652 c 0
759 644 m 0
 759 688 755.666666667 725.333333333 749 756 c 0
 742.333333333 787.333333333 733.333333333 813 722 833 c 0
 711.333333333 853 700 867.333333333 688 876 c 0
 675.333333333 884.666666667 662.666666667 889 650 889 c 0
 620.666666667 889 588 879.666666667 552 861 c 0
 516 842.333333333 482.333333333 819.666666667 451 793 c 0
 334 166 l 0
 344.666666667 148 360.333333333 131.333333333 381 116 c 0
 401.666666667 100 428.666666667 92 462 92 c 0
 485.333333333 92 508.666666667 99.6666666667 532 115 c 0
 555.333333333 130.333333333 578 151.333333333 600 178 c 0
 622 204 642.666666667 234.666666667 662 270 c 0
 681.333333333 305.333333333 698.333333333 343.666666667 713 385 c 0
 727.666666667 425.666666667 738.666666667 468.333333333 746 513 c 0
 754.666666667 556.333333333 759 600 759 644 c 0
EndSplineSet
EndChar

StartChar: c
Encoding: 70 99 70
Width: 1007
VWidth: 1024
Flags: HW
LayerCount: 2
Fore
SplineSet
944 893 m 0
 944 881 941 865.666666667 935 847 c 0
 929 828.333333333 918.333333333 810.666666667 903 794 c 0
 887.666666667 776.666666667 867 762 841 750 c 0
 815 738 782 732 742 732 c 0
 627 895 l 0
 587.666666667 886.333333333 553.333333333 870 524 846 c 0
 495.333333333 822 471.333333333 794 452 762 c 0
 432 730 415.666666667 695.333333333 403 658 c 0
 390.333333333 621.333333333 380.666666667 586 374 552 c 0
 367.333333333 518 362.666666667 487 360 459 c 0
 357.333333333 431.666666667 356 410.666666667 356 396 c 0
 356 364 357.333333333 332.333333333 360 301 c 0
 362.666666667 269 369 240.333333333 379 215 c 0
 389 189.666666667 403.666666667 169.333333333 423 154 c 0
 442.333333333 138 469.333333333 130 504 130 c 0
 530 130 556.333333333 133.666666667 583 141 c 0
 609.666666667 148.333333333 638.333333333 162.333333333 669 183 c 0
 700.333333333 203.666666667 734.666666667 232 772 268 c 0
 809.333333333 304 851.333333333 350.333333333 898 407 c 0
 898 198 l 0
 869.333333333 164 838.666666667 133 806 105 c 0
 773.333333333 77.6666666667 738 54.3333333333 700 35 c 0
 662 15.6666666667 621.333333333 0.666666666667 578 -10 c 0
 534.666666667 -20.6666666667 488 -26 438 -26 c 0
 374 -26 318.666666667 -16.3333333333 272 3 c 0
 225.333333333 22.3333333333 187.333333333 49.3333333333 158 84 c 0
 128 118.666666667 105.666666667 160.666666667 91 210 c 0
 76.3333333333 259.333333333 69.3333333333 314 70 374 c 0
 70 464.666666667 84 550.666666667 112 632 c 0
 140 713.333333333 181.333333333 785 236 847 c 0
 290 909 356.333333333 958 435 994 c 0
 513 1030 602 1048.33333333 702 1049 c 0
 743.333333333 1049 779.333333333 1044 810 1034 c 0
 840.666666667 1024 866 1011.33333333 886 996 c 0
 906 980.666666667 920.666666667 964 930 946 c 0
 939.333333333 928 944 910.333333333 944 893 c 0
EndSplineSet
EndChar

StartChar: d
Encoding: 71 100 71
Width: 1185
VWidth: 1024
Flags: HW
LayerCount: 2
Fore
SplineSet
954 188 m 0
 950.666666667 170.666666667 950 156.666666667 952 146 c 0
 954 134.666666667 956.666666667 125.666666667 960 119 c 0
 964 112.333333333 968.666666667 108 974 106 c 0
 979.333333333 103.333333333 984 102 988 102 c 0
 1002.66666667 102 1018.66666667 104.333333333 1036 109 c 0
 1054 113.666666667 1072 119 1090 125 c 0
 1108 131.666666667 1125 138.666666667 1141 146 c 0
 1157 153.333333333 1171 160 1183 166 c 0
 1183 62 l 0
 1165 52 1143.33333333 41.6666666667 1118 31 c 0
 1092.66666667 20.3333333333 1065.66666667 11 1037 3 c 0
 1008.33333333 -5.66666666667 979.333333333 -12.6666666667 950 -18 c 0
 920 -23.3333333333 891.333333333 -26 864 -26 c 0
 810.666666667 -26 768.666666667 -17 738 1 c 0
 707.333333333 19 686.333333333 44 675 76 c 0
 656.333333333 61.3333333333 636.333333333 48 615 36 c 0
 593.666666667 24 571.333333333 13.3333333333 548 4 c 0
 525.333333333 -5.33333333333 502.333333333 -12.6666666667 479 -18 c 0
 455.666666667 -23.3333333333 433 -26 411 -26 c 0
 350.333333333 -26 298 -14.6666666667 254 8 c 0
 210.666666667 30.6666666667 175.333333333 60.3333333333 148 97 c 0
 120.666666667 133.666666667 100.333333333 174.333333333 87 219 c 0
 74.3333333333 264.333333333 68 309.333333333 68 354 c 0
 68 407.333333333 73.6666666667 461.666666667 85 517 c 0
 96.3333333333 572.333333333 114 625.666666667 138 677 c 0
 161.333333333 728.333333333 190.666666667 776.666666667 226 822 c 0
 261.333333333 867.333333333 302.333333333 906.666666667 349 940 c 0
 396.333333333 973.333333333 449.333333333 999.666666667 508 1019 c 0
 567.333333333 1038.33333333 632 1048.33333333 702 1049 c 0
 728 1049 751.666666667 1045.66666667 773 1039 c 0
 793.666666667 1033 810.666666667 1027.66666667 824 1023 c 0
 887 1386 l 0
 698 1403 l 0
 698 1479 l 0
 1053 1545 l 0
 1195 1545 l 0
 954 188 l 0
788 826 m 0
 788.666666667 828.666666667 786.666666667 835.666666667 782 847 c 0
 777.333333333 857.666666667 771 869.333333333 763 882 c 0
 755 894 745.333333333 904.666666667 734 914 c 0
 722.666666667 923.333333333 710.666666667 928.333333333 698 929 c 0
 661.333333333 929 623 915.333333333 583 888 c 0
 543 860.666666667 506.333333333 822.333333333 473 773 c 0
 439 723.666666667 411 664.333333333 389 595 c 0
 367 526.333333333 356 450.333333333 356 367 c 0
 356 282.333333333 366.333333333 220.666666667 387 182 c 0
 407.666666667 143.333333333 437.333333333 124 476 124 c 0
 494 124 512 128.333333333 530 137 c 0
 548 145.666666667 566 157.666666667 584 173 c 0
 602 188.333333333 620 205.333333333 638 224 c 0
 656 242.666666667 674 262.333333333 692 283 c 0
 788 826 l 0
EndSplineSet
EndChar

StartChar: e
Encoding: 72 101 72
Width: 1005
VWidth: 1024
Flags: HW
LayerCount: 2
Fore
SplineSet
971 828 m 0
 971 791.333333333 962.666666667 757.333333333 946 726 c 0
 929.333333333 694.666666667 906.333333333 666 877 640 c 0
 847.666666667 614 813.333333333 590.666666667 774 570 c 0
 734.666666667 549.333333333 692.666666667 531.333333333 648 516 c 0
 603.333333333 500.666666667 556.666666667 488.333333333 508 479 c 0
 460 469.666666667 413 463.333333333 367 460 c 0
 365.666666667 447.333333333 364 432.666666667 362 416 c 0
 360.666666667 399.333333333 360 385.333333333 360 374 c 0
 360 338 363 304.333333333 369 273 c 0
 374.333333333 242.333333333 383 216 395 194 c 0
 407 171.333333333 423.333333333 153.666666667 444 141 c 0
 464 128.333333333 488.666666667 122 518 122 c 0
 540.666666667 122 563.666666667 126.333333333 587 135 c 0
 610.333333333 143.666666667 637.333333333 158.666666667 668 180 c 0
 698.666666667 200.666666667 734.333333333 228 775 262 c 0
 815.666666667 296 865 338 923 388 c 0
 923 188 l 0
 902.333333333 168 875.666666667 145.666666667 843 121 c 0
 810.333333333 96.3333333333 773 73 731 51 c 0
 689.666666667 29 645 10.6666666667 597 -4 c 0
 549 -18.6666666667 499.666666667 -26 449 -26 c 0
 403 -26 357.333333333 -20 312 -8 c 0
 266.666666667 3.33333333333 226.333333333 23.6666666667 191 53 c 0
 155 82.3333333333 125.666666667 122.333333333 103 173 c 0
 80.3333333333 223 69.3333333333 287 70 365 c 0
 70 418.333333333 76.6666666667 472 90 526 c 0
 103.333333333 580.666666667 122 633.333333333 146 684 c 0
 170.666666667 734.666666667 201 782 237 826 c 0
 272.333333333 870.666666667 312.333333333 909.333333333 357 942 c 0
 401.666666667 974.666666667 450.666666667 1000.66666667 504 1020 c 0
 557.333333333 1039.33333333 613.666666667 1049 673 1049 c 0
 724.333333333 1049 768.666666667 1040.33333333 806 1023 c 0
 843.333333333 1005.66666667 874.333333333 985.333333333 899 962 c 0
 923.666666667 938.666666667 941.666666667 914.333333333 953 889 c 0
 965 864.333333333 971 844 971 828 c 0
698 830 m 0
 698 842 697.333333333 854.333333333 696 867 c 0
 694 879 690.666666667 889.666666667 686 899 c 0
 680.666666667 908.333333333 673 916 663 922 c 0
 653 928 640.333333333 931 625 931 c 0
 592.333333333 931 563 919.333333333 537 896 c 0
 511.666666667 872.666666667 489 843 469 807 c 0
 449 771 432 732 418 690 c 0
 403.333333333 647.333333333 391.333333333 606.666666667 382 568 c 0
 418 576 455 588.333333333 493 605 c 0
 530.333333333 621.666666667 564 641.333333333 594 664 c 0
 624.666666667 686.666666667 649.666666667 712 669 740 c 0
 688.333333333 768 698 798 698 830 c 0
EndSplineSet
EndChar

StartChar: f
Encoding: 73 102 73
Width: 757
VWidth: 1024
Flags: HW
LayerCount: 2
Fore
SplineSet
1011 1405 m 0
 1011 1389 1008.66666667 1373.33333333 1004 1358 c 0
 999.333333333 1342.66666667 990 1328.66666667 976 1316 c 0
 962.666666667 1303.33333333 944.333333333 1291.66666667 921 1281 c 0
 897.666666667 1271 867.333333333 1263.33333333 830 1258 c 0
 700 1382 l 0
 671.333333333 1356.66666667 648.333333333 1325.33333333 631 1288 c 0
 613.666666667 1250.66666667 600 1212 590 1172 c 0
 580 1132 572.333333333 1093.33333333 567 1056 c 0
 562.333333333 1018.66666667 558 987.666666667 554 963 c 0
 810 963 l 0
 810 839 l 0
 532 839 l 0
 529.333333333 819 525.333333333 789.333333333 520 750 c 0
 514.666666667 710.666666667 508.333333333 666 501 616 c 0
 493.666666667 566 486 513 478 457 c 0
 469.333333333 401 461 347 453 295 c 0
 445 243 437 195.333333333 429 152 c 0
 421.666666667 108.666666667 415 74.6666666667 409 50 c 0
 400.333333333 13.3333333333 387.666666667 -25.3333333333 371 -66 c 0
 354.333333333 -106.666666667 334.333333333 -146.666666667 311 -186 c 0
 287.666666667 -225.333333333 261.666666667 -262.666666667 233 -298 c 0
 203.666666667 -333.333333333 172 -364.666666667 138 -392 c 0
 103.333333333 -418.666666667 66.3333333333 -440 27 -456 c 0
 -12.3333333333 -472 -54 -480 -98 -480 c 0
 -128 -480 -154 -474.666666667 -176 -464 c 0
 -198 -453.333333333 -216 -440.666666667 -230 -426 c 0
 -244.666666667 -410.666666667 -255.333333333 -394.666666667 -262 -378 c 0
 -268.666666667 -360.666666667 -272 -346 -272 -334 c 0
 -272 -306 -263.333333333 -278 -246 -250 c 0
 -228 -222 -204.666666667 -198 -176 -178 c 0
 12 -298 l 0
 28.6666666667 -274.666666667 43.6666666667 -247.666666667 57 -217 c 0
 70.3333333333 -185.666666667 83 -151.333333333 95 -114 c 0
 106.333333333 -76.6666666667 116.666666667 -37 126 5 c 0
 136 47 145.333333333 90 154 134 c 0
 172 230.666666667 187.666666667 338 201 456 c 0
 215 573.333333333 232 699 252 833 c 0
 92 816 l 0
 96 914 l 0
 276 977 l 0
 282.666666667 1011.66666667 292 1049.66666667 304 1091 c 0
 315.333333333 1132.33333333 330.333333333 1174.33333333 349 1217 c 0
 367.666666667 1259 389.666666667 1299.66666667 415 1339 c 0
 440.333333333 1378.33333333 470.333333333 1413.33333333 505 1444 c 0
 539.666666667 1474.66666667 579.333333333 1499.33333333 624 1518 c 0
 668.666666667 1536.66666667 719.333333333 1545.66666667 776 1545 c 0
 814.666666667 1545 848.666666667 1540.33333333 878 1531 c 0
 907.333333333 1521.66666667 931.666666667 1510 951 1496 c 0
 971 1482 986 1466.66666667 996 1450 c 0
 1006 1433.33333333 1011 1418.33333333 1011 1405 c 0
EndSplineSet
EndChar

StartChar: g
Encoding: 74 103 74
Width: 1017
VWidth: 1024
Flags: HW
LayerCount: 2
Fore
SplineSet
925 874 m 0
 931 858 936.333333333 839 941 817 c 0
 945.666666667 794.333333333 948 770 948 744 c 0
 948 692 938 641.666666667 918 593 c 0
 898 543.666666667 868.333333333 500 829 462 c 0
 789.666666667 424 741 393.333333333 683 370 c 0
 625 346.666666667 558 334.666666667 482 334 c 0
 474.666666667 314 469.333333333 294 466 274 c 0
 462.666666667 254 462 238 464 226 c 0
 742 100 l 0
 775.333333333 85.3333333333 806 71 834 57 c 0
 861.333333333 42.3333333333 884.666666667 26 904 8 c 0
 923.333333333 -10 938.333333333 -30 949 -52 c 0
 959.666666667 -74.6666666667 965 -101.333333333 965 -132 c 0
 965 -176.666666667 949.666666667 -219.666666667 919 -261 c 0
 888.333333333 -302.333333333 846.666666667 -339.333333333 794 -372 c 0
 741.333333333 -404.666666667 680 -431 610 -451 c 0
 540 -471 465.333333333 -480.666666667 386 -480 c 0
 302.666666667 -480 232.666666667 -470.666666667 176 -452 c 0
 118.666666667 -433.333333333 72 -409 36 -379 c 0
 0 -349 -25.6666666667 -315.666666667 -41 -279 c 0
 -57 -241.666666667 -65 -204 -65 -166 c 0
 -65 -130.666666667 -57.6666666667 -98 -43 -68 c 0
 -28.3333333333 -38 -8.66666666667 -10.6666666667 16 14 c 0
 41.3333333333 38.6666666667 71 60.3333333333 105 79 c 0
 139 97.6666666667 176 114 216 128 c 0
 213.333333333 144.666666667 213.666666667 163.333333333 217 184 c 0
 220.333333333 204.666666667 225.333333333 225.666666667 232 247 c 0
 239.333333333 268.333333333 248.333333333 289 259 309 c 0
 269.666666667 329 282 346 296 360 c 0
 268 372.666666667 242.333333333 387.666666667 219 405 c 0
 195.666666667 421.666666667 175 440.666666667 157 462 c 0
 139.666666667 483.333333333 126.333333333 507.333333333 117 534 c 0
 107.666666667 560.666666667 102.666666667 590.333333333 102 623 c 0
 102 655.666666667 106.333333333 688.666666667 115 722 c 0
 123 756 135.666666667 788.666666667 153 820 c 0
 170.333333333 851.333333333 191.666666667 881 217 909 c 0
 242.333333333 936.333333333 272.666666667 960.666666667 308 982 c 0
 343.333333333 1002.66666667 383 1019 427 1031 c 0
 471.666666667 1043 520.666666667 1049 574 1049 c 0
 600.666666667 1049 626.333333333 1047 651 1043 c 0
 675 1039 697.333333333 1034.33333333 718 1029 c 0
 738.666666667 1023 757 1017 773 1011 c 0
 789 1005 802 1000 812 996 c 0
 1118 996 l 0
 1118 874 l 0
 925 874 l 0
658 755 m 0
 658 779.666666667 657.666666667 803 657 825 c 0
 656.333333333 847.666666667 653.666666667 867.666666667 649 885 c 0
 643.666666667 902.333333333 635.666666667 915.666666667 625 925 c 0
 614.333333333 935 599 940 579 940 c 0
 567.666666667 940 551.333333333 931.666666667 530 915 c 0
 509.333333333 898.333333333 488.666666667 875.333333333 468 846 c 0
 447.333333333 816 429.666666667 780 415 738 c 0
 399.666666667 696 392 649.333333333 392 598 c 0
 392 573.333333333 393 551 395 531 c 0
 397 511 400.333333333 493.666666667 405 479 c 0
 410.333333333 464.333333333 418 452.666666667 428 444 c 0
 438 436 452 432 470 432 c 0
 504.666666667 432 534 442.666666667 558 464 c 0
 582 485.333333333 601.333333333 512.333333333 616 545 c 0
 630.666666667 577.666666667 641.333333333 612.666666667 648 650 c 0
 654.666666667 688 658 723 658 755 c 0
682 -174 m 0
 682 -150 674.333333333 -127.333333333 659 -106 c 0
 643.666666667 -84.6666666667 617 -65.3333333333 579 -48 c 0
 344 54 l 0
 320.666666667 45.3333333333 301.333333333 34.6666666667 286 22 c 0
 270 9.33333333333 257 -5.33333333333 247 -22 c 0
 237 -38 230 -55.3333333333 226 -74 c 0
 222 -92.6666666667 220 -111.333333333 220 -130 c 0
 220 -152.666666667 223.333333333 -177.333333333 230 -204 c 0
 236.666666667 -230.666666667 248.666666667 -256 266 -280 c 0
 282.666666667 -303.333333333 305 -323 333 -339 c 0
 361 -355 396.666666667 -362.666666667 440 -362 c 0
 488 -362 527.666666667 -355.333333333 559 -342 c 0
 590.333333333 -328.666666667 615 -312 633 -292 c 0
 651.666666667 -272.666666667 664.333333333 -252.333333333 671 -231 c 0
 678.333333333 -209.666666667 682 -190.666666667 682 -174 c 0
EndSplineSet
EndChar

StartChar: h
Encoding: 75 104 75
Width: 1183
VWidth: 1024
Flags: HW
LayerCount: 2
Fore
SplineSet
1181 58 m 0
 1128.33333333 32.6666666667 1075 12.3333333333 1021 -3 c 0
 967.666666667 -18.3333333333 913.333333333 -26 858 -26 c 0
 833.333333333 -26 808.333333333 -23.3333333333 783 -18 c 0
 757.666666667 -12.6666666667 735 -4.33333333333 715 7 c 0
 695 18.3333333333 680 33.6666666667 670 53 c 0
 660 71.6666666667 657.666666667 94.6666666667 663 122 c 0
 788 732 l 0
 793.333333333 757.333333333 794.666666667 779.666666667 792 799 c 0
 788.666666667 818.333333333 783.333333333 834.666666667 776 848 c 0
 768.666666667 861.333333333 759.666666667 871.666666667 749 879 c 0
 738.333333333 885.666666667 727.666666667 889 717 889 c 0
 701 889 683.333333333 885 664 877 c 0
 644 869 623 858 601 844 c 0
 579 830 556.666666667 813.666666667 534 795 c 0
 511.333333333 776.333333333 489.333333333 756 468 734 c 0
 314 0 l 0
 36 0 l 0
 325 1386 l 0
 140 1403 l 0
 140 1479 l 0
 495 1545 l 0
 640 1545 l 0
 514 952 l 0
 556 978 604 1000.66666667 658 1020 c 0
 712 1039.33333333 770.333333333 1049 833 1049 c 0
 885.666666667 1049 929.333333333 1041.66666667 964 1027 c 0
 998.666666667 1012.33333333 1025.66666667 992.333333333 1045 967 c 0
 1064.33333333 941 1076.33333333 909.666666667 1081 873 c 0
 1085.66666667 836.333333333 1083.33333333 796.333333333 1074 753 c 0
 956 198 l 0
 952.666666667 180 952.333333333 165.333333333 955 154 c 0
 957.666666667 142.666666667 961.666666667 133 967 125 c 0
 972.333333333 117.666666667 978.333333333 112.333333333 985 109 c 0
 991.666666667 105.666666667 998.333333333 104 1005 104 c 0
 1035.66666667 104 1064.33333333 109.666666667 1091 121 c 0
 1117.66666667 131.666666667 1147 146 1179 164 c 0
 1181 58 l 0
EndSplineSet
EndChar

StartChar: i
Encoding: 76 105 76
Width: 649
VWidth: 1024
Flags: HW
LayerCount: 2
Fore
SplineSet
618 1391 m 0
 618 1368.33333333 614 1347 606 1327 c 0
 597.333333333 1307 585.333333333 1289.66666667 570 1275 c 0
 554.666666667 1259.66666667 537.333333333 1248 518 1240 c 0
 498 1231.33333333 477 1227 455 1227 c 0
 432.333333333 1227 411.333333333 1231.33333333 392 1240 c 0
 372.666666667 1248.66666667 355.333333333 1260.33333333 340 1275 c 0
 325.333333333 1290.33333333 314 1307.66666667 306 1327 c 0
 298 1347 294 1368.33333333 294 1391 c 0
 294 1413.66666667 298 1434.66666667 306 1454 c 0
 314 1474 325.333333333 1491 340 1505 c 0
 354.666666667 1519.66666667 372 1531.33333333 392 1540 c 0
 411.333333333 1548.66666667 432.333333333 1552.66666667 455 1552 c 0
 477.666666667 1552 498.666666667 1548 518 1540 c 0
 538 1531.33333333 555.333333333 1519.66666667 570 1505 c 0
 585.333333333 1490.33333333 597.333333333 1473.33333333 606 1454 c 0
 614 1434.66666667 618 1413.66666667 618 1391 c 0
646 68 m 0
 583.333333333 34 523.666666667 9.66666666667 467 -5 c 0
 410.333333333 -19 352 -26 292 -26 c 0
 254 -26 221.666666667 -19.3333333333 195 -6 c 0
 169 6.66666666667 148.333333333 23.3333333333 133 44 c 0
 117.666666667 64.6666666667 107.666666667 87.6666666667 103 113 c 0
 98.3333333333 138.333333333 98.6666666667 164 104 190 c 0
 237 887 l 0
 56 906 l 0
 56 979 l 0
 402 1049 l 0
 550 1049 l 0
 388 208 l 0
 385.333333333 196 383.666666667 184 383 172 c 0
 382.333333333 160.666666667 383.333333333 150.333333333 386 141 c 0
 388.666666667 132.333333333 393 125.333333333 399 120 c 0
 405.666666667 114.666666667 415.333333333 112 428 112 c 0
 433.333333333 112 444 113.666666667 460 117 c 0
 476 120.333333333 494.666666667 125 516 131 c 0
 537.333333333 137 559.333333333 144.666666667 582 154 c 0
 604.666666667 162.666666667 626 172 646 182 c 0
 646 68 l 0
EndSplineSet
EndChar

StartChar: j
Encoding: 77 106 77
Width: 665
VWidth: 1024
Flags: HW
LayerCount: 2
Fore
SplineSet
652 1391 m 0
 652 1368.33333333 647.666666667 1347 639 1327 c 0
 630.333333333 1307 618.333333333 1289.66666667 603 1275 c 0
 587.666666667 1259.66666667 570 1248 550 1240 c 0
 530 1231.33333333 508.666666667 1227 486 1227 c 0
 463.333333333 1227 442.333333333 1231.33333333 423 1240 c 0
 403 1248.66666667 386 1260.33333333 372 1275 c 0
 357.333333333 1290.33333333 345.666666667 1307.66666667 337 1327 c 0
 328.333333333 1347 324.333333333 1368.33333333 325 1391 c 0
 325 1413.66666667 329 1434.66666667 337 1454 c 0
 345.666666667 1474 357.333333333 1491 372 1505 c 0
 386.666666667 1519.66666667 403.666666667 1531.33333333 423 1540 c 0
 443 1548.66666667 464 1552.66666667 486 1552 c 0
 508.666666667 1552 530 1548 550 1540 c 0
 570 1531.33333333 587.666666667 1519.66666667 603 1505 c 0
 618.333333333 1490.33333333 630.333333333 1473.33333333 639 1454 c 0
 647.666666667 1434.66666667 652 1413.66666667 652 1391 c 0
428 176 m 0
 422 140.666666667 411.666666667 100 397 54 c 0
 382.333333333 8 364 -39.3333333333 342 -88 c 0
 320 -136.666666667 294 -184.333333333 264 -231 c 0
 234.666666667 -278.333333333 202 -320.333333333 166 -357 c 0
 130 -393.666666667 90.6666666667 -423.333333333 48 -446 c 0
 6 -468.666666667 -39.3333333333 -480 -88 -480 c 0
 -112.666666667 -480 -136 -477 -158 -471 c 0
 -180 -465 -199.333333333 -456.333333333 -216 -445 c 0
 -232.666666667 -434.333333333 -245.666666667 -421.666666667 -255 -407 c 0
 -265 -392.333333333 -270 -376 -270 -358 c 0
 -270 -345.333333333 -268 -333.666666667 -264 -323 c 0
 -259.333333333 -312.333333333 -253 -302.666666667 -245 -294 c 0
 -237 -285.333333333 -228 -277 -218 -269 c 0
 -208 -261 -196.666666667 -253.333333333 -184 -246 c 0
 14 -298 l 0
 23.3333333333 -282.666666667 33.3333333333 -264.333333333 44 -243 c 0
 54 -221 63.3333333333 -197.333333333 72 -172 c 0
 81.3333333333 -146.666666667 89.6666666667 -120 97 -92 c 0
 104.333333333 -64.6666666667 110.666666667 -38 116 -12 c 0
 270 885 l 0
 90 904 l 0
 90 979 l 0
 438 1049 l 0
 577 1049 l 0
 428 176 l 0
EndSplineSet
EndChar

StartChar: k
Encoding: 78 107 78
Width: 1153
VWidth: 1024
Flags: HW
LayerCount: 2
Fore
SplineSet
1128 54 m 0
 1110 45.3333333333 1089 36.3333333333 1065 27 c 0
 1040.33333333 17.6666666667 1014.33333333 9 987 1 c 0
 959.666666667 -6.33333333333 932 -12.6666666667 904 -18 c 0
 876 -23.3333333333 850 -26 826 -26 c 0
 806.666666667 -26 787.333333333 -22.3333333333 768 -15 c 0
 748 -8.33333333333 729 0.333333333333 711 11 c 0
 692.333333333 21.6666666667 675.333333333 34 660 48 c 0
 644.666666667 61.3333333333 632.333333333 75.3333333333 623 90 c 0
 611.666666667 108 597.666666667 132.666666667 581 164 c 0
 565 195.333333333 548.333333333 229 531 265 c 0
 513.666666667 301 497 337 481 373 c 0
 464.333333333 409 449.333333333 441.333333333 436 470 c 0
 392 430 l 0
 304 0 l 0
 26 0 l 0
 306 1386 l 0
 122 1403 l 0
 122 1479 l 0
 476 1545 l 0
 618 1545 l 0
 442 684 l 0
 678 925 l 0
 721.333333333 970.333333333 762 1002 800 1020 c 0
 838 1038.66666667 877.666666667 1048.33333333 919 1049 c 0
 944.333333333 1049 967.666666667 1045.33333333 989 1038 c 0
 1011 1030.66666667 1030 1021 1046 1009 c 0
 1062 997 1074.33333333 984 1083 970 c 0
 1091.66666667 955.333333333 1096.33333333 941 1097 927 c 0
 1097 915 1095.33333333 900 1092 882 c 0
 1088.66666667 864 1081.33333333 845.666666667 1070 827 c 0
 1058.66666667 808.333333333 1041.33333333 790 1018 772 c 0
 994.666666667 754 963 738 923 724 c 0
 839 860 l 0
 822.333333333 845.333333333 804.333333333 829.333333333 785 812 c 0
 765.666666667 794 747 775.666666667 729 757 c 0
 710.333333333 739 692 721.666666667 674 705 c 0
 656.666666667 688.333333333 641.666666667 674.333333333 629 663 c 0
 638.333333333 645 648.666666667 622.333333333 660 595 c 0
 671.333333333 567.666666667 683.333333333 538.333333333 696 507 c 0
 708.666666667 475.666666667 722 443.666666667 736 411 c 0
 750 378.333333333 764.666666667 347.333333333 780 318 c 0
 795.333333333 290.666666667 809.666666667 264.666666667 823 240 c 0
 836.333333333 214.666666667 850 192 864 172 c 0
 877.333333333 152 891.666666667 136 907 124 c 0
 922.333333333 112 938.666666667 106 956 106 c 0
 957.333333333 106 971.666666667 110 999 118 c 0
 1025.66666667 126 1068.66666667 142 1128 166 c 0
 1128 54 l 0
EndSplineSet
EndChar

StartChar: l
Encoding: 79 108 79
Width: 641
VWidth: 1024
Flags: HW
LayerCount: 2
Fore
SplineSet
638 60 m 0
 586.666666667 34 531.666666667 13.3333333333 473 -2 c 0
 413.666666667 -18 356.666666667 -26 302 -26 c 0
 232.666666667 -26 178.666666667 -11.3333333333 140 18 c 0
 101.333333333 47.3333333333 82 86 82 134 c 0
 82 145.333333333 82.3333333333 157.333333333 83 170 c 0
 84.3333333333 182.666666667 86.6666666667 196 90 210 c 0
 318 1386 l 0
 134 1403 l 0
 134 1479 l 0
 488 1545 l 0
 627 1545 l 0
 369 214 l 0
 367 202 366 190 366 178 c 0
 366.666666667 166 369 155 373 145 c 0
 377 135 383 127 391 121 c 0
 399 115 410 112 424 112 c 0
 440.666666667 112 468 116.666666667 506 126 c 0
 544 136 588 152 638 174 c 0
 638 60 l 0
EndSplineSet
EndChar

StartChar: m
Encoding: 80 109 80
Width: 1732
VWidth: 1024
Flags: HW
LayerCount: 2
Fore
SplineSet
1726 60 m 0
 1672.66666667 32.6666666667 1621.33333333 11.6666666667 1572 -3 c 0
 1522.66666667 -18.3333333333 1471 -26 1417 -26 c 0
 1385 -26 1355.33333333 -22.6666666667 1328 -16 c 0
 1300.66666667 -9.33333333333 1276.66666667 0.666666666667 1256 14 c 0
 1236 27.3333333333 1221.33333333 43.3333333333 1212 62 c 0
 1202.66666667 81.3333333333 1200.66666667 104 1206 130 c 0
 1321 688 l 0
 1349 819.333333333 1335.66666667 885 1281 885 c 0
 1250.33333333 885 1221.33333333 878.333333333 1194 865 c 0
 1167.33333333 851.666666667 1143.66666667 835.666666667 1123 817 c 0
 1102.33333333 798.333333333 1084.33333333 779.666666667 1069 761 c 0
 1053.66666667 741.666666667 1042.66666667 726.333333333 1036 715 c 0
 885 0 l 0
 608 0 l 0
 753 690 l 0
 757 710.666666667 760.666666667 732.333333333 764 755 c 0
 768 777.666666667 769 798.666666667 767 818 c 0
 765 837.333333333 759.666666667 853.333333333 751 866 c 0
 741.666666667 878.666666667 725.333333333 885 702 885 c 0
 680 885 658 879 636 867 c 0
 613.333333333 855 591.666666667 840 571 822 c 0
 550.333333333 804 531.333333333 785 514 765 c 0
 496 745 480 727 466 711 c 0
 316 0 l 0
 38 0 l 0
 222 891 l 0
 46 908 l 0
 46 979 l 0
 392 1049 l 0
 537 1049 l 0
 512 929 l 0
 562.666666667 963.666666667 614.666666667 992.333333333 668 1015 c 0
 721.333333333 1037.66666667 772 1049 820 1049 c 0
 848.666666667 1049 874.666666667 1044.66666667 898 1036 c 0
 920.666666667 1028 940.666666667 1017.33333333 958 1004 c 0
 976 990.666666667 991.333333333 975.333333333 1004 958 c 0
 1016 940.666666667 1026 923.333333333 1034 906 c 0
 1061.33333333 926.666666667 1090.33333333 945.666666667 1121 963 c 0
 1151.66666667 980.333333333 1182.66666667 995.333333333 1214 1008 c 0
 1245.33333333 1020.66666667 1276.66666667 1030.66666667 1308 1038 c 0
 1338.66666667 1045.33333333 1367.66666667 1049 1395 1049 c 0
 1431.66666667 1049 1465.66666667 1042.33333333 1497 1029 c 0
 1528.33333333 1016.33333333 1554.66666667 998 1576 974 c 0
 1597.33333333 950 1612 921 1620 887 c 0
 1628 853 1627.66666667 815.333333333 1619 774 c 0
 1499 210 l 0
 1493 180 1493.66666667 155 1501 135 c 0
 1508.33333333 115 1525.33333333 104.666666667 1552 104 c 0
 1558.66666667 104 1569 105.666666667 1583 109 c 0
 1596.33333333 111.666666667 1611.33333333 115.333333333 1628 120 c 0
 1644.66666667 124.666666667 1661.33333333 130.333333333 1678 137 c 0
 1695.33333333 143.666666667 1711.33333333 150.666666667 1726 158 c 0
 1726 60 l 0
EndSplineSet
EndChar

StartChar: n
Encoding: 81 110 81
Width: 1212
VWidth: 1024
Flags: HW
LayerCount: 2
Fore
SplineSet
1204 48 m 0
 1185.33333333 39.3333333333 1162.66666667 30.6666666667 1136 22 c 0
 1108.66666667 13.3333333333 1079.66666667 5.33333333333 1049 -2 c 0
 1018.33333333 -8.66666666667 988 -14.3333333333 958 -19 c 0
 927.333333333 -23.6666666667 900.333333333 -26 877 -26 c 0
 853.666666667 -26 828.333333333 -24 801 -20 c 0
 774.333333333 -16.6666666667 750 -10.3333333333 728 -1 c 0
 706 8.33333333333 688.333333333 21.6666666667 675 39 c 0
 662.333333333 56.3333333333 659 78.6666666667 665 106 c 0
 793 746 l 0
 798.333333333 771.333333333 800.666666667 792.666666667 800 810 c 0
 799.333333333 827.333333333 796.666666667 841.666666667 792 853 c 0
 786.666666667 863.666666667 780 871.333333333 772 876 c 0
 763.333333333 880.666666667 753.333333333 883 742 883 c 0
 725.333333333 883 706.666666667 878 686 868 c 0
 664.666666667 858.666666667 642.333333333 846 619 830 c 0
 595.666666667 814 571.666666667 796 547 776 c 0
 523 755.333333333 500 733.666666667 478 711 c 0
 330 0 l 0
 50 0 l 0
 234 891 l 0
 58 908 l 0
 58 979 l 0
 402 1049 l 0
 548 1049 l 0
 522 927 l 0
 547.333333333 944.333333333 574.333333333 960.333333333 603 975 c 0
 631 990.333333333 659.666666667 1003.33333333 689 1014 c 0
 718.333333333 1024.66666667 747.333333333 1033 776 1039 c 0
 805.333333333 1045 833.333333333 1048.33333333 860 1049 c 0
 912 1049 955 1043 989 1031 c 0
 1023 1019 1048.33333333 1001.33333333 1065 978 c 0
 1082.33333333 954.666666667 1092.66666667 926 1096 892 c 0
 1099.33333333 858 1097 818.666666667 1089 774 c 0
 975 184 l 0
 971.666666667 166.666666667 971.333333333 153 974 143 c 0
 977.333333333 132.333333333 982 124 988 118 c 0
 994 112 1000.33333333 107.666666667 1007 105 c 0
 1013.66666667 103 1019.66666667 102 1025 102 c 0
 1047 102 1073.66666667 106.333333333 1105 115 c 0
 1136.33333333 123.666666667 1167.66666667 134.666666667 1199 148 c 0
 1204 48 l 0
EndSplineSet
EndChar

StartChar: o
Encoding: 82 111 82
Width: 1159
VWidth: 1024
Flags: HW
LayerCount: 2
Fore
SplineSet
1095 636 m 0
 1095 580.666666667 1088.66666667 526 1076 472 c 0
 1064 418 1046 366.666666667 1022 318 c 0
 998 269.333333333 968.666666667 224 934 182 c 0
 899.333333333 140 859.333333333 103.666666667 814 73 c 0
 768.666666667 42.3333333333 718.666666667 18.3333333333 664 1 c 0
 609.333333333 -16.3333333333 550 -25.3333333333 486 -26 c 0
 414 -26 352 -15.6666666667 300 5 c 0
 247.333333333 25.6666666667 203.666666667 54 169 90 c 0
 134.333333333 126 109 168.666666667 93 218 c 0
 76.3333333333 267.333333333 68 321.333333333 68 380 c 0
 68 434.666666667 74 489 86 543 c 0
 98 597 115.333333333 649 138 699 c 0
 160.666666667 749 189 795.333333333 223 838 c 0
 257 880 296.666666667 916.666666667 342 948 c 0
 386.666666667 979.333333333 436.333333333 1004 491 1022 c 0
 545.666666667 1040 605.666666667 1049 671 1049 c 0
 735 1049 793 1040 845 1022 c 0
 897 1004.66666667 941.666666667 979 979 945 c 0
 1015.66666667 910.333333333 1044 867.333333333 1064 816 c 0
 1084.66666667 764 1095 704 1095 636 c 0
793 644 m 0
 793 695.333333333 787.666666667 739.333333333 777 776 c 0
 767 812.666666667 754.666666667 843 740 867 c 0
 725.333333333 891 709.666666667 908.666666667 693 920 c 0
 676.333333333 931.333333333 661.333333333 937 648 937 c 0
 626.666666667 937 605 930 583 916 c 0
 561 902 539.666666667 882.666666667 519 858 c 0
 498.333333333 833.333333333 478.666666667 803.666666667 460 769 c 0
 441.333333333 734.333333333 425 696.666666667 411 656 c 0
 397 615.333333333 386 572.333333333 378 527 c 0
 370 481.666666667 366.333333333 435.333333333 367 388 c 0
 367 334 372 288 382 250 c 0
 392.666666667 212 405.666666667 181.333333333 421 158 c 0
 436.333333333 134.666666667 452.333333333 117.333333333 469 106 c 0
 485.666666667 95.3333333333 500 90 512 90 c 0
 548.666666667 90 584 106.666666667 618 140 c 0
 652 173.333333333 682 216.666666667 708 270 c 0
 734 323.333333333 754.666666667 383 770 449 c 0
 785.333333333 514.333333333 793 579.333333333 793 644 c 0
EndSplineSet
EndChar

StartChar: p
Encoding: 83 112 83
Width: 1134
VWidth: 1024
Flags: HW
LayerCount: 2
Fore
SplineSet
1067 652 m 0
 1067 596 1060.33333333 540.333333333 1047 485 c 0
 1033.66666667 429.666666667 1014 377 988 327 c 0
 962.666666667 277 931 230.333333333 893 187 c 0
 855.666666667 143.666666667 813 106.666666667 765 76 c 0
 717 44.6666666667 664 20 606 2 c 0
 548 -16 486 -25.3333333333 420 -26 c 0
 394 -26 371.333333333 -24 352 -20 c 0
 332.666666667 -16 316 -12 302 -8 c 0
 239 -318 l 0
 237 -327.333333333 238.666666667 -335.666666667 244 -343 c 0
 250 -349.666666667 258.666666667 -352.666666667 270 -352 c 0
 279.333333333 -352.666666667 291.333333333 -353.666666667 306 -355 c 0
 318 -356.333333333 333.333333333 -357.666666667 352 -359 c 0
 370 -360.333333333 391.333333333 -362.333333333 416 -365 c 0
 416 -460 l 0
 -202 -460 l 0
 -202 -365 l 0
 -191.333333333 -363.666666667 -178.333333333 -362.333333333 -163 -361 c 0
 -148.333333333 -360.333333333 -134.666666667 -359.333333333 -122 -358 c 0
 -99 -356 -99 -356 -76 -354 c 0
 -65.3333333333 -352.666666667 -57 -349 -51 -343 c 0
 -45.6666666667 -336.333333333 -42 -328 -40 -318 c 0
 198 889 l 0
 24 908 l 0
 24 979 l 0
 369 1049 l 0
 510 1049 l 0
 495 971 l 0
 505.666666667 977 519.666666667 984.333333333 537 993 c 0
 554.333333333 1001.66666667 574 1010.33333333 596 1019 c 0
 618 1027 641.666666667 1034 667 1040 c 0
 692.333333333 1046 718.666666667 1049 746 1049 c 0
 801.333333333 1049 849.333333333 1037 890 1013 c 0
 930 989.666666667 963.333333333 959.333333333 990 922 c 0
 1016 884.666666667 1035.33333333 842.333333333 1048 795 c 0
 1060.66666667 747.666666667 1067 700 1067 652 c 0
774 644 m 0
 774 673.333333333 772.666666667 703.333333333 770 734 c 0
 767.333333333 764.666666667 761.666666667 792.333333333 753 817 c 0
 744.333333333 841.666666667 731.333333333 862 714 878 c 0
 697.333333333 894 675.333333333 902 648 902 c 0
 632.666666667 902 616.666666667 898 600 890 c 0
 582.666666667 882 565 872 547 860 c 0
 529.666666667 848 513.333333333 835.333333333 498 822 c 0
 482.666666667 809.333333333 470 798 460 788 c 0
 332 142 l 0
 340 136.666666667 349.333333333 130.666666667 360 124 c 0
 370.666666667 117.333333333 382 111.333333333 394 106 c 0
 405.333333333 100.666666667 417 96 429 92 c 0
 440.333333333 88 450.666666667 86 460 86 c 0
 489.333333333 86 517.333333333 94 544 110 c 0
 570.666666667 126 596 148 620 176 c 0
 643.333333333 204 664.333333333 236.333333333 683 273 c 0
 702.333333333 309.666666667 718.666666667 348.666666667 732 390 c 0
 745.333333333 431.333333333 755.666666667 474 763 518 c 0
 770.333333333 561.333333333 774 603.333333333 774 644 c 0
EndSplineSet
EndChar

StartChar: q
Encoding: 84 113 84
Width: 1193
VWidth: 1024
Flags: HW
LayerCount: 2
Fore
SplineSet
856 -318 m 0
 853.333333333 -327.333333333 853.666666667 -335.666666667 857 -343 c 0
 860.333333333 -349.666666667 867.666666667 -352.666666667 879 -352 c 0
 890.333333333 -352.666666667 903.666666667 -353.666666667 919 -355 c 0
 931.666666667 -356.333333333 947.333333333 -357.666666667 966 -359 c 0
 984.666666667 -360.333333333 1006 -362.333333333 1030 -365 c 0
 1030 -460 l 0
 413 -460 l 0
 413 -365 l 0
 422.333333333 -364.333333333 434.333333333 -363 449 -361 c 0
 463.666666667 -359.666666667 477.333333333 -358.333333333 490 -357 c 0
 506.666666667 -355 523.666666667 -353.333333333 541 -352 c 0
 561 -350 573 -338.666666667 577 -318 c 0
 650 46 l 0
 608 22 566 3.33333333333 524 -10 c 0
 482.666666667 -23.3333333333 442.666666667 -30 404 -30 c 0
 348 -30 299.333333333 -21 258 -3 c 0
 216.666666667 15 182 40.6666666667 154 74 c 0
 126.666666667 107.333333333 106 148 92 196 c 0
 78.6666666667 244 72 298 72 358 c 0
 72 410.666666667 78 464.333333333 90 519 c 0
 102 573 120.333333333 625.666666667 145 677 c 0
 169.666666667 728.333333333 200 776.333333333 236 821 c 0
 272 866.333333333 313.666666667 906 361 940 c 0
 408.333333333 974 461 1000.33333333 519 1019 c 0
 577 1038.33333333 640.333333333 1048.33333333 709 1049 c 0
 743.666666667 1049 776.666666667 1045.33333333 808 1038 c 0
 839.333333333 1030.66666667 867 1021.66666667 891 1011 c 0
 925 1049 l 0
 1128 1049 l 0
 856 -318 l 0
803 818 m 0
 805 824.666666667 804 834.666666667 800 848 c 0
 796 860.666666667 790.333333333 873.333333333 783 886 c 0
 776.333333333 898.666666667 768.666666667 909.666666667 760 919 c 0
 751.333333333 928.333333333 743.333333333 933 736 933 c 0
 691.333333333 933 646.666666667 919 602 891 c 0
 556.666666667 863.666666667 516 825.333333333 480 776 c 0
 444 726.666666667 414.666666667 667 392 597 c 0
 369.333333333 527.666666667 358 451 358 367 c 0
 358 329.666666667 360.333333333 295.333333333 365 264 c 0
 369 233.333333333 375.666666667 207.333333333 385 186 c 0
 394.333333333 164.666666667 407.333333333 148 424 136 c 0
 440.666666667 124 462 118 488 118 c 0
 509.333333333 118 529 122 547 130 c 0
 565 138 582.333333333 148.333333333 599 161 c 0
 615 173 630.333333333 186.333333333 645 201 c 0
 659.666666667 215.666666667 674 229.333333333 688 242 c 0
 803 818 l 0
EndSplineSet
EndChar

StartChar: r
Encoding: 85 114 85
Width: 878
VWidth: 1024
Flags: HW
LayerCount: 2
Fore
SplineSet
956 900 m 0
 956 851.333333333 940.666666667 815 910 791 c 0
 879.333333333 767 828.333333333 755 757 755 c 0
 700 868 l 0
 667.333333333 851.333333333 636.333333333 831.666666667 607 809 c 0
 577 786.333333333 550.333333333 761.333333333 527 734 c 0
 503.666666667 706.666666667 484 677.666666667 468 647 c 0
 451.333333333 616.333333333 440 585.333333333 434 554 c 0
 316 0 l 0
 38 0 l 0
 222 887 l 0
 46 906 l 0
 46 979 l 0
 394 1049 l 0
 539 1049 l 0
 512 908 l 0
 530.666666667 927.333333333 551 945.666666667 573 963 c 0
 595 980.333333333 618.333333333 995.333333333 643 1008 c 0
 667.666666667 1020.66666667 693 1030.66666667 719 1038 c 0
 745 1045.33333333 771 1049 797 1049 c 0
 824.333333333 1049 848 1044 868 1034 c 0
 888 1024 904.666666667 1011.66666667 918 997 c 0
 930.666666667 982.333333333 940.333333333 966.333333333 947 949 c 0
 953 931.666666667 956 915.333333333 956 900 c 0
EndSplineSet
EndChar

StartChar: s
Encoding: 86 115 86
Width: 870
VWidth: 1024
Flags: HW
LayerCount: 2
Fore
SplineSet
826 887 m 0
 826 839.666666667 812.666666667 804.666666667 786 782 c 0
 759.333333333 759.333333333 714 746 650 742 c 0
 543 925 l 0
 538.333333333 926.333333333 533 927.666666667 527 929 c 0
 522.333333333 930.333333333 516.666666667 931.333333333 510 932 c 0
 503.333333333 932.666666667 496 933 488 933 c 0
 466.666666667 933 450.333333333 928.666666667 439 920 c 0
 427.666666667 911.333333333 419 900.666666667 413 888 c 0
 407 875.333333333 403.333333333 861 402 845 c 0
 400.666666667 829.666666667 400 815.666666667 400 803 c 0
 400 781 405.666666667 759.666666667 417 739 c 0
 427.666666667 718.333333333 442 698.333333333 460 679 c 0
 478 659.666666667 498 640.666666667 520 622 c 0
 542 603.333333333 564.333333333 585.333333333 587 568 c 0
 611 549.333333333 634 530.333333333 656 511 c 0
 678 491.666666667 697.666666667 471.333333333 715 450 c 0
 732.333333333 428.666666667 746.333333333 406.333333333 757 383 c 0
 767 359.666666667 772 335.333333333 772 310 c 0
 772 270 762.333333333 229.666666667 743 189 c 0
 723.666666667 149 694.666666667 113 656 81 c 0
 617.333333333 49 568.666666667 23.3333333333 510 4 c 0
 451.333333333 -16 382.666666667 -26 304 -26 c 0
 248.666666667 -26 201 -20.3333333333 161 -9 c 0
 121 2.33333333333 88 17.3333333333 62 36 c 0
 36 54.6666666667 17 76 5 100 c 0
 -7.66666666667 124 -14 148.666666667 -14 174 c 0
 -14 192.666666667 -10.6666666667 210.333333333 -4 227 c 0
 2.66666666667 244.333333333 11.6666666667 259.666666667 23 273 c 0
 34.3333333333 286.333333333 46.6666666667 297 60 305 c 0
 73.3333333333 313 87.3333333333 316.666666667 102 316 c 0
 132.666666667 316 158.666666667 311.666666667 180 303 c 0
 201.333333333 293.666666667 218.666666667 281.333333333 232 266 c 0
 195 142 l 0
 202.333333333 132 212.666666667 123 226 115 c 0
 239.333333333 107 254.333333333 100 271 94 c 0
 287 88.6666666667 303.333333333 84.6666666667 320 82 c 0
 336.666666667 79.3333333333 352.333333333 78 367 78 c 0
 409 78 440.333333333 92.3333333333 461 121 c 0
 481.666666667 150.333333333 492.333333333 189.666666667 493 239 c 0
 493 260.333333333 488.666666667 280 480 298 c 0
 472 316.666666667 460.333333333 335 445 353 c 0
 429.666666667 371 411.666666667 388.666666667 391 406 c 0
 369.666666667 423.333333333 346.333333333 442 321 462 c 0
 299 478.666666667 277.666666667 496.666666667 257 516 c 0
 236.333333333 536 217.666666667 557 201 579 c 0
 184.333333333 601 171 624.333333333 161 649 c 0
 151 673.666666667 146 699.333333333 146 726 c 0
 146 775.333333333 157.666666667 819.666666667 181 859 c 0
 204.333333333 898.333333333 235.333333333 932.333333333 274 961 c 0
 312.666666667 989 358 1010.66666667 410 1026 c 0
 461.333333333 1041.33333333 514.666666667 1049 570 1049 c 0
 614 1049 652 1043 684 1031 c 0
 716 1019 742.666666667 1004.66666667 764 988 c 0
 785.333333333 971.333333333 801 953.333333333 811 934 c 0
 821 915.333333333 826 899.666666667 826 887 c 0
EndSplineSet
EndChar

StartChar: t
Encoding: 87 116 87
Width: 720
VWidth: 1024
Flags: HW
LayerCount: 2
Fore
SplineSet
512 877 m 0
 380 228 l 0
 372.666666667 195.333333333 376.333333333 169.333333333 391 150 c 0
 405.666666667 130 429.333333333 120 462 120 c 0
 478.666666667 120 498.333333333 122.666666667 521 128 c 0
 543.666666667 133.333333333 567.333333333 139.666666667 592 147 c 0
 616.666666667 154.333333333 640.666666667 162.666666667 664 172 c 0
 687.333333333 180.666666667 707.333333333 187.666666667 724 193 c 0
 724 78 l 0
 712.666666667 72.6666666667 692.333333333 64.3333333333 663 53 c 0
 633.666666667 41.6666666667 600 30 562 18 c 0
 524.666666667 6.66666666667 485.666666667 -3.33333333333 445 -12 c 0
 405 -20.6666666667 368.666666667 -25.3333333333 336 -26 c 0
 296 -26 260.666666667 -21 230 -11 c 0
 200 -1.66666666667 175.333333333 11.3333333333 156 28 c 0
 136 44.6666666667 121 64.6666666667 111 88 c 0
 101 111.333333333 96 136.666666667 96 164 c 0
 96 177.333333333 96.6666666667 191 98 205 c 0
 99.3333333333 218.333333333 101.333333333 232.666666667 104 248 c 0
 232 872 l 0
 82 856 l 0
 82 942 l 0
 260 1013 l 0
 367 1229 l 0
 577 1229 l 0
 532 992 l 0
 824 992 l 0
 824 877 l 0
 512 877 l 0
EndSplineSet
EndChar

StartChar: u
Encoding: 88 117 88
Width: 1204
VWidth: 1024
Flags: HW
LayerCount: 2
Fore
SplineSet
1199 58 m 0
 1184.33333333 50.6666666667 1164.66666667 42 1140 32 c 0
 1115.33333333 22 1087.66666667 13 1057 5 c 0
 1026.33333333 -3.66666666667 995 -11 963 -17 c 0
 930.333333333 -23 898.666666667 -26 868 -26 c 0
 832 -26 802.666666667 -22 780 -14 c 0
 757.333333333 -6.66666666667 740 2.33333333333 728 13 c 0
 715.333333333 23.6666666667 706 34.6666666667 700 46 c 0
 694.666666667 57.3333333333 691.333333333 66.6666666667 690 74 c 0
 643.333333333 42 593.333333333 17.3333333333 540 0 c 0
 486 -17.3333333333 424.666666667 -26 356 -26 c 0
 304 -26 260.333333333 -17 225 1 c 0
 189 19 160.666666667 41.3333333333 140 68 c 0
 119.333333333 94.6666666667 105.666666667 123.666666667 99 155 c 0
 92.3333333333 187 92 217.333333333 98 246 c 0
 234 889 l 0
 58 908 l 0
 58 979 l 0
 404 1049 l 0
 550 1049 l 0
 378 246 l 0
 374.666666667 229.333333333 373.666666667 213.666666667 375 199 c 0
 377 183.666666667 381 170.333333333 387 159 c 0
 393 147.666666667 401.333333333 138.666666667 412 132 c 0
 422 125.333333333 433.333333333 122 446 122 c 0
 469.333333333 122 492.333333333 125.333333333 515 132 c 0
 537 138.666666667 558.333333333 147.666666667 579 159 c 0
 599.666666667 170.333333333 620 183.666666667 640 199 c 0
 660 214.333333333 679.333333333 230.666666667 698 248 c 0
 862 1023 l 0
 1141 1023 l 0
 969 210 l 0
 961 171.333333333 962.333333333 143.333333333 973 126 c 0
 984.333333333 108.666666667 1001 100 1023 100 c 0
 1028.33333333 100 1034.66666667 101 1042 103 c 0
 1049.33333333 105 1059.33333333 108.333333333 1072 113 c 0
 1084.66666667 118.333333333 1101 126 1121 136 c 0
 1141 146 1167 159.333333333 1199 176 c 0
 1199 58 l 0
EndSplineSet
EndChar

StartChar: v
Encoding: 89 118 89
Width: 1067
VWidth: 1024
Flags: HW
LayerCount: 2
Fore
SplineSet
1078 914 m 0
 1078 896 1076.33333333 879 1073 863 c 0
 1069.66666667 846.333333333 1065.66666667 831.333333333 1061 818 c 0
 1056.33333333 804.666666667 1051.33333333 792.666666667 1046 782 c 0
 1040.66666667 771.333333333 1036 763 1032 757 c 0
 984.666666667 671 934.333333333 588.666666667 881 510 c 0
 827 432 773.333333333 359.666666667 720 293 c 0
 667.333333333 226.333333333 617.333333333 166 570 112 c 0
 522.666666667 58 482.333333333 12 449 -26 c 0
 244 -26 l 0
 262 10 274.666666667 41.6666666667 282 69 c 0
 290 95.6666666667 293.333333333 120.666666667 292 144 c 0
 292 146 291.333333333 156.666666667 290 176 c 0
 288.666666667 194.666666667 286.666666667 218.666666667 284 248 c 0
 281.333333333 277.333333333 278.333333333 311 275 349 c 0
 271.666666667 387 268 426 264 466 c 0
 260 506 255.666666667 546.666666667 251 588 c 0
 246.333333333 628.666666667 241.333333333 666.666666667 236 702 c 0
 230.666666667 737.333333333 225.333333333 768.666666667 220 796 c 0
 214.666666667 823.333333333 209.333333333 844 204 858 c 0
 200.666666667 865.333333333 197.666666667 871.666666667 195 877 c 0
 192.333333333 881.666666667 189.333333333 885 186 887 c 0
 182.666666667 889.666666667 178.333333333 891.333333333 173 892 c 0
 167.666666667 892.666666667 160.333333333 893 151 893 c 0
 136.333333333 893.666666667 121 894.666666667 105 896 c 0
 91.6666666667 896.666666667 76.3333333333 897.333333333 59 898 c 0
 41.6666666667 898.666666667 24 899.333333333 6 900 c 0
 6 975 l 0
 256 1049 l 0
 328.666666667 1047.66666667 384.333333333 1034.33333333 423 1009 c 0
 462.333333333 983.666666667 484.666666667 944.333333333 490 891 c 0
 548 350 l 0
 573.333333333 384.666666667 598 417.666666667 622 449 c 0
 646 480.333333333 668.666666667 511 690 541 c 0
 711.333333333 571.666666667 731 602.333333333 749 633 c 0
 767 663.666666667 783 695.333333333 797 728 c 0
 738 994 l 0
 756 1011.33333333 780 1024.66666667 810 1034 c 0
 840 1043.33333333 871.333333333 1048.33333333 904 1049 c 0
 928.666666667 1049 951.666666667 1045.66666667 973 1039 c 0
 994.333333333 1033 1012.66666667 1024 1028 1012 c 0
 1044 1000 1056.33333333 986 1065 970 c 0
 1073.66666667 953.333333333 1078 934.666666667 1078 914 c 0
EndSplineSet
EndChar

StartChar: w
Encoding: 90 119 90
Width: 1574
VWidth: 1024
Flags: HW
LayerCount: 2
Fore
SplineSet
1583 916 m 0
 1583 886.666666667 1575.66666667 852 1561 812 c 0
 1545.66666667 771.333333333 1525.66666667 727.333333333 1501 680 c 0
 1476.33333333 632.666666667 1447.66666667 583.666666667 1415 533 c 0
 1383 482.333333333 1349.66666667 432 1315 382 c 0
 1280.33333333 332 1246.33333333 284.333333333 1213 239 c 0
 1179 193.666666667 1148 152.666666667 1120 116 c 0
 1092 79.3333333333 1068.33333333 48.6666666667 1049 24 c 0
 1029 -0.666666666667 1015.66666667 -17.3333333333 1009 -26 c 0
 801 -26 l 0
 759 574 l 0
 731.666666667 520 703.333333333 465.666666667 674 411 c 0
 644.666666667 356.333333333 615 303 585 251 c 0
 555 199 526 149.333333333 498 102 c 0
 470 54.6666666667 443.333333333 12 418 -26 c 0
 202 -26 l 0
 224 32 l 0
 168 889 l 0
 8 906 l 0
 8 973 l 0
 290 1049 l 0
 440 1023 l 0
 480 390 l 0
 504 436.666666667 528.333333333 485.333333333 553 536 c 0
 577.666666667 586.666666667 602 637.666666667 626 689 c 0
 650 740.333333333 674 792 698 844 c 0
 721.333333333 896 744 947.333333333 766 998 c 0
 1005 1023 l 0
 1055 286 l 0
 1079 320.666666667 1104.66666667 358 1132 398 c 0
 1159.33333333 438 1186.66666667 478.666666667 1214 520 c 0
 1240.66666667 561.333333333 1266 602.666666667 1290 644 c 0
 1314 685.333333333 1335 725 1353 763 c 0
 1273 986 l 0
 1275.66666667 990 1280.66666667 995.666666667 1288 1003 c 0
 1295.33333333 1010.33333333 1304.33333333 1017 1315 1023 c 0
 1326.33333333 1029.66666667 1340 1035.66666667 1356 1041 c 0
 1372 1046.33333333 1391 1049 1413 1049 c 0
 1441.66666667 1049 1466.66666667 1043.66666667 1488 1033 c 0
 1509.33333333 1023 1527 1010.66666667 1541 996 c 0
 1555 981.333333333 1565.33333333 966.666666667 1572 952 c 0
 1579.33333333 936.666666667 1583 924.666666667 1583 916 c 0
EndSplineSet
EndChar

StartChar: x
Encoding: 91 120 91
Width: 1208
VWidth: 1024
Flags: HW
LayerCount: 2
Fore
SplineSet
1229 916 m 0
 1229 902.666666667 1228 886.666666667 1226 868 c 0
 1224 849.333333333 1218.33333333 832 1209 816 c 0
 1199.66666667 799.333333333 1185 785.333333333 1165 774 c 0
 1145 762.666666667 1117.33333333 757 1082 757 c 0
 990 866 l 0
 972.666666667 854 953 837.333333333 931 816 c 0
 908.333333333 794.666666667 885.333333333 770 862 742 c 0
 838.666666667 714 816 682.666666667 794 648 c 0
 772 613.333333333 752.666666667 576.333333333 736 537 c 0
 739.333333333 525 745 507.666666667 753 485 c 0
 760.333333333 463 768.666666667 439 778 413 c 0
 787.333333333 387 797 360.666666667 807 334 c 0
 817 307.333333333 827 283.333333333 837 262 c 0
 846.333333333 240.666666667 854.666666667 220.666666667 862 202 c 0
 869.333333333 183.333333333 876.666666667 167 884 153 c 0
 891.333333333 138.333333333 899.333333333 127 908 119 c 0
 916.666666667 111 927.333333333 106.666666667 940 106 c 0
 945.333333333 106 952.666666667 106.666666667 962 108 c 0
 971.333333333 108.666666667 982.333333333 111 995 115 c 0
 1007.66666667 119 1023 125.333333333 1041 134 c 0
 1059 142.666666667 1079.66666667 154.666666667 1103 170 c 0
 1103 48 l 0
 1079 33.3333333333 1055.33333333 21.6666666667 1032 13 c 0
 1008.66666667 3.66666666667 985.333333333 -4 962 -10 c 0
 938 -16 912.666666667 -20 886 -22 c 0
 860 -24.6666666667 831.666666667 -26 801 -26 c 0
 767 -26 735.666666667 -14.3333333333 707 9 c 0
 678.333333333 31.6666666667 652.333333333 60.3333333333 629 95 c 0
 605.666666667 129.666666667 585.333333333 167.666666667 568 209 c 0
 550.666666667 249.666666667 536.666666667 288.333333333 526 325 c 0
 520.666666667 316.333333333 512.333333333 301.666666667 501 281 c 0
 489.666666667 260.333333333 475 237 457 211 c 0
 439.666666667 185 420 158 398 130 c 0
 376 102 352.333333333 76.6666666667 327 54 c 0
 301 31.3333333333 273.666666667 12.3333333333 245 -3 c 0
 216.333333333 -18.3333333333 186.666666667 -26 156 -26 c 0
 131.333333333 -26 107.333333333 -23 84 -17 c 0
 60.6666666667 -11.6666666667 40 -3.66666666667 22 7 c 0
 4 17.6666666667 -10.6666666667 30.6666666667 -22 46 c 0
 -32.6666666667 62 -38 80 -38 100 c 0
 -38 116.666666667 -36 134.666666667 -32 154 c 0
 -28 173.333333333 -19.6666666667 191 -7 207 c 0
 5.66666666667 223.666666667 24 237.333333333 48 248 c 0
 72 258.666666667 103.333333333 264 142 264 c 0
 222 140 l 0
 240.666666667 156 261 175.666666667 283 199 c 0
 305 222.333333333 327 248.666666667 349 278 c 0
 371.666666667 308 393.333333333 340.666666667 414 376 c 0
 434.666666667 411.333333333 453.333333333 449.333333333 470 490 c 0
 466.666666667 503.333333333 461.333333333 522.333333333 454 547 c 0
 446.666666667 571 438.333333333 597.333333333 429 626 c 0
 419.666666667 654 409.666666667 682.666666667 399 712 c 0
 388.333333333 741.333333333 378 768 368 792 c 0
 358 816 348.333333333 835.333333333 339 850 c 0
 330.333333333 865.333333333 323.333333333 873.333333333 318 874 c 0
 112 900 l 0
 112 965 l 0
 120 968.333333333 132.333333333 972.666666667 149 978 c 0
 165.666666667 983.333333333 184.333333333 989 205 995 c 0
 225.666666667 1001 246.666666667 1007.33333333 268 1014 c 0
 290 1020 310.666666667 1025.66666667 330 1031 c 0
 349.333333333 1036.33333333 366 1040.33333333 380 1043 c 0
 394.666666667 1046.33333333 404.333333333 1048.33333333 409 1049 c 0
 441.666666667 1049 470.666666667 1041 496 1025 c 0
 521.333333333 1009 544.666666667 986.666666667 566 958 c 0
 586.666666667 928.666666667 605.666666667 893.666666667 623 853 c 0
 640.333333333 812.333333333 656.333333333 766.333333333 671 715 c 0
 695.666666667 751.666666667 722.666666667 789.666666667 752 829 c 0
 781.333333333 868.333333333 812.333333333 904.333333333 845 937 c 0
 878.333333333 969.666666667 912.666666667 996.333333333 948 1017 c 0
 983.333333333 1037.66666667 1019.66666667 1048.33333333 1057 1049 c 0
 1078.33333333 1049 1099.33333333 1045.66666667 1120 1039 c 0
 1140.66666667 1032.33333333 1159 1023.33333333 1175 1012 c 0
 1191 1000.66666667 1204 986.666666667 1214 970 c 0
 1224 953.333333333 1229 935.333333333 1229 916 c 0
EndSplineSet
EndChar

StartChar: y
Encoding: 92 121 92
Width: 1138
VWidth: 1024
Flags: HW
LayerCount: 2
Fore
SplineSet
1091 864 m 0
 1083 856 1071 841.333333333 1055 820 c 0
 1039 798.666666667 1022.66666667 774.333333333 1006 747 c 0
 989.333333333 720.333333333 973 692.666666667 957 664 c 0
 941 635.333333333 928.333333333 610.333333333 919 589 c 0
 903.666666667 555.666666667 885.666666667 515 865 467 c 0
 844.333333333 419.666666667 821 368.666666667 795 314 c 0
 769.666666667 259.333333333 742 202.666666667 712 144 c 0
 682 84.6666666667 650.666666667 26.6666666667 618 -30 c 0
 583.333333333 -90.6666666667 546 -148.333333333 506 -203 c 0
 466 -257.666666667 423 -305.333333333 377 -346 c 0
 330.333333333 -386.666666667 280 -419.333333333 226 -444 c 0
 172 -468 113.333333333 -480 50 -480 c 0
 8 -480 -27.3333333333 -474.666666667 -56 -464 c 0
 -84 -453.333333333 -106.666666667 -439.666666667 -124 -423 c 0
 -141.333333333 -406.333333333 -153.333333333 -389 -160 -371 c 0
 -166.666666667 -352.333333333 -170 -335.666666667 -170 -321 c 0
 -170 -303.666666667 -167.333333333 -285 -162 -265 c 0
 -156.666666667 -245 -147.333333333 -226.333333333 -134 -209 c 0
 -120.666666667 -191.666666667 -103 -177.333333333 -81 -166 c 0
 -59.6666666667 -154.666666667 -32.6666666667 -148 0 -146 c 0
 90 -306 l 0
 184.666666667 -285.333333333 290.333333333 -168.666666667 407 44 c 0
 405.666666667 52 402 70 396 98 c 0
 390.666666667 126 384 160.333333333 376 201 c 0
 368 241 359.333333333 285.333333333 350 334 c 0
 340 382.666666667 329.333333333 432 318 482 c 0
 308 530 298.666666667 578.333333333 290 627 c 0
 281.333333333 675.666666667 273 719.333333333 265 758 c 0
 257.666666667 796.666666667 251 828 245 852 c 0
 239 876 233.333333333 888.333333333 228 889 c 0
 6 906 l 0
 6 971 l 0
 18 975 18 975 42 983 c 0
 58 988.333333333 75.6666666667 993.666666667 95 999 c 0
 115 1005 135.666666667 1010.66666667 157 1016 c 0
 178.333333333 1022 198.666666667 1027.33333333 218 1032 c 0
 237.333333333 1036.66666667 254.666666667 1040.66666667 270 1044 c 0
 285.333333333 1047.33333333 296.666666667 1049 304 1049 c 0
 327.333333333 1049 348.666666667 1047.33333333 368 1044 c 0
 387.333333333 1040.66666667 405.333333333 1032.33333333 422 1019 c 0
 438.666666667 1005.66666667 454.666666667 985.333333333 470 958 c 0
 484.666666667 930.666666667 499.333333333 892.333333333 514 843 c 0
 520.666666667 819 528.333333333 790.666666667 537 758 c 0
 545 725.333333333 553 690.666666667 561 654 c 0
 569 616.666666667 577.666666667 578 587 538 c 0
 595.666666667 498 604 457.333333333 612 416 c 0
 900 1049 l 0
 1000 1049 l 0
 1199 986 l 0
 1199 931 l 0
 1091 864 l 0
EndSplineSet
EndChar

StartChar: z
Encoding: 93 122 93
Width: 1030
VWidth: 1024
Flags: HW
LayerCount: 2
Fore
SplineSet
352 193 m 0
 484 220 l 0
 521.333333333 200 552.666666667 184 578 172 c 0
 602.666666667 160 626.666666667 154 650 154 c 0
 657.333333333 154 667.666666667 155.666666667 681 159 c 0
 693.666666667 162.333333333 707 166.666666667 721 172 c 0
 735 177.333333333 748 183.666666667 760 191 c 0
 771.333333333 198.333333333 779.333333333 206 784 214 c 0
 658 348 l 0
 661.333333333 352.666666667 668.666666667 359.666666667 680 369 c 0
 690.666666667 378.333333333 703.666666667 387.333333333 719 396 c 0
 734.333333333 404.666666667 750.333333333 412 767 418 c 0
 784.333333333 424.666666667 802 428 820 428 c 0
 842.666666667 428 862.333333333 422.666666667 879 412 c 0
 895.666666667 401.333333333 909 388 919 372 c 0
 929.666666667 356 937.666666667 339 943 321 c 0
 948.333333333 303 950.666666667 286.666666667 950 272 c 0
 950 238.666666667 940.333333333 204.333333333 921 169 c 0
 901.666666667 133.666666667 875.333333333 102 842 74 c 0
 808.666666667 45.3333333333 770 22 726 4 c 0
 682 -14 635.666666667 -23.3333333333 587 -24 c 0
 551.666666667 -24 518 -19.3333333333 486 -10 c 0
 454 -0.666666666667 425.333333333 9.33333333333 400 20 c 0
 374.666666667 30.6666666667 353.333333333 41 336 51 c 0
 318.666666667 60.3333333333 306.666666667 65 300 65 c 0
 290.666666667 65 282 64.3333333333 274 63 c 0
 266 61.6666666667 260 58 256 52 c 0
 178 -82 l 0
 -34 34 l 0
 658 830 l 0
 526 803 l 0
 489.333333333 823 459 839 435 851 c 0
 411 863.666666667 386.666666667 870 362 870 c 0
 354.666666667 870 344.666666667 868.333333333 332 865 c 0
 319.333333333 861.666666667 306 857 292 851 c 0
 278.666666667 845 265.666666667 838.666666667 253 832 c 0
 241 824.666666667 232.666666667 817.333333333 228 810 c 0
 352 678 l 0
 348.666666667 672 342 664.333333333 332 655 c 0
 322 645.666666667 309.333333333 636.666666667 294 628 c 0
 278.666666667 619.333333333 262.333333333 612 245 606 c 0
 227 599.333333333 209.666666667 596 193 596 c 0
 170.333333333 596 150.666666667 601.333333333 134 612 c 0
 117.333333333 622.666666667 104 636 94 652 c 0
 83.3333333333 668 75.3333333333 684.666666667 70 702 c 0
 64.6666666667 720 62 736.333333333 62 751 c 0
 62 784.333333333 72 818.666666667 92 854 c 0
 111.333333333 889.333333333 137.666666667 921.333333333 171 950 c 0
 204.333333333 979.333333333 243 1003 287 1021 c 0
 331 1039.66666667 377.333333333 1049 426 1049 c 0
 461.333333333 1049 495 1044 527 1034 c 0
 559 1024.66666667 587.333333333 1014.33333333 612 1003 c 0
 637.333333333 991.666666667 658.666666667 981.333333333 676 972 c 0
 693.333333333 962.666666667 705.666666667 958 713 958 c 0
 722.333333333 958 730.666666667 959 738 961 c 0
 745.333333333 962.333333333 751.666666667 965.666666667 757 971 c 0
 814 1103 l 0
 1044 986 l 0
 352 193 l 0
EndSplineSet
EndChar

StartChar: braceleft
Encoding: 94 123 94
Width: 1038
VWidth: 1024
Flags: HW
LayerCount: 2
Fore
SplineSet
1047 1365 m 0
 1021 1365 995.333333333 1363.33333333 970 1360 c 0
 948 1356.66666667 925 1351 901 1343 c 0
 877 1335.66666667 855 1324.33333333 835 1309 c 0
 810.333333333 1288.33333333 791 1262.66666667 777 1232 c 0
 763.666666667 1201.33333333 752.666666667 1168.33333333 744 1133 c 0
 735.333333333 1097 727.666666667 1059.66666667 721 1021 c 0
 714.333333333 982.333333333 705 944 693 906 c 0
 681.666666667 868 666.333333333 831.666666667 647 797 c 0
 627.666666667 762.333333333 600.666666667 731.666666667 566 705 c 0
 539.333333333 683.666666667 513 666.666666667 487 654 c 0
 461 642 437 633 415 627 c 0
 393 621 373.666666667 616.666666667 357 614 c 0
 345.666666667 612.666666667 337 612 331 612 c 0
 337 611.333333333 345.333333333 610.333333333 356 609 c 0
 371.333333333 607 388.666666667 602.666666667 408 596 c 0
 427.333333333 589.333333333 448 580 470 568 c 0
 491.333333333 556 510.666666667 539.333333333 528 518 c 0
 551.333333333 490.666666667 566 459.666666667 572 425 c 0
 578 390.333333333 579.333333333 354.333333333 576 317 c 0
 572.666666667 279 566.666666667 240.666666667 558 202 c 0
 549.333333333 163.333333333 542.333333333 126.333333333 537 91 c 0
 531.666666667 55.6666666667 530 22.6666666667 532 -8 c 0
 534 -38.6666666667 543.333333333 -64 560 -84 c 0
 572.666666667 -100 589.666666667 -111.666666667 611 -119 c 0
 632.333333333 -126.333333333 653 -131.666666667 673 -135 c 0
 696.333333333 -138.333333333 720.666666667 -140 746 -140 c 0
 724 -256 l 0
 683 -256 l 0
 664.333333333 -256 642.666666667 -255.333333333 618 -254 c 0
 593.333333333 -252.666666667 567 -250.666666667 539 -248 c 0
 511 -244.666666667 483.666666667 -240 457 -234 c 0
 430.333333333 -227.333333333 405.333333333 -219 382 -209 c 0
 359.333333333 -199 341 -186 327 -170 c 0
 301 -142 284.666666667 -109 278 -71 c 0
 271.333333333 -33 269.666666667 7.33333333333 273 50 c 0
 277 92 283.666666667 134.666666667 293 178 c 0
 303 221.333333333 311.666666667 262.666666667 319 302 c 0
 326.333333333 341.333333333 329.666666667 377.666666667 329 411 c 0
 328.333333333 443.666666667 320 470 304 490 c 0
 287.333333333 510.666666667 266.666666667 525.333333333 242 534 c 0
 217.333333333 542.666666667 193.333333333 548.333333333 170 551 c 0
 142.666666667 553.666666667 114.666666667 553.333333333 86 550 c 0
 109 675 l 0
 137.666666667 671 166 670.333333333 194 673 c 0
 218 675 244 680.333333333 272 689 c 0
 300 697.666666667 326 712 350 732 c 0
 374.666666667 752.666666667 393.666666667 779.666666667 407 813 c 0
 420.333333333 846.333333333 431.333333333 882.666666667 440 922 c 0
 448.666666667 961.333333333 456.666666667 1003 464 1047 c 0
 472 1091 482.666666667 1133.66666667 496 1175 c 0
 508.666666667 1217 526 1257 548 1295 c 0
 570 1333 600 1366.33333333 638 1395 c 0
 658.666666667 1411 682.333333333 1424 709 1434 c 0
 735.666666667 1444 763.666666667 1452.33333333 793 1459 c 0
 822.333333333 1465.66666667 851.666666667 1470.33333333 881 1473 c 0
 910.333333333 1476.33333333 937.333333333 1478.33333333 962 1479 c 0
 986.666666667 1480.33333333 1008.33333333 1481 1027 1481 c 0
 1067 1481 l 0
 1047 1365 l 0
EndSplineSet
EndChar

StartChar: bar
Encoding: 95 124 95
Width: 833
VWidth: 1024
Flags: HW
LayerCount: 2
Fore
SplineSet
328 -541 m 0
 328 1669 l 0
 507 1669 l 0
 507 -541 l 0
 328 -541 l 0
EndSplineSet
EndChar

StartChar: braceright
Encoding: 96 125 96
Width: 1038
VWidth: 1024
Flags: HW
LayerCount: 2
Fore
SplineSet
952 550 m 0
 923.333333333 553.333333333 895 553.666666667 867 551 c 0
 842.333333333 548.333333333 816 542.666666667 788 534 c 0
 760 525.333333333 733.666666667 510.666666667 709 490 c 0
 684.333333333 468.666666667 665.333333333 442 652 410 c 0
 639.333333333 377.333333333 628.666666667 341 620 301 c 0
 611.333333333 261.666666667 603.333333333 220.333333333 596 177 c 0
 588.666666667 133.666666667 578.333333333 91 565 49 c 0
 552.333333333 7 535.333333333 -33 514 -71 c 0
 492.666666667 -109 463.333333333 -142 426 -170 c 0
 405.333333333 -186 381.333333333 -199 354 -209 c 0
 326.666666667 -219 298.333333333 -227.333333333 269 -234 c 0
 239.666666667 -240.666666667 210.333333333 -245.333333333 181 -248 c 0
 151.666666667 -251.333333333 124.666666667 -253.333333333 100 -254 c 0
 75.3333333333 -255.333333333 53.3333333333 -256 34 -256 c 0
 -6 -256 l 0
 16 -140 l 0
 41.3333333333 -140 66.6666666667 -138.333333333 92 -135 c 0
 114 -131.666666667 137 -126.333333333 161 -119 c 0
 185 -111.666666667 206.666666667 -100 226 -84 c 0
 250.666666667 -63.3333333333 270 -38 284 -8 c 0
 297.333333333 22 308.333333333 54.6666666667 317 90 c 0
 325.666666667 125.333333333 333 162.333333333 339 201 c 0
 345.666666667 239.666666667 355 278 367 316 c 0
 378.333333333 354 393.666666667 390.333333333 413 425 c 0
 432.333333333 459.666666667 459 490.666666667 493 518 c 0
 518.333333333 538.666666667 543.666666667 555 569 567 c 0
 595 579 619.333333333 588.333333333 642 595 c 0
 664 601.666666667 683 606 699 608 c 0
 715.666666667 610 727.333333333 611.333333333 734 612 c 0
 729.333333333 612 719.666666667 612.666666667 705 614 c 0
 689.666666667 615.333333333 672 619.333333333 652 626 c 0
 632 632 611.333333333 641 590 653 c 0
 568.666666667 665 548.666666667 682.333333333 530 705 c 0
 506.666666667 732.333333333 492.333333333 763.333333333 487 798 c 0
 481 832.666666667 479.666666667 869 483 907 c 0
 486.333333333 945 492.333333333 983.333333333 501 1022 c 0
 509.666666667 1060.66666667 516.666666667 1098 522 1134 c 0
 527.333333333 1170 529.333333333 1203 528 1233 c 0
 526.666666667 1263 517.666666667 1288.33333333 501 1309 c 0
 488.333333333 1325 471.333333333 1336.33333333 450 1343 c 0
 429.333333333 1350.33333333 409 1356 389 1360 c 0
 365.666666667 1363.33333333 340.666666667 1365 314 1365 c 0
 338 1481 l 0
 378 1481 l 0
 397.333333333 1481 419 1480.33333333 443 1479 c 0
 467.666666667 1477.66666667 494 1475.66666667 522 1473 c 0
 550 1469.66666667 577.666666667 1465 605 1459 c 0
 631.666666667 1452.33333333 656.333333333 1444 679 1434 c 0
 701.666666667 1424 720.666666667 1411 736 1395 c 0
 762 1366.33333333 778.333333333 1333 785 1295 c 0
 791.666666667 1257 792.666666667 1217 788 1175 c 0
 784 1133 777 1090.33333333 767 1047 c 0
 757 1003 748.666666667 961.333333333 742 922 c 0
 734.666666667 882.666666667 731.333333333 846.333333333 732 813 c 0
 732.666666667 779.666666667 741 752.666666667 757 732 c 0
 773.666666667 711.333333333 794 697 818 689 c 0
 842.666666667 680.333333333 866.666666667 675 890 673 c 0
 917.333333333 670.333333333 945.666666667 671 975 675 c 0
 952 550 l 0
EndSplineSet
EndChar

StartChar: asciitilde
Encoding: 97 126 97
Width: 1746
VWidth: 1024
Flags: HW
LayerCount: 2
Fore
SplineSet
783 314 m 0
 761.666666667 298.666666667 742 286 724 276 c 0
 706 266 689 258 673 252 c 0
 657 246 641.333333333 241.666666667 626 239 c 0
 610.666666667 236.333333333 595.666666667 235 581 235 c 0
 555.666666667 235 531 238.666666667 507 246 c 0
 483 253.333333333 459 261.333333333 435 270 c 0
 411 278.666666667 387 286.666666667 363 294 c 0
 339 301.333333333 314 305 288 305 c 0
 264 305 236 297.666666667 204 283 c 0
 172 268.333333333 134 244.333333333 90 211 c 0
 90 310 l 0
 129.333333333 340 166.333333333 361 201 373 c 0
 235 385 266 391 294 391 c 0
 314 391 333.333333333 389 352 385 c 0
 370.666666667 381 389.333333333 375.666666667 408 369 c 0
 426 363 444 356.333333333 462 349 c 0
 480 342.333333333 498.333333333 336.333333333 517 331 c 0
 527.666666667 327.666666667 538.666666667 325.333333333 550 324 c 0
 560.666666667 322 571.333333333 321 582 321 c 0
 593.333333333 321 605.333333333 322.333333333 618 325 c 0
 630.666666667 327.666666667 645.333333333 332.666666667 662 340 c 0
 678 346.666666667 696 356 716 368 c 0
 736 380 758.333333333 395.333333333 783 414 c 0
 783 314 l 0
EndSplineSet
EndChar

StartChar: inherent
Encoding: 103 -1 98
Width: 352
Flags: HW
LayerCount: 2
Fore
SplineSet
696 1505 m 2
 679.333333333 1425.66666667 628.5 1356 543.5 1296 c 128
 458.5 1236 357.333333333 1206 240 1206 c 1
 285 1423 l 1
 323 1423 353 1432.66666667 375 1452 c 1
 399.666666667 1467.33333333 414.666666667 1485 420 1505 c 1
 449 1651 l 1
 725 1651 l 1
 696 1505 l 2
EndSplineSet
EndChar

StartChar: makewide
Encoding: 104 -1 99
Width: 710
Flags: HW
LayerCount: 2
Fore
SplineSet
999 283 m 2
 982.333333333 206.333333333 943.5 140 882.5 84 c 128
 821.5 28 756 0 686 0 c 2
 381 2 l 2
 345.666666667 2 313.333333333 6.16666666667 284 14.5 c 128
 254.666666667 22.8333333333 224.166666667 36.5 192.5 55.5 c 128
 160.833333333 74.5 134.166666667 96.3333333333 112.5 121 c 128
 90.8333333333 145.666666667 67.6666666667 178.333333333 43 219 c 1
 109 535 l 1
 152 543 l 1
 176.666666667 450.333333333 221 374.333333333 285 315 c 1
 342.333333333 259 405 231 473 231 c 2
 664 231 l 2
 679.333333333 231 691.333333333 238.666666667 700 254 c 0
 719.333333333 280 730.333333333 301 733 317 c 2
 879 1010 l 2
 881.666666667 1025.33333333 883 1036 883 1042 c 0
 883 1066.66666667 874.666666667 1092 858 1118 c 1
 833.333333333 1144 799.333333333 1157 756 1157 c 2
 532 1157 l 1
 580 1389 l 1
 1085 1389 l 1
 1098 1194 l 1
 1138.66666667 1148.66666667 1159 1102.33333333 1159 1055 c 0
 1159 1045.66666667 1157.66666667 1033.33333333 1155 1018 c 2
 999 283 l 2
EndSplineSet
EndChar

StartChar: shortrr
Encoding: 105 -1 100
Width: 1681
Flags: HW
LayerCount: 2
Fore
SplineSet
1974 1165 m 1
 973 1165 l 2
 944.333333333 1165 922.5 1160.33333333 907.5 1151 c 128
 892.5 1141.66666667 882.333333333 1127.33333333 877 1108 c 2
 840 948 l 1
 840 922 848.833333333 900.5 866.5 883.5 c 128
 884.166666667 866.5 908 858 938 858 c 2
 1325 858 l 1
 1274 627 l 1
 889 627 l 2
 857.666666667 627 829.666666667 619.333333333 805 604 c 0
 793 597.333333333 783.833333333 588.833333333 777.5 578.5 c 128
 771.166666667 568.166666667 766.666666667 557 764 545 c 2
 719 344 l 1
 716.333333333 314 720.333333333 291.333333333 731 276 c 1
 740.333333333 254 752.666666667 242.666666667 768 242 c 1
 965 242 l 1
 918 10 l 1
 629 10 l 2
 562.333333333 10 508.333333333 34 467 82 c 0
 437 117.333333333 422 155.666666667 422 197 c 0
 422 206.333333333 423.333333333 222 426 244 c 1
 492 559 l 2
 502.666666667 612.333333333 530.333333333 658.666666667 575 698 c 1
 580.333333333 700.666666667 595.333333333 709.166666667 620 723.5 c 128
 644.666666667 737.833333333 662 746.666666667 672 750 c 1
 598 801 l 1
 577.333333333 831 567 863 567 897 c 0
 567 913.666666667 567.666666667 925.333333333 569 932 c 2
 621 1176 l 2
 636.333333333 1245.33333333 675 1297.66666667 737 1333 c 1
 791.666666667 1372.33333333 860 1392.33333333 942 1393 c 2
 2032 1393 l 1
 1974 1165 l 1
EndSplineSet
EndChar

StartChar: anusvara
Encoding: 107 3202 101
Width: 1609
Flags: HW
LayerCount: 2
Fore
SplineSet
1702 319 m 2
 1682.66666667 231.666666667 1638.33333333 158 1569 98 c 1
 1501 34 1427.33333333 2 1348 2 c 2
 705 2 l 2
 613.666666667 2 541 36.6666666667 487 106 c 1
 447.666666667 151.333333333 428 206.666666667 428 272 c 0
 428 292.666666667 430.666666667 316 436 342 c 2
 594 1092 l 1
 614.666666667 1179.33333333 663.666666667 1250.33333333 741 1305 c 1
 779 1335 819.666666667 1356.5 863 1369.5 c 128
 906.333333333 1382.5 952.333333333 1389 1001 1389 c 2
 1587 1389 l 2
 1679.66666667 1389 1753.33333333 1357.33333333 1808 1294 c 0
 1847.33333333 1248.66666667 1867.33333333 1195 1868 1133 c 0
 1868 1111 1865.33333333 1089 1860 1067 c 2
 1702 319 l 2
1434 360 m 1
 1579 1051 l 2
 1580.33333333 1057.66666667 1581 1067 1581 1079 c 0
 1581 1097 1573.83333333 1114.5 1559.5 1131.5 c 128
 1545.16666667 1148.5 1523.66666667 1157 1495 1157 c 2
 1026 1157 l 2
 986.666666667 1157 949 1147.33333333 913 1128 c 1
 884.333333333 1108.66666667 867.333333333 1087 862 1063 c 2
 715 356 l 2
 708.333333333 322 717.5 291.666666667 742.5 265 c 128
 767.5 238.333333333 800 225 840 225 c 2
 1298 225 l 2
 1326.66666667 225 1354.83333333 237.666666667 1382.5 263 c 128
 1410.16666667 288.333333333 1427.33333333 320.666666667 1434 360 c 1
EndSplineSet
EndChar

StartChar: u0C83
Encoding: 108 3203 102
Width: 1040
Flags: HW
LayerCount: 2
Fore
SplineSet
1321 944 m 2
 1310.33333333 888 1277.66666667 839.666666667 1223 799 c 1
 1175 758.333333333 1117.66666667 737.666666667 1051 737 c 2
 725 737 l 2
 652.333333333 737 599 759.666666667 565 805 c 1
 535 836.333333333 520 874 520 918 c 0
 520 936 520.666666667 950.333333333 522 961 c 2
 567 1176 l 2
 579 1240 614.5 1292.5 673.5 1333.5 c 128
 732.5 1374.5 796 1395 864 1395 c 2
 1159 1395 l 2
 1208.33333333 1395 1247.33333333 1384.66666667 1276 1364 c 1
 1292.66666667 1357.33333333 1307 1346.83333333 1319 1332.5 c 128
 1331 1318.16666667 1342.16666667 1299.66666667 1352.5 1277 c 128
 1362.83333333 1254.33333333 1368 1232 1368 1210 c 0
 1368 1199.33333333 1366.66666667 1184.33333333 1364 1165 c 2
 1321 944 l 2
1169 240 m 2
 1157 176 1125.33333333 120.666666667 1074 74 c 128
 1022.66666667 27.3333333333 968.333333333 4 911 4 c 2
 567 6 l 2
 503 6 449.333333333 28 406 72 c 1
 376 107.333333333 360.666666667 144.666666667 360 184 c 0
 360 190.666666667 361.666666667 205 365 227 c 1
 410 442 l 2
 422 506 458 559 518 601 c 128
 578 643 641.666666667 664 709 664 c 2
 1004 664 l 2
 1078 664 1131.66666667 640 1165 592 c 1
 1195 560.666666667 1210 520.333333333 1210 471 c 0
 1210 463 1208.66666667 446 1206 420 c 1
 1169 240 l 2
1053 1001 m 2
 1077 1124 l 2
 1078.33333333 1130.66666667 1077.66666667 1137.16666667 1075 1143.5 c 128
 1072.33333333 1149.83333333 1070.33333333 1154.66666667 1069 1158 c 128
 1067.66666667 1161.33333333 1058.66666667 1163 1042 1163 c 2
 909 1163 l 2
 887 1163 869.666666667 1159.33333333 857 1152 c 128
 844.333333333 1144.66666667 836.666666667 1134.66666667 834 1122 c 2
 809 1018 l 1
 810.333333333 1002.66666667 815.166666667 990.333333333 823.5 981 c 128
 831.833333333 971.666666667 843.333333333 967 858 967 c 2
 1004 967 l 1
 1014.66666667 969.666666667 1024 972.666666667 1032 976 c 128
 1040 979.333333333 1045.5 982.666666667 1048.5 986 c 128
 1051.5 989.333333333 1053 994.333333333 1053 1001 c 2
901 264 m 1
 926 389 l 2
 928.666666667 404.333333333 927.333333333 414.666666667 922 420 c 2
 913 428 l 1
 739 428 l 1
 696 420 l 1
 685.333333333 413.333333333 679.333333333 407 678 401 c 2
 649 285 l 1
 657 246 l 1
 659.666666667 240.666666667 662.833333333 237.166666667 666.5 235.5 c 128
 670.166666667 233.833333333 672.666666667 233 674 233 c 2
 850 233 l 2
 859.333333333 233 869.666666667 236 881 242 c 1
 901 264 l 1
EndSplineSet
EndChar

StartChar: avowel
Encoding: 109 3205 103
Width: 2091
Flags: HW
LayerCount: 2
Fore
SplineSet
2245 295 m 2
 2228.33333333 213 2181.66666667 144.666666667 2105 90 c 1
 2035.66666667 31.3333333333 1956.66666667 2 1868 2 c 2
 733 4 l 2
 636.333333333 4 560.666666667 32.6666666667 506 90 c 1
 484 110.666666667 468.166666667 133 458.5 157 c 128
 448.833333333 181 444 208 444 238 c 0
 444 248.666666667 445.666666667 267 449 293 c 1
 618 1106 l 2
 634.666666667 1189.33333333 679.166666667 1258 751.5 1312 c 128
 823.833333333 1366 903 1393 989 1393 c 2
 1393 1393 l 1
 1290 918 l 1
 1016 918 l 1
 1069 1161 l 1
 997 1161 l 2
 971 1161 948 1150 928 1128 c 0
 899.333333333 1096.66666667 881.333333333 1062.66666667 874 1026 c 2
 735 365 l 2
 729.666666667 339 737.333333333 308.666666667 758 274 c 1
 789.333333333 248 822.666666667 235.333333333 858 236 c 2
 1808 236 l 2
 1824.66666667 236 1837.83333333 237.333333333 1847.5 240 c 128
 1857.16666667 242.666666667 1868 247 1880 253 c 128
 1892 259 1904.16666667 268.5 1916.5 281.5 c 128
 1928.83333333 294.5 1940.66666667 307 1952 319 c 0
 1971.33333333 343.666666667 1983.66666667 371 1989 401 c 2
 2132 1077 l 2
 2137.33333333 1099 2132.66666667 1120.33333333 2118 1141 c 1
 2106 1153 2085.33333333 1159 2056 1159 c 2
 1991 1159 l 1
 1962 1036 l 2
 1960.66666667 1029.33333333 1960 1020 1960 1008 c 0
 1960 953.333333333 1996 898.666666667 2068 844 c 1
 2021 625 l 1
 1096 625 l 1
 1147 856 l 1
 1737 856 l 1
 1699 905.333333333 1679.66666667 950.333333333 1679 991 c 0
 1679 1006.33333333 1679.66666667 1016.66666667 1681 1022 c 2
 1761 1393 l 1
 2130 1393 l 2
 2190 1393 2244.5 1380.66666667 2293.5 1356 c 128
 2342.5 1331.33333333 2377.33333333 1299.33333333 2398 1260 c 1
 2413.33333333 1235.33333333 2421 1205.66666667 2421 1171 c 0
 2421 1160.33333333 2419.66666667 1144 2417 1122 c 1
 2245 295 l 2
EndSplineSet
EndChar

StartChar: aavowel
Encoding: 110 3206 104
Width: 2238
Flags: HW
LayerCount: 2
Fore
SplineSet
2546 993 m 1
 2529.33333333 909.666666667 2487.66666667 843 2421 793 c 1
 2383 761.666666667 2346.83333333 738.666666667 2312.5 724 c 128
 2278.16666667 709.333333333 2240.66666667 702 2200 702 c 2
 2161 702 l 1
 2191 656.666666667 2204.66666667 620 2202 592 c 1
 2126 231 l 2
 2114 167 2073.66666667 112.666666667 2005 68 c 0
 1973.66666667 47.3333333333 1939.5 31.5 1902.5 20.5 c 128
 1865.5 9.5 1823.33333333 4 1776 4 c 2
 690 12 l 2
 608 12 545.333333333 40.6666666667 502 98 c 1
 468 134.666666667 451 179.666666667 451 233 c 0
 451 255 453.666666667 277 459 299 c 2
 631 1112 l 2
 640.333333333 1151.33333333 657 1188.16666667 681 1222.5 c 128
 705 1256.83333333 738.666666667 1289 782 1319 c 1
 869.333333333 1372.33333333 963.666666667 1399 1065 1399 c 2
 1380 1399 l 1
 1278 924 l 1
 1004 924 l 1
 1057 1167 l 1
 1028 1167 l 2
 996.666666667 1167 969 1157.5 945 1138.5 c 128
 921 1119.5 906.333333333 1097.66666667 901 1073 c 2
 754 367 l 2
 751.333333333 347.666666667 750 335.333333333 750 330 c 0
 750 313.333333333 755.333333333 294.666666667 766 274 c 1
 788 248 814.666666667 235.333333333 846 236 c 2
 1729 236 l 2
 1759 236 1789 248.666666667 1819 274 c 0
 1835.66666667 289.333333333 1849 304.166666667 1859 318.5 c 128
 1869 332.833333333 1875.33333333 349.666666667 1878 369 c 2
 1925 596 l 2
 1930.33333333 626 1917.33333333 663 1886 707 c 1
 1274 707 l 1
 1325 938 l 1
 1831 938 l 1
 1811.66666667 976 1804.66666667 1003.33333333 1810 1020 c 1
 1843 1182 l 2
 1853.66666667 1242 1890.83333333 1291.5 1954.5 1330.5 c 128
 2018.16666667 1369.5 2089 1389 2167 1389 c 2
 2355 1389 l 2
 2434.33333333 1389 2492.16666667 1367.5 2528.5 1324.5 c 128
 2564.83333333 1281.5 2583 1237.33333333 2583 1192 c 0
 2583 1182.66666667 2581.33333333 1167 2578 1145 c 1
 2546 993 l 1
2269 1008 m 2
 2288 1102 l 2
 2289.33333333 1107.33333333 2290 1113 2290 1119 c 128
 2290 1128 2290 1128 2290 1130 c 0
 2290 1149.33333333 2281.66666667 1159 2265 1159 c 2
 2177 1159 l 2
 2155 1159 2137.5 1152.83333333 2124.5 1140.5 c 128
 2111.5 1128.16666667 2104.33333333 1114.66666667 2103 1100 c 1
 2089 1034 l 2
 2082.33333333 1002.66666667 2089.66666667 969.333333333 2111 934 c 1
 2200 934 l 2
 2215.33333333 934 2230 941.5 2244 956.5 c 128
 2258 971.5 2266.33333333 988.666666667 2269 1008 c 2
EndSplineSet
EndChar

StartChar: ivowel
Encoding: 111 3207 105
Width: 1687
Flags: HW
LayerCount: 2
Fore
SplineSet
1767 0 m 1
 1599 0 l 2
 1525 0 1463 22.6666666667 1413 68 c 1
 1379 106 1362 147.666666667 1362 193 c 0
 1362 202.333333333 1363.33333333 216.666666667 1366 236 c 2
 1389 350 l 1
 1174 350 l 2
 1104.66666667 350 1050.66666667 370 1012 410 c 1
 992.666666667 422 979.333333333 436.833333333 972 454.5 c 128
 964.666666667 472.166666667 961 491.333333333 961 512 c 0
 961 527.333333333 961.666666667 538.333333333 963 545 c 2
 993 690 l 1
 999.666666667 735.333333333 1030.33333333 773.666666667 1085 805 c 1
 1138.33333333 831 1197.33333333 844 1262 844 c 2
 1513 844 l 2
 1557 844 1594 831.666666667 1624 807 c 1
 1655 778 l 1
 1716 1083 l 1
 1721.33333333 1102.33333333 1716.16666667 1118.5 1700.5 1131.5 c 128
 1684.83333333 1144.5 1658 1151 1620 1151 c 2
 1460 1151 l 2
 1435.33333333 1151 1417.66666667 1149.66666667 1407 1147 c 128
 1396.33333333 1144.33333333 1380.66666667 1136.5 1360 1123.5 c 128
 1339.33333333 1110.5 1326.33333333 1091.66666667 1321 1067 c 2
 1288 909 l 1
 1014 909 l 1
 1044 1057 l 2
 1049.33333333 1081.66666667 1042.5 1103.5 1023.5 1122.5 c 128
 1004.5 1141.5 976 1151 938 1151 c 2
 743 1151 l 2
 711.666666667 1151 684.833333333 1143.16666667 662.5 1127.5 c 128
 640.166666667 1111.83333333 626.333333333 1091.66666667 621 1067 c 2
 590 936 l 1
 590 902 595.333333333 881.333333333 606 874 c 1
 616.666666667 854.666666667 631.666666667 845.333333333 651 846 c 2
 723 846 l 1
 672 614 l 1
 547 616 l 2
 463.666666667 616 400 643.333333333 356 698 c 1
 320.666666667 736 303 782.666666667 303 838 c 0
 303 847.333333333 304.333333333 865 307 891 c 1
 350 1094 l 2
 362 1151.33333333 387.166666667 1201.83333333 425.5 1245.5 c 128
 463.833333333 1289.16666667 511 1321.66666667 567 1343 c 1
 617.666666667 1367.66666667 673 1380 733 1380 c 2
 1014 1380 l 2
 1079.33333333 1380 1129 1367 1163 1341 c 1
 1187.66666667 1329 1208.33333333 1307.33333333 1225 1276 c 1
 1230.33333333 1282.66666667 1240.16666667 1293.16666667 1254.5 1307.5 c 128
 1268.83333333 1321.83333333 1285.66666667 1332.33333333 1305 1339 c 1
 1349 1367.66666667 1397.33333333 1382 1450 1382 c 2
 1716 1382 l 2
 1817.33333333 1382 1891.66666667 1354.66666667 1939 1300 c 1
 1979.66666667 1259.33333333 2000.33333333 1209 2001 1149 c 0
 2001 1129.66666667 1998.33333333 1109 1993 1087 c 2
 1921 748 l 2
 1895 628 1812.33333333 514 1673 406 c 1
 1645 276 l 2
 1642.33333333 260.666666667 1643.66666667 250 1649 244 c 1
 1665.66666667 233.333333333 1676.33333333 227.666666667 1681 227 c 2
 1810 227 l 1
 1767 0 l 1
1430 580 m 1
 1432 588 l 2
 1437.33333333 608.666666667 1427 618.666666667 1401 618 c 2
 1268 618 l 2
 1261.33333333 618 1256.33333333 617.333333333 1253 616 c 1
 1249 602 l 1
 1249 592 l 1
 1250.33333333 589.333333333 1252.5 587.333333333 1255.5 586 c 128
 1258.5 584.666666667 1260.66666667 584 1262 584 c 2
 1430 580 l 1
EndSplineSet
EndChar

StartChar: iivowel
Encoding: 112 3208 106
Width: 2623
Flags: HW
LayerCount: 2
Fore
SplineSet
2886 827 m 1
 2875.33333333 769.666666667 2841 712.333333333 2783 655 c 1
 2732.33333333 609.666666667 2673.66666667 574.333333333 2607 549 c 1
 2689 433 2726.66666667 355 2720 315 c 1
 2691 178 l 2
 2685.66666667 153.333333333 2677.83333333 132.5 2667.5 115.5 c 128
 2657.16666667 98.5 2641.66666667 79.6666666667 2621 59 c 1
 2580.33333333 23.6666666667 2539.66666667 6 2499 6 c 2
 1997 6 l 1
 2044 238 l 1
 2372 238 l 2
 2382.66666667 238 2395.5 244.333333333 2410.5 257 c 128
 2425.5 269.666666667 2433.66666667 279.666666667 2435 287 c 2
 2437 297 l 2
 2442.33333333 325.666666667 2430 353 2400 379 c 1
 2292 518 l 1
 1851 518 l 1
 1804 285 l 2
 1787.33333333 208.333333333 1743 142.666666667 1671 88 c 1
 1603 30.6666666667 1527.33333333 2 1444 2 c 2
 709 4 l 2
 636.333333333 4 580.333333333 28.6666666667 541 78 c 1
 509.666666667 112 494 154.333333333 494 205 c 0
 494 215.666666667 495.333333333 232 498 254 c 1
 551 514 l 1
 319 514 l 1
 371 745 l 1
 602 745 l 1
 633 903 l 1
 652.333333333 990.333333333 715.666666667 1077.66666667 823 1165 c 1
 662 1165 l 1
 709 1397 l 1
 1786 1397 l 2
 1808 1397 1826.16666667 1404.5 1840.5 1419.5 c 128
 1854.83333333 1434.5 1862.66666667 1447.33333333 1864 1458 c 2
 1888 1587 l 1
 2169 1587 l 1
 2144 1458 l 1
 2127.33333333 1381.33333333 2085.66666667 1316.66666667 2019 1264 c 1
 1973.66666667 1218.66666667 1916.33333333 1186.33333333 1847 1167 c 1
 1881 1138.33333333 1908.33333333 1106 1929 1070 c 128
 1949.66666667 1034 1957.33333333 996.666666667 1952 958 c 1
 1907 743 l 1
 2140 743 l 1
 2128 767.666666667 2122 798 2122 834 c 0
 2122 856 2123.33333333 873 2126 885 c 2
 2157 1032 l 2
 2172.33333333 1101.33333333 2209.66666667 1160 2269 1208 c 1
 2323.66666667 1256 2388 1280 2462 1280 c 2
 2707 1280 l 2
 2785 1280 2843.33333333 1254.66666667 2882 1204 c 1
 2916 1166 2933 1122.33333333 2933 1073 c 0
 2933 1048.33333333 2931.66666667 1030 2929 1018 c 2
 2886 827 l 1
2613 846 m 1
 2644 993 l 2
 2645.33333333 999.666666667 2644.33333333 1007.16666667 2641 1015.5 c 128
 2637.66666667 1023.83333333 2634.33333333 1031.16666667 2631 1037.5 c 128
 2627.66666667 1043.83333333 2617.66666667 1047 2601 1047 c 2
 2486 1047 l 2
 2466.66666667 1047 2454.33333333 1043.33333333 2449 1036 c 2
 2427 1004 l 1
 2394 848 l 1
 2392.66666667 828.666666667 2396.66666667 811 2406 795 c 1
 2488 737 l 1
 2512.66666667 742.333333333 2536 753.333333333 2558 770 c 0
 2588 794.666666667 2606.33333333 820 2613 846 c 1
1624 745 m 1
 1671 971 l 2
 1672.33333333 977.666666667 1673 984.833333333 1673 992.5 c 128
 1673 1004 1673 1004 1673 1008 c 0
 1673 1072 1641.66666667 1123.66666667 1579 1163 c 1
 1133 1163 l 1
 1003 1086.33333333 928.333333333 1001.66666667 909 909 c 2
 872 741 l 1
 1624 745 l 1
1542 358 m 1
 1573 510 l 1
 823 510 l 1
 786 330 l 2
 780.666666667 305.333333333 785.666666667 280.666666667 801 256 c 1
 817.666666667 235.333333333 836 225 856 225 c 2
 1382 225 l 2
 1397.33333333 225 1412.16666667 228.166666667 1426.5 234.5 c 128
 1440.83333333 240.833333333 1456.33333333 249.333333333 1473 260 c 1
 1508.33333333 290 1531.33333333 322.666666667 1542 358 c 1
EndSplineSet
EndChar

StartChar: uvowel
Encoding: 113 3209 107
Width: 3143
Flags: HW
LayerCount: 2
Fore
SplineSet
3301 311 m 2
 3290.33333333 257.666666667 3265.5 205.833333333 3226.5 155.5 c 128
 3187.5 105.166666667 3140 66.6666666667 3084 40 c 128
 3028 13.3333333333 2975.66666667 0 2927 0 c 2
 2525 0 l 2
 2495 0 2465.66666667 3.83333333333 2437 11.5 c 128
 2408.33333333 19.1666666667 2381.66666667 29 2357 41 c 128
 2332.33333333 53 2312.5 68 2297.5 86 c 128
 2282.5 104 2267.66666667 126 2253 152 c 1
 2241 183.333333333 2234.66666667 218 2234 256 c 0
 2234 266.666666667 2235.33333333 283 2238 305 c 1
 2404 1090 l 2
 2406.66666667 1100.66666667 2403.33333333 1117 2394 1139 c 1
 2378.66666667 1149.66666667 2359 1155 2335 1155 c 2
 1952 1155 l 2
 1926 1155 1906.66666667 1150.33333333 1894 1141 c 1
 1878.66666667 1125.66666667 1868.66666667 1107.66666667 1864 1087 c 2
 1696 287 l 2
 1690.66666667 258.333333333 1682.5 234 1671.5 214 c 128
 1660.5 194 1642.66666667 169 1618 139 c 0
 1582.66666667 98.3333333333 1533.5 64.3333333333 1470.5 37 c 128
 1407.5 9.66666666667 1347.33333333 -4 1290 -4 c 2
 760 -2 l 2
 662 -2 582.666666667 29.3333333333 522 92 c 0
 481.333333333 132.666666667 461 185.333333333 461 250 c 0
 461 274.666666667 463.666666667 300 469 326 c 2
 625 1071 l 1
 640.333333333 1131 662.666666667 1185 692 1233 c 1
 736 1286.33333333 786.666666667 1325.16666667 844 1349.5 c 128
 901.333333333 1373.83333333 953.666666667 1386 1001 1386 c 2
 1464 1386 l 1
 1376 977 l 1
 1370.66666667 943 1357.16666667 908.833333333 1335.5 874.5 c 128
 1313.83333333 840.166666667 1287.66666667 808.666666667 1257 780 c 1
 1189 722.666666667 1118 694 1044 694 c 2
 864 694 l 1
 915 926 l 1
 1034 926 l 2
 1039.33333333 926 1045.83333333 927.666666667 1053.5 931 c 128
 1061.16666667 934.333333333 1067.66666667 937.333333333 1073 940 c 0
 1085 949.333333333 1092.66666667 960.333333333 1096 973 c 2
 1135 1149 l 1
 1006 1149 l 2
 974.666666667 1149 949 1140.16666667 929 1122.5 c 128
 909 1104.83333333 897.666666667 1085.66666667 895 1065 c 1
 737 319 l 2
 731.666666667 297 737.5 274.833333333 754.5 252.5 c 128
 771.5 230.166666667 794.333333333 219 823 219 c 2
 1321 219 l 2
 1347 219 1367.33333333 227.333333333 1382 244 c 1
 1406.66666667 264.666666667 1420.33333333 285 1423 305 c 1
 1585 1081 l 2
 1595.66666667 1130.33333333 1610 1170.66666667 1628 1202 c 128
 1646 1233.33333333 1674 1263.33333333 1712 1292 c 1
 1781.33333333 1350.66666667 1858 1380 1942 1380 c 2
 2410 1380 l 2
 2470 1380 2522.33333333 1368.16666667 2567 1344.5 c 128
 2611.66666667 1320.83333333 2644 1286.33333333 2664 1241 c 0
 2676 1212.33333333 2682.33333333 1180.33333333 2683 1145 c 0
 2683 1134.33333333 2681.66666667 1118 2679 1096 c 1
 2517 322 l 2
 2510.33333333 293.333333333 2514.83333333 269 2530.5 249 c 128
 2546.16666667 229 2565 219 2587 219 c 2
 2920 219 l 2
 2946 219 2966.66666667 227.333333333 2982 244 c 1
 2992.66666667 253.333333333 3001.16666667 262.833333333 3007.5 272.5 c 128
 3013.83333333 282.166666667 3018.33333333 293 3021 305 c 2
 3181 1065 l 1
 3182.33333333 1080.33333333 3176.83333333 1094 3164.5 1106 c 128
 3152.16666667 1118 3133.66666667 1124 3109 1124 c 2
 3047 1124 l 1
 3101 1382 l 1
 3248 1382 l 2
 3327.33333333 1382 3386 1357 3424 1307 c 1
 3454 1271.66666667 3469 1228.66666667 3469 1178 c 0
 3469 1168.66666667 3467.66666667 1150.66666667 3465 1124 c 1
 3301 311 l 2
EndSplineSet
EndChar

StartChar: uuvowel
Encoding: 114 3210 108
Width: 3768
Flags: HW
LayerCount: 2
Fore
SplineSet
3918 295 m 1
 3898.66666667 211.666666667 3855.66666667 144.666666667 3789 94 c 1
 3716.33333333 34 3643.33333333 4 3570 4 c 2
 3451 4 l 2
 3378.33333333 4 3317.66666667 30.6666666667 3269 84 c 1
 3237.66666667 120.666666667 3222 161.666666667 3222 207 c 0
 3222 226.333333333 3224.66666667 246 3230 266 c 2
 3273 475 l 1
 3549 475 l 1
 3506 266 l 2
 3503.33333333 254 3503.33333333 246.666666667 3506 244 c 0
 3507.33333333 241.333333333 3515.66666667 239.333333333 3531 238 c 1
 3602 238 l 1
 3612.66666667 243.333333333 3619 247.333333333 3621 250 c 2
 3637 287 l 1
 3799 1057 l 2
 3800.33333333 1063.66666667 3801 1073 3801 1085 c 0
 3801 1103 3795.5 1120.5 3784.5 1137.5 c 128
 3773.5 1154.5 3755 1163 3729 1163 c 2
 3439 1163 l 2
 3401 1163 3368.16666667 1152.16666667 3340.5 1130.5 c 128
 3312.83333333 1108.83333333 3296.33333333 1083 3291 1053 c 2
 3140 334 l 2
 3133.33333333 305.333333333 3124.5 278.666666667 3113.5 254 c 128
 3102.5 229.333333333 3086 201.333333333 3064 170 c 1
 3047.33333333 150.666666667 3033 133.666666667 3021 119 c 0
 2995 90.3333333333 2965 67.6666666667 2931 51 c 0
 2871 19.6666666667 2814.33333333 4 2761 4 c 2
 2335 4 l 2
 2253 4 2188 36 2140 100 c 1
 2112.66666667 139.333333333 2099 186.666666667 2099 242 c 0
 2099 266.666666667 2101.66666667 293.333333333 2107 322 c 2
 2267 1081 l 2
 2272.33333333 1107 2267.5 1127.5 2252.5 1142.5 c 128
 2237.5 1157.5 2217 1165 2191 1165 c 2
 1896 1165 l 2
 1866 1165 1840.83333333 1155.5 1820.5 1136.5 c 128
 1800.16666667 1117.5 1787.33333333 1095.66666667 1782 1071 c 2
 1630 346 l 2
 1609.33333333 252 1556 171.166666667 1470 103.5 c 128
 1384 35.8333333333 1292 2 1194 2 c 2
 803 4 l 2
 697.666666667 4 609 35.3333333333 537 98 c 1
 491.666666667 143.333333333 469 198 469 262 c 0
 469 282.666666667 471.666666667 306 477 332 c 2
 637 1094 l 1
 647.666666667 1138 664 1177.33333333 686 1212 c 128
 708 1246.66666667 739.333333333 1278.33333333 780 1307 c 0
 858 1364.33333333 947.666666667 1393 1049 1393 c 2
 1473 1393 l 1
 1393 1022 l 2
 1376.33333333 944 1331 876.333333333 1257 819 c 1
 1190.33333333 760.333333333 1113.33333333 731 1026 731 c 2
 907 731 l 1
 958 963 l 1
 1049 963 l 2
 1055.66666667 963 1062.66666667 964.666666667 1070 968 c 128
 1077.33333333 971.333333333 1082.33333333 973.666666667 1085 975 c 0
 1097 984.333333333 1104.66666667 995.333333333 1108 1008 c 2
 1141 1159 l 1
 1026 1159 l 2
 994.666666667 1159 967.333333333 1150.5 944 1133.5 c 128
 920.666666667 1116.5 906.333333333 1097 901 1075 c 2
 748 342 l 2
 742.666666667 310.666666667 750.166666667 284 770.5 262 c 128
 790.833333333 240 820 229 858 229 c 2
 1227 229 l 2
 1247.66666667 229 1273 239.333333333 1303 260 c 1
 1327.66666667 284.666666667 1342.66666667 312 1348 342 c 2
 1501 1075 l 1
 1516.33333333 1137.66666667 1544.33333333 1191.66666667 1585 1237 c 0
 1607 1263 1630 1284.83333333 1654 1302.5 c 128
 1678 1320.16666667 1705.66666667 1335.33333333 1737 1348 c 0
 1799.66666667 1374 1860.33333333 1386.66666667 1919 1386 c 2
 2243 1386 l 2
 2307 1386 2364.16666667 1372.83333333 2414.5 1346.5 c 128
 2464.83333333 1320.16666667 2499 1285.16666667 2517 1241.5 c 128
 2535 1197.83333333 2544 1158 2544 1122 c 0
 2544 1111.33333333 2542.66666667 1095 2540 1073 c 1
 2380 313 l 2
 2374.66666667 291 2376.66666667 272 2386 256 c 1
 2402.66666667 236.666666667 2423.66666667 227 2449 227 c 2
 2724 227 l 2
 2739.33333333 227 2754.33333333 229.833333333 2769 235.5 c 128
 2783.66666667 241.166666667 2797.33333333 248 2810 256 c 1
 2829.33333333 275.333333333 2842 290 2848 300 c 128
 2854 310 2858.33333333 322.666666667 2861 338 c 2
 3009 1044 l 1
 3024.33333333 1108 3050.66666667 1165.66666667 3088 1217 c 1
 3110 1243 3133.66666667 1266.16666667 3159 1286.5 c 128
 3184.33333333 1306.83333333 3212 1324.33333333 3242 1339 c 0
 3302 1367.66666667 3364 1382 3428 1382 c 2
 3768 1382 l 2
 3834.66666667 1382 3893.33333333 1367.66666667 3944 1339 c 128
 3994.66666667 1310.33333333 4030.33333333 1268.66666667 4051 1214 c 0
 4057.66666667 1198.66666667 4062.66666667 1180.83333333 4066 1160.5 c 128
 4069.33333333 1140.16666667 4071 1120 4071 1100 c 0
 4071 1075.33333333 4069.66666667 1056.66666667 4067 1044 c 2
 3918 295 l 1
EndSplineSet
EndChar

